<svg xmlns="http://www.w3.org/2000/svg" width="1040" height="371.248" viewBox="0 0 1040 371.248"><path fill="#FFF" d="M187.887 88.688l-.041 96.999.041-96.999-.041-.001c-43.001 0-79.461 27.985-92.177 66.733l92.177 29.992-92.177-29.992a96.888 96.888 0 0 0-4.823 30.267c0 32.257 15.75 60.832 39.975 78.468l57.024-78.419-57.024 78.419c16.007 11.652 35.71 18.531 57.024 18.531 21.319 0 41.028-6.883 57.037-18.541l-56.954-78.458 56.954 78.458c24.218-17.635 39.963-46.205 39.963-78.458a96.873 96.873 0 0 0-4.813-30.237l-92.104 29.885 92.104-29.885c-12.701-38.752-49.15-66.744-92.145-66.762z"/><path fill="#4AA4E2" stroke="#FFF" stroke-width="4" stroke-miterlimit="10" d="M144.262 270.91a.534.534 0 0 0-.048-.035l-41.931 57.764 41.979-57.729zm.223-.408l-.511.188c.081.061.159.123.24.185l.271-.373zm-51.974 71.601l9.773-13.464-9.772 13.437z"/><path fill="#4AA4E2" stroke="#FFF" stroke-width="4" stroke-miterlimit="10" d="M80.845 282.638l-2.322 53.126-.071.103c.021.014.041.028.063.045 66.416 48.254 154.155 45.893 217.229.227l-.017-.02-49.92-18.664-2.067-52.338c-33.041 23.668-78.815 24.801-113.502-.398l-.026-.021.281-.389-49.648 18.329z"/><path fill="#EB7E29" stroke="#FFF" stroke-width="4" stroke-miterlimit="10" d="M246.975 317.078l49.81 18.625.073.1c.021-.016.042-.028.063-.045 66.416-48.254 91.281-132.428 67.341-206.527l-.023.009-33.175 41.71-50.415-14.207c12.3 38.738-.768 82.621-35.453 107.822-.011.008-.02.014-.026.02l-.283-.387 2.088 52.88z"/><g fill="#FEC04F" stroke="#FFF" stroke-width="4" stroke-miterlimit="10"><path d="M331.292 169.813l33.103-41.617.117-.038c-.008-.024-.014-.048-.021-.073C339.122 50.005 266.752.344 188.883.215v.027l29.415 44.44-29.089 43.559c40.643.272 78.34 26.261 91.589 67.036l.011.033-.457.148 50.94 14.355zm-142.445-81.58l.061.001-.03-71.379-.031 71.378z"/><path d="M188.907 88.695l.303-.454c-.103 0-.202-.007-.303-.007v.461zM188.869.22l.007 16.635.007-16.613z"/></g><g fill="#29CCB1" stroke="#FFF" stroke-width="4" stroke-miterlimit="10"><path d="M217.442 44.471L188.091.125V.002L188.014 0C105.917 0 36.324 53.482 12.138 127.5l.025.008 51.354-14.242 32.438 41.127C108.775 115.822 145.14 88 188.014 88l.036.001v.48l29.392-44.01zM95.837 154.734l.02-.057-67.895-22.029 67.875 22.086z"/><path d="M96.294 154.82l-.338-.428c-.031.096-.068.189-.101.285l.439.143zm-84.156-27.304l15.824 5.132-15.798-5.14z"/></g><path fill="#3F5664" stroke="#FFF" stroke-width="4" stroke-miterlimit="10" d="M62.491 113.936l-51.244 14.21-.118-.038c-.008.023-.018.048-.024.072-25.369 78.078 3.989 160.793 66.911 206.667l.015-.021 2.325-53.242 49.138-18.143C96.772 239.332 81.551 196.148 94.8 155.373l.011-.033.457.148-32.777-41.552z"/><path d="M93.787 58.604l.914-.914a82.572 82.572 0 0 1 3.758 2.945l-1.017 1.016c-.543-.541-1.489-1.32-2.844-2.336-.338-.337-.608-.574-.811-.711zm2.234 15.844l-1.319-.406c.608-2.031 1.422-5.18 2.438-9.445.473.203.914.373 1.32.508a460.381 460.381 0 0 1-2.439 9.343zm-1.218-22.344l.914-.914c.203.137.473.34.813.609 1.15.949 1.996 1.693 2.539 2.234l-1.016 1.016c-.475-.473-1.254-1.184-2.336-2.133a13.778 13.778 0 0 1-.914-.812zm4.976 3.047h9.75v1.219h-1.422c-.608 3.928-1.422 7.076-2.438 9.445 1.625 2.98 2.809 5.078 3.555 6.297l-1.32.813c-.271-.475-.678-1.184-1.219-2.133a1856.82 1856.82 0 0 1-1.828-3.352c-1.287 2.438-3.082 4.738-5.383 6.906-.34-.406-.678-.779-1.016-1.117 2.504-2.098 4.399-4.502 5.688-7.211-1.354-2.504-2.606-4.672-3.758-6.5l1.117-.711c.473.813 1.219 2.066 2.233 3.758.406.813.744 1.422 1.017 1.828.879-2.234 1.557-4.908 2.031-8.023h-7.009l.002-1.219zm3.352-4.062l1.117-.508c.473.678 1.082 1.762 1.828 3.25l-1.22.609c-.203-.473-.576-1.184-1.116-2.133l-.609-1.218zm9.344 17.976h-1.32V53.323h1.32v15.742zm3.554-18.484h1.32v21.227c0 1.691-.813 2.572-2.438 2.641h-3.048c0-.068-.034-.203-.102-.406a140.37 140.37 0 0 1-.305-.914h2.844c1.219.066 1.793-.406 1.727-1.422l.002-21.126zm4.164 23.055c4.47-.949 7.379-2.031 8.734-3.25 1.422-1.15 2.166-3.215 2.234-6.195h1.319c-.067 3.318-.881 5.654-2.438 7.008-1.422 1.422-4.469 2.674-9.142 3.758a7.841 7.841 0 0 0-.707-1.321zm1.625-22.344h1.32v8.328h-1.32v-8.328zm1.524 10.156h17.063v8.023h-1.422v-6.703h-14.319v6.906h-1.32l-.002-8.226zm4.164-10.867h1.32v9.141h-1.32v-9.141zm7.008-.102l1.32.203a12.326 12.326 0 0 1-1.219 2.945h9.444v1.219h-10.055a22.097 22.097 0 0 1-2.844 4.367 7.482 7.482 0 0 0-1.117-.914c1.83-2.03 3.318-4.636 4.471-7.82zm-2.032 16.657h1.422v3.961c-.137 1.354.574 1.963 2.134 1.828h4.266c1.422 0 2.199-.508 2.336-1.523 0-.135.033-.371.103-.711.065-.203.168-.914.305-2.133.135.137.473.238 1.016.305.135.068.236.102.306.102 0 .137-.035.34-.103.609-.068 1.219-.17 1.998-.305 2.336-.271 1.488-1.355 2.234-3.25 2.234h-5.078c-2.168.066-3.217-.848-3.148-2.742v-4.266h-.004zm8.329-6.602c-.949-.676-2.539-1.658-4.772-2.945a17.538 17.538 0 0 0-1.22-.711l.711-1.016c2.642 1.49 4.673 2.676 6.095 3.555l-.814 1.117zm114.83 24.245l-.203-1.422c3.047-.406 5.349-.744 6.906-1.016a11.622 11.622 0 0 0-.102 1.422c-1.964.204-4.163.544-6.601 1.016zm3.047-13.711l-.608 7.008h4.164l.711-9.141h-7.009v-1.219h8.431l-.813 10.359h1.728c-.138 3.859-.271 6.67-.406 8.43 0 2.301-1.187 3.453-3.555 3.453h-2.945c0-.271-.068-.678-.203-1.219.135.338.135.27 0-.203.541.066 1.557.102 3.047.102 1.488.066 2.269-.645 2.336-2.133.066-.676.135-2.098.203-4.266.066-1.354.103-2.336.103-2.945h-7.313l.813-8.227 1.316.001zm7.516 16.758h6.297v-7.82h-5.383v-1.32h5.383V71.78h-5.892v-1.219h13.203v1.219h-5.992v6.906h5.587v1.32h-5.587v7.82h6.195v1.219h-13.813l.002-1.219zm5.281-21.226l1.22-.508c.202.406.473 1.016.813 1.828.406.881.676 1.523.813 1.93l-1.32.508c-.274-.676-.782-1.93-1.526-3.758zm13.508.812h18.18v8.633h-8.228v5.18h9.445v1.219h-9.445v5.586h.306c2.438.066 6.024.102 10.766.102-.203.338-.34.813-.406 1.422-2.979 0-6.434-.068-10.358-.203-4.267 0-7.279-1.523-9.039-4.57-.543 1.762-1.828 3.656-3.859 5.688a7.195 7.195 0 0 0-1.117-.914c2.91-2.438 4.502-6.025 4.773-10.766l1.422.203c-.137 1.49-.373 2.844-.711 4.063 1.488 2.98 3.758 4.604 6.805 4.875V76.045h-8.53v-8.633h-.004zm1.422 1.32v5.992h15.336v-5.992h-15.336zm1.112 169.528H311.7v1.423h-12.492v20.616h-1.523v-20.616h-10.156l-.002-1.423zm21.531 13.509a172.677 172.677 0 0 0-9.344-5.384l.813-1.319c.474.271 1.15.645 2.031 1.117 3.316 1.692 5.822 3.047 7.517 4.063l-1.017 1.523zm16.758 8.427a7.372 7.372 0 0 0-1.016-1.016c2.301-1.625 4.027-3.182 5.18-4.672-.746-2.098-1.319-5.246-1.727-9.445v-.813h-14.828v-1.219h6.297v-2.844h-5.281v-1.117h5.281v-2.641h1.32v2.641h4.977v1.117h-4.977v2.844h7.108a120.002 120.002 0 0 1-.202-6.703h1.422c0 2.777.032 5.012.102 6.703h8.531v1.219h-8.43c0 .068.032.203.102.406v.406c.27 3.521.711 6.229 1.32 8.125 1.219-1.691 2.368-3.859 3.453-6.5l1.219.508c-1.287 2.979-2.676 5.484-4.164 7.516 1.149 2.709 2.301 4.096 3.453 4.164.473 0 .846-.406 1.117-1.219.202-.676.405-1.727.608-3.148.406.203.813.34 1.219.406-.137 1.355-.405 2.607-.813 3.758-.34 1.016-1.016 1.557-2.031 1.625-1.692.066-3.184-1.389-4.469-4.367-1.216 1.289-2.808 2.71-4.771 4.266zm-11.883-2.638l-.203-1.32c.338 0 1.017-.033 2.031-.103 1.963-.135 3.52-.235 4.672-.305v-2.845h-5.586v-1.319c.473-.474 1.252-1.558 2.336-3.25h-3.147v-1.117h3.758c.473-.813.914-1.625 1.319-2.438l1.423.406c-.138.203-.341.543-.609 1.017a9.498 9.498 0 0 0-.609 1.016h7.72v1.117h-8.431c-.34.608-.881 1.422-1.625 2.438-.34.475-.576.813-.711 1.016h4.164v-2.336h1.32v2.336h4.875v1.117h-4.875v2.742a69.84 69.84 0 0 1 3.047-.203c.947-.135 1.625-.203 2.031-.203v1.219c-.203 0-.779.035-1.728.102-1.422.068-2.539.138-3.352.203v3.656h-1.32v-3.555c-.881.068-1.186.102-.914.102-2.709.201-4.57.371-5.586.507zm17.367-19.095l.914-.914c.203.203.508.441.914.711a126.147 126.147 0 0 1 2.742 2.337l-1.017 1.016c-.744-.746-1.928-1.796-3.553-3.15zm-182.939 90.444c-.067-.271-.237-.676-.508-1.219-.067-.066-.102-.136-.102-.203 2.504-3.859 4.299-7.854 5.383-11.984l1.422.305a79.382 79.382 0 0 1-2.336 6.195v17.773h-1.32v-15.031a48.627 48.627 0 0 1-2.539 4.164zm6.398-9.953h7.922v-3.453h1.32v3.453h8.227v1.219h-8.227v3.047h6.906v7.517h-1.32v-1.017H163.9c-.203 2.574-.848 4.537-1.93 5.892 1.896 1.219 5.246 2.063 10.055 2.539-.34.541-.575.979-.711 1.319-4.604-.543-8.022-1.489-10.258-2.844-1.084.879-3.285 1.93-6.602 3.148a5.631 5.631 0 0 0-.609-.914 1.203 1.203 0 0 0-.203-.306c3.183-1.084 5.246-2.03 6.195-2.844-1.152-1.016-2.234-2.336-3.25-3.961l1.219-.711c.744 1.354 1.76 2.607 3.047 3.758.879-1.082 1.455-2.774 1.728-5.078h-6.806v-6.5h6.906v-3.047h-7.922v-1.217zm7.821 9.547c.065-.879.102-1.861.102-2.945v-1.116h-5.483v4.063l5.381-.002zm1.421-3.047v3.047h5.586v-4.063h-5.586v1.016zm23.361 13.914h-1.422v-7.922h-8.024c-.138 2.844-1.117 5.619-2.945 8.328a4.237 4.237 0 0 0-1.32-.914c1.285-1.828 2.098-3.556 2.438-5.181.406-1.625.608-4.196.608-7.719v-9.039h20.111v19.5c.066 1.963-.981 2.945-3.147 2.945-.949.065-1.966.102-3.048.102 0-.475-.102-.981-.305-1.522.676.065 1.691.102 3.047.102 1.422.066 2.099-.508 2.031-1.727v-4.875h-8.023v7.922zm-9.244-13.406c0 .609-.035 1.422-.103 2.438v1.727h7.924v-5.281h-7.821v1.116zm0-7.719v5.281h7.821v-5.281h-7.821zm17.267 0h-8.023v5.281h8.023v-5.281zm-8.023 6.602v5.281h8.023v-5.281h-8.023zM25.977 208.449c-.067-.136-.238-.339-.508-.609-.203-.271-.373-.438-.508-.508 3.791-2.572 6.77-5.854 8.938-9.853l1.32.609c-2.506 4.266-5.586 7.722-9.242 10.361zm2.234-.1h16.352c-.067 3.184-.203 5.891-.405 8.125-.068 2.774-1.56 4.164-4.47 4.164a97.074 97.074 0 0 1-3.858.102c0-.475-.068-.982-.203-1.523h1.422c1.016.066 1.861.102 2.539.102 2.031.136 3.08-.881 3.147-3.047.203-2.03.306-4.266.306-6.703H34.51c-.068 5.688-2.709 9.648-7.922 11.884-.068-.138-.271-.406-.609-.813a3.018 3.018 0 0 0-.305-.406c4.875-1.762 7.346-5.313 7.414-10.664h-4.875l-.002-1.221zm11.07-10.767l1.32-.508c1.828 4.536 4.773 7.889 8.836 10.055-.406.476-.778.914-1.117 1.32-4.199-2.707-7.211-6.33-9.039-10.867zm23.461 15.944l6.194-1.93H53.195v-1.219h18.688v1.32l-7.719 2.742v.608h11.272v1.22H64.164v2.133c.065 1.895-.914 2.844-2.945 2.844h-3.25a7.47 7.47 0 0 0-.305-1.422c.676.066 1.727.102 3.147.102 1.422.066 2.064-.441 1.931-1.523v-2.133H50.961v-1.219h11.781v-1.523zm-11.476-13.405h11.68a18.855 18.855 0 0 0-1.016-2.742l1.422-.405c.066.271.203.711.406 1.319l.609 1.828h10.866v1.219H51.266v-1.219zm3.453 3.25h16.859v4.772H54.719v-4.772zm1.32 1.219v2.336h14.219v-2.336H56.039z" fill="#FFF" stroke="#FFF" stroke-width=".5" stroke-miterlimit="10"/><path fill="#FFF" d="M207.668 146.702l-35.94 15.135-18.985-45.084 35.94-15.135zm-81.246 104.306l-25.738-29.3 36.755-32.288 25.738 29.3zm91.006-27.663l.827-38.991 48.912 1.037-.827 38.991z"/><path d="M226.42 220.525c0 .592-.679 1.072-1.519 1.072H146.96c-.838 0-1.518-.48-1.518-1.072v-7.405c0-.592.68-1.072 1.518-1.072h77.941c.84 0 1.519.48 1.519 1.072v7.405zm-64.123-13.005c0 .841-.416 1.52-.929 1.52h-10.213c-.515 0-.926-.679-.926-1.52v-26.364c0-.841.414-1.525.926-1.525h10.213c.516 0 .929.684.929 1.525v26.364zm20.023 0c0 .841-.415 1.52-.928 1.52h-10.213c-.515 0-.926-.679-.926-1.52v-32.864c0-.841.414-1.526.926-1.526h10.213c.516 0 .928.685.928 1.526v32.864zm20.023 0c0 .841-.416 1.52-.929 1.52h-10.212c-.516 0-.927-.679-.927-1.52v-39.364c0-.841.413-1.526.927-1.526h10.212c.516 0 .929.685.929 1.526v39.364zm20.022 0c0 .841-.416 1.52-.929 1.52h-10.212c-.515 0-.927-.679-.927-1.52v-45.864c0-.84.414-1.525.927-1.525h10.212c.516 0 .929.685.929 1.525v45.864zm-20.022-45.214l3.546-24.989-33.032 7.471 15.674 3.715c-4.525 8.035-14.277 16.295-30.758 20.97 0 0 24.547-1.624 38.652-16.077l5.918 8.91z" fill="#494949"/><path fill="none" d="M883.202 246.181h-1.266c-1.51 0-2.736 1.271-2.736 2.834v1.232h4.002v-4.066zm-4.002 90.187v1.479c0 1.563 1.228 2.834 2.736 2.834h1.266v-4.313H879.2zm0-72.297h4.002v6.832H879.2zm0 61.969h4.002v6.832H879.2zm0-72.297h4.002v6.832H879.2zm0 20.656h4.002v6.832H879.2zm0 41.313h4.002v6.832H879.2zm0-30.984h4.002v6.832H879.2zm0 20.656h4.002v6.832H879.2zm0-10.328h4.002v6.832H879.2zm141.763-30.985h4.737v6.832h-4.737zm0 30.985h4.737v6.832h-4.737zm0-10.328h4.737v6.832h-4.737zm4.737-34.481v-1.232c0-1.563-1.229-2.834-2.735-2.834h-2.002v4.066h4.737zm-4.737 3.496h4.737v6.832h-4.737zm0 20.656h4.737v6.832h-4.737zm0 66.282h2.002c1.508 0 2.735-1.271 2.735-2.834v-1.479h-4.737v4.313zm0-14.641h4.737v6.832h-4.737zm0-10.328h4.737v6.832h-4.737zm0-10.328h4.737v6.832h-4.737zm-72.297-10.328h6.831v6.832h-6.831zm0 20.656h6.831v6.832h-6.831zm0 20.656h6.831v4.313h-6.831zm0-51.64h6.831v6.832h-6.831zm0-20.657h6.831v6.832h-6.831zm0 61.969h6.831v6.832h-6.831zm0-20.656h6.831v6.832h-6.831zm0-30.985h6.831v6.832h-6.831zm0-28.218h6.831v4.066h-6.831zm0 7.562h6.831v6.832h-6.831zm-41.311 0h6.832v6.832h-6.832zm0 82.625h6.832v4.313h-6.832zm0-10.328h6.832v6.832h-6.832zm0-30.984h6.832v6.832h-6.832zm0 20.656h6.832v6.832h-6.832zm0-10.328h6.832v6.832h-6.832zm0-59.203h6.832v4.066h-6.832zm0 28.218h6.832v6.832h-6.832zm0 10.329h6.832v6.832h-6.832zm0-20.657h6.832v6.832h-6.832zm72.295 72.297h6.832v4.313h-6.832zm0-82.625h6.832v6.832h-6.832zm0 41.313h6.832v6.832h-6.832zm0-48.875h6.832v4.066h-6.832zm0 59.203h6.832v6.832h-6.832zm0 20.656h6.832v6.832h-6.832zm0-61.969h6.832v6.832h-6.832zm0 10.328h6.832v6.832h-6.832zm0 10.329h6.832v6.832h-6.832zm0 30.984h6.832v6.832h-6.832zm-82.623-69.531h6.832v4.066h-6.832zm0 90.187h6.832v4.313h-6.832zm0-10.328h6.832v6.832h-6.832zm0-61.969h6.832v6.832h-6.832zm0-10.328h6.832v6.832h-6.832zm0 61.969h6.832v6.832h-6.832zm0-20.656h6.832v6.832h-6.832zm0 10.328h6.832v6.832h-6.832zm0-20.656h6.832v6.832h-6.832zm0-10.329h6.832v6.832h-6.832zm72.295-10.328h6.832v6.832h-6.832zm0 61.969h6.832v6.832h-6.832zm0-79.859h6.832v4.066h-6.832zm0 7.562h6.832v6.832h-6.832zm0 41.313h6.832v6.832h-6.832zm0 41.312h6.832v4.313h-6.832zm0-61.969h6.832v6.832h-6.832zm0 10.329h6.832v6.832h-6.832zm0 30.984h6.832v6.832h-6.832zm0-10.328h6.832v6.832h-6.832zm-10.329-20.656h6.832v6.832h-6.832zm0-10.329h6.832v6.832h-6.832zm0 41.313h6.832v6.832h-6.832zm0 10.328h6.832v6.832h-6.832zm0-20.656h6.832v6.832h-6.832zm0-59.203h6.832v4.066h-6.832zm0 7.562h6.832v6.832h-6.832zm0 10.328h6.832v6.832h-6.832zm0 72.297h6.832v4.313h-6.832zm0-41.312h6.832v6.832h-6.832zm-72.295 30.984h6.832v6.832h-6.832zm0-79.859h6.832v4.066h-6.832zm0 28.218h6.832v6.832h-6.832zm0 61.969h6.832v4.313h-6.832zm0-82.625h6.832v6.832h-6.832zm0 10.328h6.832v6.832h-6.832zm0 30.985h6.832v6.832h-6.832zm0-10.328h6.832v6.832h-6.832zm0 20.656h6.832v6.832h-6.832zm0 10.328h6.832v6.832h-6.832zm51.64 0h6.832v6.832h-6.832zm0-51.641h6.832v6.832h-6.832zm0 41.313h6.832v6.832h-6.832zm0-30.985h6.832v6.832h-6.832zm0 10.329h6.832v6.832h-6.832zm0-38.547h6.832v4.066h-6.832zm0 48.875h6.832v6.832h-6.832zm0 41.312h6.832v4.313h-6.832zm0-82.625h6.832v6.832h-6.832zm0 72.297h6.832v6.832h-6.832zm72.297-61.969h6.832v6.832h-6.832zm0-17.89h6.832v4.066h-6.832zm0 7.562h6.832v6.832h-6.832zm0 41.313h6.832v6.832h-6.832zm0 41.312h6.832v4.313h-6.832zm0-30.984h6.832v6.832h-6.832zm0-20.656h6.832v6.832h-6.832zm0-10.329h6.832v6.832h-6.832zm0 51.641h6.832v6.832h-6.832zm0-10.328h6.832v6.832h-6.832zm-82.625-69.531h6.832v4.066h-6.832zm0 28.218h6.832v6.832h-6.832zm0-20.656h6.832v6.832h-6.832zm0 30.985h6.832v6.832h-6.832zm0 30.984h6.832v6.832h-6.832zm0 10.328h6.832v6.832h-6.832zm0 10.328h6.832v4.313h-6.832zm0-30.984h6.832v6.832h-6.832zm0-41.313h6.832v6.832h-6.832zm0 30.985h6.832v6.832h-6.832zm61.969-48.875h6.832v4.066h-6.832zm0 59.203h6.832v6.832h-6.832zm0 10.328h6.832v6.832h-6.832zm0 20.656h6.832v4.313h-6.832zm0-72.297h6.832v6.832h-6.832zm0 10.328h6.832v6.832h-6.832zm0 20.657h6.832v6.832h-6.832zm0-10.328h6.832v6.832h-6.832zm0-30.985h6.832v6.832h-6.832zm0 72.297h6.832v6.832h-6.832zm10.328-79.859h6.832v4.066h-6.832zm0 90.187h6.832v4.313h-6.832zm0-72.297h6.832v6.832h-6.832zm0 51.641h6.832v6.832h-6.832zm0-30.984h6.832v6.832h-6.832zm0-30.985h6.832v6.832h-6.832zm0 72.297h6.832v6.832h-6.832zm0-51.641h6.832v6.832h-6.832zm0 20.657h6.832v6.832h-6.832zm0 10.328h6.832v6.832h-6.832zm-82.623 10.328h6.83v6.832h-6.83zm0-41.313h6.83v6.832h-6.83zm0 51.641h6.83v6.832h-6.83zm0-20.656h6.83v6.832h-6.83zm0-51.641h6.83v6.832h-6.83zm0 41.313h6.83v6.832h-6.83zm0-10.328h6.83v6.832h-6.83zm0-38.547h6.83v4.066h-6.83zm0 90.187h6.83v4.313h-6.83zm0-72.297h6.83v6.832h-6.83z"/><path fill="#5AADDF" d="M886.698 245.181h6.832v1h-6.832zm10.329 0h6.832v1h-6.832zM878.2 284.728h1v6.832h-1zm0 20.656h1v6.832h-1zm3.738 35.297c-1.51 0-2.736-1.271-2.736-2.834v-1.479h-1v1.479c0 2.113 1.677 3.834 3.736 3.834h1.266v-1h-1.266zM878.2 326.04h1v6.832h-1zm0-10.328h1v6.832h-1zm0-61.969h1v6.832h-1zm0 10.328h1v6.832h-1zm1-15.056c0-1.563 1.228-2.834 2.736-2.834h1.266v-1h-1.266c-2.061 0-3.736 1.719-3.736 3.834v1.232h1v-1.232zm-1 25.384h1v6.832h-1zm0 20.657h1v6.832h-1zm29.155-49.875h6.832v1h-6.832zm61.967 0h6.832v1h-6.832zm10.328 0h6.832v1h-6.832zm-61.966 0h6.83v1h-6.83zm72.295 0h6.832v1h-6.832zm20.656 0h6.832v1h-6.832zm-72.297 0h6.832v1h-6.832zm20.655 0h6.832v1h-6.832zm-30.983 0h6.832v1h-6.832zm20.656 0h6.831v1h-6.831zm-41.311 95.5h6.832v1h-6.832zm41.311 0h6.831v1h-6.831zm41.313 0h6.832v1h-6.832zm-10.329 0h6.832v1h-6.832zm-20.657 0h6.832v1h-6.832zm10.329 0h6.832v1h-6.832zm56.378-45.625h1v6.832h-1zm0 10.328h1v6.832h-1zm0 20.656h1v6.832h-1zm0 11.807c0 1.563-1.229 2.834-2.735 2.834h-2.002v1h2.002c2.061 0 3.735-1.721 3.735-3.834v-1.479h-1v1.479zm0-22.135h1v6.832h-1zm-2.735-69.531c1.508 0 2.735 1.271 2.735 2.834v1.232h1v-1.232c0-2.115-1.676-3.834-3.735-3.834h-2.002v1h2.002zm2.735 28.218h1v6.832h-1zm0 10.329h1v6.832h-1zm0-20.657h1v6.832h-1zm0-10.328h1v6.832h-1zm-15.065 86.938h6.832v1h-6.832zm-10.328 0h6.832v1h-6.832zm-61.969 0h6.832v1h-6.832zm-20.654 0h6.83v1h-6.83zm10.326 0h6.832v1h-6.832zm72.297-95.5h6.832v1h-6.832zm-113.609 95.5h6.832v1h-6.832zm10.329 0h6.832v1h-6.832z"/><path opacity=".5" fill="#FFF" d="M1026.2 337.847c0 1.843-1.448 3.334-3.235 3.334H881.938c-1.787 0-3.236-1.491-3.236-3.334v-88.832c0-1.842 1.449-3.334 3.236-3.334h141.027c1.787 0 3.235 1.492 3.235 3.334v88.832z"/><path d="M908.894 51.169a11.33 11.33 0 0 0-.328-.875c1.239-1.823 2.224-3.992 2.953-6.508l.82.164a125.605 125.605 0 0 1-1.095 2.953v9.844h-.766v-8.258a19.974 19.974 0 0 1-1.584 2.68zm5.139-.109c.072-.219.183-.565.328-1.039.109-.401.2-.692.273-.875h-2.297v-.656h2.461c.219-.729.419-1.422.602-2.078h-2.352V45.7h2.516a20.68 20.68 0 0 0 .438-1.914l.819.109a48.525 48.525 0 0 1-.492 1.805h4.923v.711h-5.087c-.072.401-.236.966-.491 1.695-.037.183-.073.31-.109.383h6.234v.656h-6.398a32.963 32.963 0 0 1-.602 2.023h6.125v.766l-3.172 3.227c.618.255 1.258.583 1.913.984l-.547.656c-1.203-.766-2.717-1.659-4.539-2.68a21.948 21.948 0 0 1-1.258-.711l.438-.547c1.057.583 2.169 1.222 3.336 1.914l2.953-2.953h-6.017v-.764zm8.977 4.375l-.219-.602a65.458 65.458 0 0 0 4.538-.82v.711c-.183.037-.491.091-.93.164-1.458.182-2.587.364-3.389.547zm1.203-3.555l1.641-.164c.547-.036.984-.073 1.313-.109-.072.146-.108.365-.108.656-.328.037-.784.073-1.367.109-1.167.109-1.951.201-2.352.273l-.273-.656c.291-.182.692-.583 1.203-1.203l.328-.492c.182-.255.51-.711.983-1.367-.729 0-1.567.037-2.516.109l-.219-.711c.364-.328.656-.674.875-1.039.911-1.385 1.604-2.588 2.078-3.609l.819.273c-1.021 1.714-1.969 3.172-2.844 4.375h.93a23.475 23.475 0 0 1 1.259-.055c.146-.219.328-.528.547-.93l.328-.492.711.273c-1.277 1.97-2.39 3.556-3.336 4.759zm3.116-6.289h4.103c-.109-.438-.347-1.021-.711-1.75l.711-.219c.182.365.438.93.766 1.695l-.656.273h4.32v.656h-5.25l.711.328a61.98 61.98 0 0 1-2.68 3.172c.255 0 .656-.018 1.203-.055 1.932-.036 3.263-.091 3.992-.164-.22-.219-.529-.602-.931-1.148a3.146 3.146 0 0 0-.272-.328l.602-.383c.291.365.747.93 1.367 1.695.547.656.911 1.112 1.094 1.367l-.602.492a25.669 25.669 0 0 0-.383-.547 7.916 7.916 0 0 0-.438-.492h-.656a7.265 7.265 0 0 1-.766.055v4.539c-.037.656.255.966.875.93h.328c.729.036 1.111-.237 1.147-.82.036-.146.072-.474.109-.984.036-.182.055-.328.055-.438.256.109.492.183.711.219-.036.438-.092.93-.164 1.477-.108.838-.729 1.239-1.858 1.203h-.438c-1.058.036-1.567-.438-1.53-1.422v-4.703c-.184 0-.476.019-.875.055-.365 0-.64.019-.82.055 0 1.859-.237 3.19-.711 3.992-.438.838-1.351 1.659-2.734 2.461a3.135 3.135 0 0 0-.492-.602c1.386-.729 2.242-1.458 2.57-2.188.438-.692.638-1.914.603-3.664a2.327 2.327 0 0 1-.438.055c-.511 0-.984.055-1.422.164l-.383-.766c.399-.182.674-.383.819-.602a19.566 19.566 0 0 0 2.353-2.953h-3.228l-.001-.655zm9.851-.766h4.102v-1.148h.711v1.148h3.445v-1.148h.766v1.148h4.103v.656h-4.103v.875h-.766v-.875h-3.445v.875h-.711v-.875h-4.102v-.656zm.436 2.078h12.25v2.188h-.766V47.56h-10.719v1.531h-.767l.002-2.188zm1.15 5.961h9.897v3.883h-.711v-.711h-8.422v.711h-.766l.002-3.883zm.765.657v1.914h8.422v-1.914h-8.422zm.219-4.704h7.983v2.734h-7.983v-2.734zm.711.602v1.531h6.508v-1.531h-6.508zm11.436-.93a1.892 1.892 0 0 0-.383-.383l-.164-.164c.802-1.13 1.458-2.552 1.969-4.266l.711.164a14.278 14.278 0 0 1-.711 1.914h2.625v.656h-2.897a19.542 19.542 0 0 1-1.15 2.079zm-.437 2.461h1.913v-2.188h-.93v-.656h3.172v.656h-1.53v2.188h1.858v.656h-1.858v3.5c.51-.364 1.074-.82 1.694-1.367.072.292.127.547.164.766-.328.255-.93.692-1.805 1.313-.256.219-.456.401-.603.547l-.547-.547a1.46 1.46 0 0 0 .384-.984v-3.227h-1.914l.002-.657zm5.03-6.289l.547-.383c.364.365.875.948 1.531 1.75-.438-.51-.365-.419.219.273l-.602.438a37.106 37.106 0 0 0-1.695-2.078zm1.04 12.086h-.766V47.56h3.172v-3.883h.766v3.883h3.172v7.438c.036 1.021-.491 1.531-1.586 1.531a24.17 24.17 0 0 1-1.586.055 4.126 4.126 0 0 0-.164-.766h.656c.364.036.674.055.93.055.729 0 1.075-.31 1.039-.93V53.63h-5.633v3.117zm0-8.531v2.023h5.633v-2.023h-5.633zm0 2.68v2.078h5.633v-2.078h-5.633zm4.867-4.102l-.547-.438c.328-.364.783-.93 1.367-1.695a2.62 2.62 0 0 0 .328-.383l.602.383c-.328.438-.82 1.039-1.477 1.805-.108.146-.2.255-.273.328zm3.507 6.18a1.892 1.892 0 0 1-.108-.273 8.374 8.374 0 0 1-.22-.547c.838-1.422 1.494-3.081 1.97-4.977v-.055h-1.695v-.656h1.695v-2.734h.766v2.734h1.477v.656h-1.477v2.242l.328-.328.547.547c.182.146.528.492 1.039 1.039l-.547.492a74.7 74.7 0 0 0-1.367-1.531v7.164h-.766v-7.93c-.439 1.714-.985 3.1-1.642 4.157zm3.664.218h4.047c.109-.438.164-.893.164-1.367h-3.172v-4.484h7.164v4.484h-3.281c0 .474-.055.93-.164 1.367h4.32v.656h-3.992c.692 1.13 2.097 1.823 4.211 2.078a9.802 9.802 0 0 0-.328.547.427.427 0 0 0-.055.164c-2.225-.438-3.701-1.294-4.43-2.57-.476 1.167-1.934 2.096-4.375 2.789a2.884 2.884 0 0 0-.438-.711c2.406-.547 3.791-1.313 4.156-2.297h-3.828l.001-.656zm.218-8.148h2.353v-1.313h.711v1.313h2.57v-1.313h.711v1.313h2.461v.602h-2.461v1.094h-.711v-1.094h-2.57v1.094h-.711v-1.094h-2.353v-.602zm1.586 2.898v1.313h5.634v-1.313h-5.634zm0 1.914v1.313h5.634v-1.313h-5.634zm16.141-6.179h.766v2.844h4.867v.711h-4.813c.036 1.203.128 2.279.273 3.227.255 1.859.638 3.245 1.148 4.156.438.911.946 1.349 1.53 1.313.4 0 .692-.273.875-.82.183-.692.291-1.276.328-1.75a.57.57 0 0 0 .22.109l.491.164c-.108.693-.236 1.258-.383 1.695-.256.948-.766 1.403-1.531 1.367-.875.036-1.623-.565-2.241-1.805-.548-1.057-.948-2.497-1.203-4.32a93.803 93.803 0 0 1-.273-3.336h-7.547v-.711h7.547a70.292 70.292 0 0 1-.054-2.844zm-7.274 11.922l-.219-.656a53.474 53.474 0 0 0 2.297-.273c.4-.036.692-.073.875-.109v-4.156h-2.68v-.711h6.125v.711h-2.68v4.047a67.491 67.491 0 0 0 3.28-.438v.711c-1.094.146-2.861.365-5.305.656-.8.108-1.365.181-1.693.218zm9.296-11.102l.547-.492c.729.583 1.35 1.112 1.859 1.586l-.547.547a18.618 18.618 0 0 0-1.859-1.641zm-70.666 234.598l-1.688-4h-6.25l-1.75 4h-1l5.313-12.5h1l5.438 12.5h-1.063zm-7.625-4.813h5.563l-2.75-6.625h-.063l-2.75 6.625zm15.634-.187h-4.313v5h-.938v-12.438h5.375c2.541.168 3.938 1.375 4.188 3.625-.084 2.459-1.521 3.731-4.312 3.813zm-.25-6.625h-4.063v5.75h4.063c2.333 0 3.5-1 3.5-3-.125-1.75-1.292-2.666-3.5-2.75zm12.257 6.625h-4.313v5h-.938v-12.438h5.375c2.541.168 3.938 1.375 4.188 3.625-.084 2.459-1.521 3.731-4.312 3.813zm-.25-6.625h-4.063v5.75h4.063c2.333 0 3.5-1 3.5-3-.125-1.75-1.292-2.666-3.5-2.75zm10.953-.813h14.875v.875h-7.688v12.688h-.938v-12.688h-6.25l.001-.875zm13.25 8.313a106.803 106.803 0 0 0-5.75-3.313l.5-.813c.291.168.708.396 1.25.688 2.041 1.043 3.583 1.875 4.625 2.5l-.625.938zm10.632 5.187a4.437 4.437 0 0 0-.625-.625c1.416-1 2.479-1.957 3.188-2.875-.459-1.291-.813-3.229-1.063-5.813v-.5h-9.125v-.75h3.875v-1.75h-3.25v-.688h3.25v-1.625h.813v1.625h3.063v.688h-3.063v1.75h4.375a74.176 74.176 0 0 1-.125-4.125h.875c0 1.709.021 3.084.063 4.125h5.25v.75h-5.188c0 .043.021.125.063.25v.25c.166 2.168.438 3.834.813 5 .75-1.041 1.458-2.375 2.125-4l.75.313c-.792 1.834-1.646 3.375-2.563 4.625.708 1.668 1.416 2.521 2.125 2.563.291 0 .521-.25.688-.75.125-.416.25-1.063.375-1.938.25.125.5.209.75.25a9.91 9.91 0 0 1-.5 2.313c-.209.625-.625.959-1.25 1-1.042.041-1.959-.854-2.75-2.688-.753.793-1.731 1.666-2.939 2.625zm-7.314-1.625l-.125-.813c.208 0 .625-.021 1.25-.063 1.208-.082 2.166-.146 2.875-.188v-1.75h-3.438v-.813c.291-.291.771-.957 1.438-2h-1.938v-.688h2.313c.291-.5.563-1 .813-1.5l.875.25c-.084.125-.209.334-.375.625-.167.25-.292.459-.375.625h4.75v.688h-5.188c-.209.375-.542.875-1 1.5-.209.293-.354.5-.438.625h2.563v-1.438h.813v1.438h3v.688h-3v1.688a44.347 44.347 0 0 1 1.875-.125c.583-.082 1-.125 1.25-.125v.75c-.125 0-.479.021-1.063.063-.875.043-1.563.084-2.063.125v2.25h-.813v-2.188c-.542.043-.729.063-.563.063-1.664.126-2.811.231-3.436.313zm10.689-11.75l.563-.563c.125.125.313.271.563.438.75.625 1.313 1.105 1.688 1.438l-.625.625c-.461-.457-1.189-1.104-2.189-1.938zm7.133 5.688h11.375v4.125h-5.313v1.063h5.938v.625h-5.938v.938h7.188v.625h-15.125v-.625h7.188v-.938h-5.938v-.625h5.938v-1.063h-5.313v-4.125zm-1.75-1.563h14.938v.563h-14.938v-.563zm1.625-4.75h11.563v3.75h-11.563v-3.75zm.811.563v1h10v-1h-10zm0 1.562v1.063h10v-1.063h-10zm.125 4.75v1.188h4.5v-1.188h-4.5zm0 1.75v1.188h4.5v-1.188h-4.5zm9.75-1.75h-4.5v1.188h4.5v-1.188zm-4.5 1.75v1.188h4.5v-1.188h-4.5zm-51.512 23.287h10.781v2.813h-8.156l-.469 4.313c.75-.623 1.812-.969 3.188-1.031 4.063.251 6.219 2.438 6.47 6.563-.126 4.5-2.376 6.813-6.75 6.938-3.876 0-6.188-1.781-6.938-5.344l3.094-.656c.375 2.25 1.595 3.375 3.656 3.375 2.438-.062 3.688-1.438 3.75-4.125-.063-2.498-1.282-3.78-3.656-3.844-2.001 0-3.28.688-3.844 2.063l-2.344-.469 1.218-10.596zm14.45 9.657c.124-6.623 2.374-9.998 6.75-10.125 4.562 0 6.844 3.375 6.844 10.125-.063 6.502-2.313 9.813-6.75 9.938-4.564-.001-6.844-3.312-6.844-9.938zm3.281 0c-.063 5.126 1.125 7.595 3.563 7.406 2.374.127 3.53-2.344 3.469-7.406.063-5.123-1.125-7.594-3.563-7.405-2.25.125-3.408 2.593-3.469 7.405zm17.917-10.219c2.813.127 4.279 1.938 4.405 5.438-.126 3.438-1.655 5.22-4.594 5.344-2.688-.188-4.125-1.969-4.313-5.344.127-3.5 1.627-5.311 4.502-5.438zm-.095 8.531c1.313-.062 2-1.125 2.063-3.188-.063-2.063-.719-3.124-1.969-3.188-1.375 0-2.063 1.095-2.063 3.281.063 1.94.718 2.971 1.969 3.095zm10.125-8.531h2.531l-10.688 20.344h-2.531l10.688-20.344zm1.97 9.75c2.813.127 4.279 1.969 4.405 5.531-.126 3.251-1.655 4.938-4.594 5.063-2.751-.188-4.188-1.875-4.313-5.063.127-3.499 1.627-5.344 4.502-5.531zm-.095 8.625c1.25-.061 1.906-1.155 1.97-3.281-.063-1.999-.688-3.029-1.875-3.094-1.313 0-2.001 1.064-2.063 3.188.062 2.001.717 3.063 1.968 3.187zM914.581 83.89c-1.714-1.677-2.917-4.211-3.608-7.602h-1.203v-.711h9.844v.766c-.766 3.245-2.061 5.761-3.883 7.547 1.422 1.203 3.408 2.115 5.961 2.734l-.109.109c-.183.255-.327.474-.438.656-2.698-.802-4.686-1.786-5.961-2.953-1.203 1.058-3.245 2.096-6.125 3.117a5.153 5.153 0 0 0-.492-.711c2.697-.837 4.703-1.821 6.014-2.952zm-2.788-7.601c.583 3.099 1.713 5.451 3.391 7.055 1.786-1.75 2.989-4.102 3.609-7.055h-7zm11.162 6.343l-.108-.82a339.8 339.8 0 0 0 2.022-.602v-3.227h-1.914v-.711h1.914v-2.625h.711v2.625h1.586v.711h-1.586v3.008a28.645 28.645 0 0 1 1.642-.492v.766c-.547.146-1.094.31-1.642.492v4.211c.036.948-.438 1.422-1.422 1.422h-.983a.494.494 0 0 0-.056-.219 7.804 7.804 0 0 0-.108-.547c.364.036.711.055 1.039.055.583.036.855-.201.819-.711V82.03c-.256.073-.619.183-1.094.328-.365.11-.637.202-.82.274zm5.032-6.234h2.297c.255-.729.438-1.349.547-1.859l.767.109c-.146.62-.328 1.203-.547 1.75h4.266v11.156h-.766V86.46h-5.797v1.094h-.767V76.398zm.766.711v3.883h5.797v-3.883h-5.797zm0 4.594v4.211h5.797v-4.211h-5.797zm20.075 5.468a14.203 14.203 0 0 0-.93-1.148c-2.881.036-5.578.109-8.094.219a.88.88 0 0 0-.273.055c-.475.036-.784.073-.93.109l-.438-.82a4.748 4.748 0 0 0 1.203-1.039c1.239-1.349 2.261-2.698 3.063-4.047h-5.195v-.766h13.07v.766h-7.547l.602.219c-.875 1.313-2.17 2.935-3.883 4.867 2.989-.073 5.614-.164 7.875-.273a243.846 243.846 0 0 1-1.969-2.461c.071.109 0 .019-.22-.273l.656-.438c.767.912 2.005 2.425 3.719 4.539l-.709.491zm-10.28-11.648h10.5v.766h-10.5v-.766zm14.936 5.086a85.928 85.928 0 0 0-2.078-1.695l.492-.547a49.534 49.534 0 0 1 2.133 1.695l-.547.547zm-1.75 6.562a49.381 49.381 0 0 0 1.531-4.922c.072.037.2.091.383.164l.328.164c-.146.474-.365 1.222-.656 2.242-.438 1.276-.711 2.151-.819 2.625l-.767-.273zm2.188-10.062c-.22-.182-.547-.474-.984-.875-.511-.438-.875-.747-1.094-.93l.547-.492a38.456 38.456 0 0 1 2.078 1.75l-.547.547zm2.351 4.539h.766c0 1.75-.183 3.026-.547 3.828-.292.766-.912 1.495-1.858 2.188a2.832 2.832 0 0 0-.547-.602c.91-.583 1.493-1.221 1.75-1.914.29-.692.436-1.859.436-3.5zm7.165-.328a7.373 7.373 0 0 0-.711-.876c-.839.037-1.969.073-3.391.109a46.244 46.244 0 0 1-2.681.109c-.256 0-.602.037-1.039.109h-.108l-.328-.766a5.79 5.79 0 0 0 .875-.547 19.052 19.052 0 0 0 2.352-2.461h-3.444v-.656h4.594a15.399 15.399 0 0 0-.82-1.531l.656-.328c.146.255.346.602.602 1.039.109.255.2.438.273.547l-.492.273h4.43V77h-5.414l.492.219a39.611 39.611 0 0 1-2.789 2.734c2.041 0 3.938-.055 5.688-.164a10.4 10.4 0 0 0-.711-.766 6.473 6.473 0 0 0-.711-.711l.602-.438c.583.583 1.403 1.477 2.461 2.68l.273.273-.659.493zm-4.594.328h.766v5.742h-.766v-5.742zm2.569-.055h.767v4.43c0 .401.219.602.656.602h.327c.4 0 .619-.201.656-.602a7.368 7.368 0 0 0 .164-1.641c.072 0 .2.037.383.109.146.037.255.073.328.109a18.376 18.376 0 0 1-.164 1.586c-.146.766-.547 1.13-1.203 1.094h-.655c-.84 0-1.259-.401-1.259-1.203v-4.484zm5.913-.875h9.953v3.609h-4.647v.93h5.194v.547h-5.194v.82h6.289v.547h-13.234v-.547h6.289v-.82h-5.195v-.547h5.195v-.93h-4.648l-.002-3.609zm-1.53-1.367h13.069v.492h-13.069v-.492zm1.422-4.156h10.117v3.281h-10.117v-3.281zm.711.492v.875h8.75v-.875h-8.75zm0 1.367v.93h8.75v-.93h-8.75zm.108 4.156v1.039h3.938V81.21h-3.938zm0 1.532v1.039h3.938v-1.039h-3.938zm8.532-1.532h-3.938v1.039h3.938V81.21zm-3.937 1.532v1.039h3.938v-1.039h-3.938zm7.389-7.055h4.102v-1.148h.712v1.148h3.444v-1.148h.767v1.148h4.102v.656h-4.102v.875h-.767v-.875h-3.444v.875h-.712v-.875h-4.102v-.656zm.438 2.078h12.25v2.188h-.767v-1.531h-10.719v1.531h-.767v-2.188h.003zm1.148 5.961h9.898v3.883h-.711v-.711h-8.423v.711h-.766l.002-3.883zm.765.656v1.914h8.423v-1.914h-8.423zm.22-4.703h7.983v2.734h-7.983v-2.734zm.711.602v1.531h6.508v-1.531h-6.508zm11.435-.93a1.892 1.892 0 0 0-.383-.383l-.164-.164c.802-1.13 1.458-2.552 1.969-4.266l.711.164a14.278 14.278 0 0 1-.711 1.914h2.625v.656h-2.897a19.542 19.542 0 0 1-1.15 2.079zm-.437 2.461h1.914v-2.188h-.931v-.656h3.173v.656h-1.531v2.188h1.858v.656h-1.858v3.5c.51-.364 1.075-.82 1.694-1.367.072.292.128.547.164.766-.327.255-.93.692-1.805 1.313a10.9 10.9 0 0 0-.602.547l-.548-.547c.256-.292.384-.62.384-.984v-3.227H994.3l.001-.657zm5.03-6.289l.548-.383c.363.365.875.948 1.53 1.75-.438-.51-.364-.419.22.273l-.603.438a36.745 36.745 0 0 0-1.695-2.078zm1.039 12.086h-.766v-9.188h3.172v-3.883h.767v3.883h3.172v7.438c.035 1.021-.492 1.531-1.586 1.531-.548.036-1.076.055-1.586.055a4.208 4.208 0 0 0-.164-.766h.655c.364.036.675.055.931.055.729 0 1.074-.31 1.039-.93v-1.313h-5.634v3.118zm0-8.531v2.023h5.634v-2.023h-5.634zm0 2.679v2.078h5.634v-2.078h-5.634zm4.868-4.101l-.547-.438c.328-.364.783-.93 1.367-1.695a2.62 2.62 0 0 0 .328-.383l.602.383a37.198 37.198 0 0 1-1.477 1.805c-.109.146-.2.255-.273.328zm3.506 6.179a2.015 2.015 0 0 1-.108-.273 8.374 8.374 0 0 1-.22-.547c.839-1.422 1.494-3.081 1.97-4.977v-.055h-1.695v-.656h1.695v-2.734h.766v2.734h1.478v.656h-1.478v2.242l.328-.328.547.547c.183.146.528.492 1.039 1.039l-.547.492a69.205 69.205 0 0 0-1.367-1.531v7.164h-.766v-7.93c-.438 1.715-.985 3.1-1.642 4.157zm3.664.219h4.047c.109-.438.164-.893.164-1.367h-3.172v-4.484h7.164v4.484h-3.281c0 .474-.055.93-.164 1.367h4.32v.656h-3.992c.692 1.13 2.097 1.823 4.211 2.078a9.949 9.949 0 0 0-.327.547.416.416 0 0 0-.056.164c-2.225-.438-3.701-1.294-4.43-2.57-.475 1.167-1.933 2.096-4.375 2.789a2.884 2.884 0 0 0-.438-.711c2.406-.547 3.791-1.313 4.156-2.297h-3.828l.001-.656zm.22-8.148h2.352v-1.313h.711v1.313h2.57v-1.313h.711v1.313h2.461v.602h-2.461v1.094h-.711v-1.094h-2.57v1.094h-.711v-1.094h-2.352v-.602zm1.586 2.898v1.313h5.633v-1.313h-5.633zm0 1.914v1.313h5.633v-1.313h-5.633zm16.14-6.179h.766v2.844h4.867v.711h-4.813c.035 1.203.127 2.279.272 3.227.255 1.859.638 3.245 1.148 4.156.438.911.946 1.349 1.53 1.313.4 0 .692-.273.875-.82.183-.692.291-1.276.328-1.75a.572.572 0 0 0 .219.109l.492.164c-.108.693-.236 1.258-.383 1.695-.256.948-.766 1.403-1.531 1.367-.875.036-1.623-.565-2.242-1.805-.547-1.057-.947-2.497-1.202-4.32a93.803 93.803 0 0 1-.273-3.336h-7.547v-.711h7.547a70.337 70.337 0 0 1-.053-2.844zm-7.275 11.921l-.219-.656a53.474 53.474 0 0 0 2.297-.273c.4-.036.692-.073.875-.109v-4.156h-2.68v-.711h6.125v.711h-2.68v4.047a67.491 67.491 0 0 0 3.28-.438v.711c-1.094.146-2.861.365-5.305.656-.799.109-1.365.182-1.693.218zm9.298-11.101l.547-.492a33.026 33.026 0 0 1 1.858 1.586l-.546.547a19.074 19.074 0 0 0-1.859-1.641z" fill="#494949"/><path fill="#5AADDF" d="M822.482 348.573a3.543 3.543 0 0 1-3.543 3.543h-76.725a3.543 3.543 0 0 1-3.543-3.543v-20.992a3.543 3.543 0 0 1 3.543-3.543h76.725a3.543 3.543 0 0 1 3.543 3.543v20.992zm0-33.09a3.543 3.543 0 0 1-3.543 3.543h-76.725a3.543 3.543 0 0 1-3.543-3.543v-20.992a3.543 3.543 0 0 1 3.543-3.543h76.725a3.543 3.543 0 0 1 3.543 3.543v20.992zm0-33.089a3.543 3.543 0 0 1-3.543 3.543h-76.725a3.543 3.543 0 0 1-3.543-3.543v-20.992a3.543 3.543 0 0 1 3.543-3.543h76.725a3.543 3.543 0 0 1 3.543 3.543v20.992zm0-33.09a3.543 3.543 0 0 1-3.543 3.543h-76.725a3.543 3.543 0 0 1-3.543-3.543v-20.992a3.543 3.543 0 0 1 3.543-3.543h76.725a3.543 3.543 0 0 1 3.543 3.543v20.992zm0-33.092a3.543 3.543 0 0 1-3.543 3.543h-76.725a3.543 3.543 0 0 1-3.543-3.543v-20.99a3.544 3.544 0 0 1 3.543-3.545h76.725a3.544 3.544 0 0 1 3.543 3.545v20.99zm0-33.089a3.543 3.543 0 0 1-3.543 3.543h-76.725a3.543 3.543 0 0 1-3.543-3.543v-20.991a3.544 3.544 0 0 1 3.543-3.544h76.725a3.544 3.544 0 0 1 3.543 3.544v20.991zm0-33.09a3.543 3.543 0 0 1-3.543 3.543h-76.725a3.543 3.543 0 0 1-3.543-3.543v-20.991a3.544 3.544 0 0 1 3.543-3.544h76.725a3.544 3.544 0 0 1 3.543 3.544v20.991zm0-33.091a3.543 3.543 0 0 1-3.543 3.543h-76.725a3.543 3.543 0 0 1-3.543-3.543V95.95a3.543 3.543 0 0 1 3.543-3.543h76.725a3.543 3.543 0 0 1 3.543 3.543v20.992z"/><path opacity=".4" fill="#5AADDF" d="M822.482 83.852a3.543 3.543 0 0 1-3.543 3.543h-76.725a3.543 3.543 0 0 1-3.543-3.543v-20.99a3.544 3.544 0 0 1 3.543-3.545h76.725a3.544 3.544 0 0 1 3.543 3.545v20.99zm0-33.091a3.543 3.543 0 0 1-3.543 3.543h-76.725a3.543 3.543 0 0 1-3.543-3.543V29.77a3.544 3.544 0 0 1 3.543-3.544h76.725a3.544 3.544 0 0 1 3.543 3.544v20.991z"/><path fill="#BFCFD1" d="M667.113 349.071a3.543 3.543 0 0 1-3.543 3.543h-76.725a3.543 3.543 0 0 1-3.543-3.543v-20.992a3.543 3.543 0 0 1 3.543-3.543h76.725a3.543 3.543 0 0 1 3.543 3.543v20.992z"/><path fill="#5AADDF" d="M896.161 84.096a.928.928 0 0 1-.928.927h-20.061a.926.926 0 0 1-.927-.927v-5.488c0-.512.414-.926.927-.926h20.061c.512 0 .928.414.928.926v5.488z"/><path fill="#BFCFD1" d="M896.161 53.235a.928.928 0 0 1-.928.927h-20.061a.926.926 0 0 1-.927-.927v-5.488c0-.512.414-.926.927-.926h20.061c.512 0 .928.414.928.926v5.488zM667.113 315.981a3.543 3.543 0 0 1-3.543 3.543h-76.725a3.543 3.543 0 0 1-3.543-3.543v-20.992a3.543 3.543 0 0 1 3.543-3.543h76.725a3.543 3.543 0 0 1 3.543 3.543v20.992zm0-33.089a3.543 3.543 0 0 1-3.543 3.543h-76.725a3.543 3.543 0 0 1-3.543-3.543V261.9a3.543 3.543 0 0 1 3.543-3.543h76.725a3.543 3.543 0 0 1 3.543 3.543v20.992zm0-33.09a3.543 3.543 0 0 1-3.543 3.543h-76.725a3.543 3.543 0 0 1-3.543-3.543V228.81a3.543 3.543 0 0 1 3.543-3.543h76.725a3.543 3.543 0 0 1 3.543 3.543v20.992z"/><path opacity=".4" fill="#BFCFD1" d="M667.113 216.71a3.543 3.543 0 0 1-3.543 3.543h-76.725a3.543 3.543 0 0 1-3.543-3.543v-20.99a3.544 3.544 0 0 1 3.543-3.545h76.725a3.544 3.544 0 0 1 3.543 3.545v20.99zm0-33.089a3.543 3.543 0 0 1-3.543 3.543h-76.725a3.543 3.543 0 0 1-3.543-3.543v-20.993a3.543 3.543 0 0 1 3.543-3.543h76.725a3.543 3.543 0 0 1 3.543 3.543v20.993zm0-33.091a3.543 3.543 0 0 1-3.543 3.543h-76.725a3.543 3.543 0 0 1-3.543-3.543v-20.992a3.543 3.543 0 0 1 3.543-3.543h76.725a3.543 3.543 0 0 1 3.543 3.543v20.992zm0-33.092a3.543 3.543 0 0 1-3.543 3.543h-76.725a3.543 3.543 0 0 1-3.543-3.543V96.447a3.544 3.544 0 0 1 3.543-3.544h76.725a3.544 3.544 0 0 1 3.543 3.544v20.991zm0-33.089a3.543 3.543 0 0 1-3.543 3.543h-76.725a3.543 3.543 0 0 1-3.543-3.543V63.358a3.544 3.544 0 0 1 3.543-3.544h76.725a3.544 3.544 0 0 1 3.543 3.544v20.991zm0-33.091a3.543 3.543 0 0 1-3.543 3.543h-76.725a3.543 3.543 0 0 1-3.543-3.543V30.266a3.543 3.543 0 0 1 3.543-3.543h76.725a3.543 3.543 0 0 1 3.543 3.543v20.992z"/><path fill="#494949" d="M930.765 296.878l-7.218-7.282-8.222 7.282h6.339c-.037 8.913-2.239 19.579-6.339 27.16 0 0 7.72-7.368 9.759-27.16h5.681z"/><circle fill="#29CCB1" cx="133.75" cy="111.999" r="3.107"/><circle fill="#FEC04F" cx="242.351" cy="113.707" r="3.107"/><circle fill="#FEC04F" cx="250.891" cy="120.38" r="3.107"/><circle fill="#EB7E29" cx="276.281" cy="207.483" r="3.107"/><circle fill="#EB7E29" cx="268.948" cy="228.08" r="3.107"/><circle fill="#EB7E29" cx="273.59" cy="218.001" r="3.107"/><circle fill="#3F5664" cx="95.878" cy="186.339" r="3.107"/><circle fill="#3F5664" cx="98.551" cy="206.655" r="3.107"/><circle fill="#3F5664" cx="96.628" cy="196.257" r="3.107"/><circle fill="#3F5664" cx="102.093" cy="216.435" r="3.107"/><circle fill="#3F5664" cx="106.283" cy="225.807" r="3.107"/><circle fill="#4AA4E2" cx="166.841" cy="275.676" r="3.107"/><circle fill="#4AA4E2" cx="199.917" cy="276.874" r="3.107"/><circle fill="#4AA4E2" cx="177.777" cy="277.625" r="3.107"/><circle fill="#4AA4E2" cx="189.038" cy="278.292" r="3.107"/></svg>