<svg xmlns="http://www.w3.org/2000/svg" width="1165.969" height="154.941" viewBox="0 0 1165.969 154.941"><path fill="#FFF" d="M581.087 31.467v-5.983c0-14.635 11.908-26.543 26.543-26.543h229.924c14.636 0 26.543 11.908 26.543 26.543v5.27l24.109 22.912-24.109 22.912v51.82c0 14.637-11.907 26.543-26.543 26.543H607.63c-14.635 0-26.543-11.906-26.543-26.543V73.859"/><path fill="#D7EBF5" d="M587.087 76.434v51.963c0 11.328 9.217 20.543 20.543 20.543h229.924c11.328 0 20.543-9.215 20.543-20.543V74.001l21.4-20.336-21.4-20.336v-7.846c0-11.326-9.215-20.543-20.543-20.543H607.63c-11.326 0-20.543 9.217-20.543 20.543v3.407"/><path fill="#FFF" d="M591.087 78.152v50.245c0 9.123 7.422 16.543 16.543 16.543h229.924c9.121 0 16.543-7.42 16.543-16.543V72.284l19.595-18.619-19.595-18.619v-9.563c0-9.121-7.422-16.543-16.543-16.543H607.63c-9.121 0-16.543 7.422-16.543 16.543v1.69"/><path fill="#91CFE2" d="M658.457 94.316c-.729 12.939-8.541 19.643-23.426 20.132-13.18 0-21.112-5.856-23.796-17.569l6.594-1.831c1.461 9.762 6.953 14.645 16.471 14.645 11.717 0 17.574-5.367 17.574-16.107-.977-9.272-6.958-14.276-17.938-15.012h-5.489v-4.762h2.557c10.983-.235 16.844-5.122 17.575-14.642-.731-8.292-5.25-12.687-13.547-13.176-8.784.247-14.034 4.884-15.739 13.912l-6.223-2.2c2.678-10.98 9.88-16.592 21.594-16.839 13.421.494 20.377 6.59 20.867 18.303-.244 7.568-5.126 13.059-14.643 16.476 11.223 3.418 17.079 9.644 17.569 18.67z"/><path d="M676.99 41.977h16.5c1.249 0 1.688.75 1.313 2.25-.626 3.127-3.126 6.938-7.5 11.438 2.749 2.875 6.124 4.688 10.125 5.438.499.5.438.875-.188 1.125-3.75-.5-7.376-2.375-10.875-5.625-3.251 2.625-6.563 4.5-9.938 5.625-.75-.125-.876-.5-.375-1.125 3.375-1.125 6.499-2.938 9.375-5.438-2.751-3.75-4.938-7.936-6.563-12.563h-1.875c-.499-.375-.499-.75.001-1.125zm9.375 12.75c3.624-3.375 6.062-6.938 7.313-10.688.124-.623-.126-.938-.75-.938h-12.75c1.374 4.126 3.437 8.003 6.187 11.626zm18.375-13.875v4.125h3c.499.375.499.75 0 1.125h-3v6c.874-.5 1.624-.998 2.25-1.5.75 0 .938.375.563 1.125a21.011 21.011 0 0 1-2.813 1.688v7.313c.124 1.5-1.376 1.813-4.5.938-.375-.75-.188-1.125.563-1.125 1.875.75 2.813.688 2.813-.188v-6.375a24.091 24.091 0 0 1-3.188 1.313c-.75-.125-.938-.5-.563-1.125a23.537 23.537 0 0 0 3.75-1.5v-6.563h-3.375c-.626-.375-.626-.75 0-1.125h3.375v-4.125c.375-.624.75-.624 1.125-.001zm10.875.375a16.658 16.658 0 0 1-1.313 3h3.75c1.624 0 2.374.877 2.25 2.625v13.125c.124 1.375-.563 2-2.063 1.875h-7.313c-1.626.125-2.438-.625-2.438-2.25v-12.75c0-1.748.75-2.625 2.25-2.625h2.25a24.025 24.025 0 0 0 1.5-3.188c.502-.623.877-.562 1.127.188zm2.063 4.125h-6.563c-1.001 0-1.5.625-1.5 1.875v4.688h9.563v-4.688c.124-1.25-.375-1.875-1.5-1.875zm1.5 7.687h-9.563v6.188c0 1.125.499 1.625 1.5 1.5h6.75c.999.125 1.437-.313 1.313-1.313v-6.375zm4.5-3.75h21.563c.624.375.624.75 0 1.125h-11.813c-1.751 3.877-3.626 7-5.625 9.375l14.438-1.125c-1.5-3-2.501-4.748-3-5.25 0-.75.312-.998.938-.75 2.25 3.375 3.75 6.502 4.5 9.375-.251.75-.626.813-1.125.188-.251-1-.563-1.813-.938-2.438l-16.125 1.313c-.501-.125-.563-.5-.188-1.125 2.124-2.498 4.125-5.687 6-9.563h-8.625c-.626-.248-.626-.623 0-1.125zm1.875-7.5h17.438c.75.375.75.75 0 1.125h-17.438c-.626-.375-.626-.75 0-1.125zm26.062 11.813c.624-.375.938-.188.938.563-.75 2.002-2.313 4.5-4.688 7.5-.626.375-.938.125-.938-.75 2.5-3.249 4.063-5.686 4.688-7.313zm-3.75-6.375c1.875 1.125 3.437 2.188 4.688 3.188.124.75-.126 1.064-.75.938-1.875-1.373-3.438-2.438-4.688-3.188-.375-.751-.125-1.063.75-.938zm.563-6.375c1.624 1 3.063 2.002 4.313 3 .124.75-.126 1.063-.75.938a34.617 34.617 0 0 0-4.125-2.813c-.376-.75-.188-1.125.562-1.125zm7.5 12c.375-.623.75-.623 1.125 0 .249 4.75-1.313 8-4.688 9.75-.75 0-.938-.313-.563-.938 3.001-1.625 4.375-4.56 4.126-8.812zm4.5-12.188c.499 1.125.874 2.063 1.125 2.813h7.5c.624.375.624.75 0 1.125h-8.813c-1.5 2.5-2.751 4.252-3.75 5.25-.251.502-.063.688.563.563 2.374 0 5.313-.188 8.813-.563-.626-.875-1.5-2.123-2.625-3.75-.126-.75.188-.998.938-.75 1.875 2.377 3.375 4.688 4.5 6.938-.126.625-.501.75-1.125.375a20.425 20.425 0 0 0-1.125-1.688c-4.626.25-7.813.438-9.563.563-1.751.127-2.438-.375-2.063-1.5 1.5-1.5 2.874-3.313 4.125-5.438h-5.438c-.501-.375-.501-.75 0-1.125h6.75c-.251-.875-.563-1.625-.938-2.25.001-.875.376-1.063 1.126-.563zm1.125 11.625v9.938c-.375.625-.75.625-1.125 0v-9.938c.375-.5.75-.5 1.125 0zm4.312.375v7.688c0 .875.312 1.25.938 1.125h.375c.75.25 1.063-1.25.938-4.5.375-.5.75-.5 1.125 0 .124 3.875-.563 5.75-2.063 5.625h-.75c-1.125.125-1.688-.438-1.688-1.688v-8.25c.375-.5.75-.5 1.125 0zm6-4.687h21c.624.375.624.75 0 1.125h-21c-.5-.248-.5-.623 0-1.125zm4.313 2.25h12.75c1.5 0 2.188.75 2.063 2.25v2.25c.124 1.375-.75 2.002-2.625 1.875h-4.875v1.5h7.5c.499.375.499.75 0 1.125h-7.5v1.5h9.375c.624.375.624.75 0 1.125h-19.875c-.501-.375-.501-.75 0-1.125h9.375v-1.5h-8.25c-.501-.375-.501-.75 0-1.125h8.25v-1.5h-6.188c-1.376.127-2.063-.5-2.063-1.875v-2.438c0-1.373.687-2.062 2.063-2.062zm-.375-9.375h12.75c1.5 0 2.188.75 2.063 2.25v1.688c.124 1.5-.626 2.189-2.25 2.063h-12.563c-1.376.127-2.063-.623-2.063-2.25v-1.5c0-1.501.687-2.251 2.063-2.251zm13.125 1.125H775.99c-.75 0-1.125.375-1.125 1.125h14.625c.125-.75-.063-1.125-.562-1.125zm.562 2.25h-14.625c0 1.125.249 1.627.75 1.5h12.563c.999.25 1.437-.248 1.312-1.5zm-7.125 7.125h-6c-.75 0-1.125.502-1.125 1.5h7.125v-1.5zm0 2.625h-7.125c0 1.125.437 1.627 1.313 1.5h5.813l-.001-1.5zm6.375-2.625h-5.25v1.5h6.375c.125-.998-.25-1.5-1.125-1.5zm1.125 2.625h-6.375v1.5h5.063c.999.127 1.437-.375 1.312-1.5z" fill="#494949"/><path d="M680.951 94.309c-1.714-1.677-2.917-4.211-3.609-7.603h-1.202v-.711h9.844v.767c-.767 3.245-2.061 5.762-3.883 7.547 1.422 1.203 3.408 2.114 5.961 2.733l-.109.109c-.183.256-.328.475-.438.656-2.698-.804-4.686-1.785-5.962-2.953-1.202 1.059-3.244 2.096-6.125 3.117a5.014 5.014 0 0 0-.491-.712c2.697-.835 4.701-1.82 6.014-2.95zm-2.789-7.602c.583 3.101 1.714 5.451 3.391 7.056 1.786-1.75 2.989-4.103 3.609-7.056h-7zm10.883 6.344l-.108-.819c.619-.183 1.294-.383 2.022-.603v-3.227h-1.914v-.711h1.914v-2.625h.711v2.625h1.586v.711h-1.586v3.008a28.407 28.407 0 0 1 1.642-.492v.767c-.547.146-1.095.311-1.642.491v4.212c.036.946-.438 1.422-1.422 1.422h-.983a.505.505 0 0 0-.056-.22 8.044 8.044 0 0 0-.108-.547c.363.037.711.056 1.039.056.582.036.855-.201.819-.711V92.45c-.255.074-.62.184-1.094.328a11 11 0 0 0-.82.273zm5.031-6.235h2.297c.255-.729.438-1.349.547-1.859l.767.109a12.225 12.225 0 0 1-.547 1.75h4.266v11.156h-.766v-1.095h-5.798v1.095h-.766V86.816zm.766.711v3.883h5.798v-3.883h-5.798zm0 4.594v4.211h5.798v-4.211h-5.798zm19.796 5.469a14.502 14.502 0 0 0-.93-1.147c-2.88.037-5.578.108-8.094.219a.91.91 0 0 0-.273.055c-.474.037-.783.072-.93.109l-.438-.82a4.704 4.704 0 0 0 1.202-1.039c1.239-1.348 2.262-2.696 3.063-4.047h-5.195v-.766h13.07v.766h-7.547l.602.22c-.875 1.313-2.169 2.936-3.883 4.866 2.989-.071 5.614-.164 7.875-.272-.474-.582-1.13-1.402-1.969-2.461.073.108 0 .02-.219-.273l.655-.438c.767.912 2.005 2.426 3.72 4.539l-.709.489zm-10.28-11.649h10.5v.766h-10.5v-.766zm14.655 5.086a88.349 88.349 0 0 0-2.077-1.695l.491-.547c.729.547 1.44 1.113 2.134 1.695l-.548.547zm-1.75 6.563a48.7 48.7 0 0 0 1.531-4.922c.073.037.2.092.383.164l.328.164c-.146.476-.363 1.223-.655 2.242-.438 1.275-.712 2.15-.82 2.625l-.767-.273zm2.188-10.063a28.665 28.665 0 0 1-.984-.875c-.511-.438-.875-.746-1.094-.93l.547-.492a38.53 38.53 0 0 1 2.078 1.75l-.547.547zm2.352 4.539h.767c0 1.75-.184 3.026-.547 3.828-.292.766-.911 1.494-1.859 2.188a2.808 2.808 0 0 0-.547-.602c.911-.584 1.495-1.222 1.75-1.914.29-.691.436-1.859.436-3.5zm7.164-.328a7.611 7.611 0 0 0-.327-.438 9.903 9.903 0 0 0-.384-.438c-.839.037-1.969.074-3.391.109-1.167.073-2.06.108-2.68.108-.255 0-.603.037-1.039.109h-.109l-.328-.767c.292-.145.583-.327.875-.547a18.93 18.93 0 0 0 2.353-2.461h-3.445v-.656h4.594a14.68 14.68 0 0 0-.82-1.53l.656-.328c.146.256.348.602.603 1.039.108.256.2.438.272.547l-.492.272h4.431v.656h-5.414l.492.219a39.607 39.607 0 0 1-2.789 2.734 91.85 91.85 0 0 0 5.688-.164 10.4 10.4 0 0 0-.711-.766 6.475 6.475 0 0 0-.711-.711l.603-.438c.582.584 1.402 1.478 2.461 2.68l.272.273-.66.498zm-4.594.328h.767v5.742h-.767v-5.742zm2.571-.054h.766v4.43c0 .399.219.602.656.602h.328c.4 0 .62-.201.656-.602a7.434 7.434 0 0 0 .163-1.642c.073 0 .2.037.384.109.146.037.255.074.328.109a17.948 17.948 0 0 1-.164 1.586c-.146.766-.548 1.131-1.203 1.094h-.656c-.839 0-1.258-.4-1.258-1.203v-4.483zm5.632-.875h9.953v3.608h-4.648v.93h5.195v.548h-5.195v.819h6.289v.547h-13.234v-.547h6.289v-.819h-5.195v-.548h5.195v-.93h-4.648v-3.608zm-1.531-1.367h13.07v.492h-13.07v-.492zm1.422-4.157h10.117v3.281h-10.117v-3.281zm.711.492v.875h8.75v-.875h-8.75zm0 1.368v.93h8.75v-.93h-8.75zm.109 4.156v1.039h3.938v-1.039h-3.938zm0 1.531v1.039h3.938V93.16h-3.938zm8.532-1.531h-3.938v1.039h3.938v-1.039zm-3.938 1.531v1.039h3.938V93.16h-3.938zm7.109-.164l-.109-.82c.255-.034.675-.127 1.259-.272l.655-.164v-3.391h-1.75v-.656h1.75v-2.734h.711v2.734h1.422v.656h-1.422v3.172c.22-.035.547-.127.984-.273a3.36 3.36 0 0 0 .492-.108c0 .108.019.237.055.383v.328a3.582 3.582 0 0 1-.438.108c-.146.037-.512.129-1.095.273v4.211c.036.983-.419 1.459-1.367 1.422-.219.037-.602.055-1.147.055a.911.911 0 0 0-.055-.272c-.036-.22-.073-.4-.109-.547.438.036.839.055 1.203.055.547.037.802-.201.766-.711v-3.992c-.583.143-1.184.324-1.805.543zm3.773 5.031a.614.614 0 0 1-.108-.219l-.328-.492c1.969-.365 3.5-.803 4.594-1.313a55.581 55.581 0 0 0-1.586-.655c-.583-.255-1.039-.455-1.367-.603a1.12 1.12 0 0 1 .22-.272c.255-.328.583-.767.983-1.313h-2.133v-.656h2.57c.328-.51.62-1.002.875-1.477l.766.272c-.073.109-.2.312-.383.603a5.733 5.733 0 0 1-.383.602h5.578v.656h-1.806c-.583 1.168-1.203 2.078-1.858 2.734.146.073.363.164.655.272.729.219 1.715.584 2.953 1.094l-.492.656a39.313 39.313 0 0 1-1.094-.492c-1.203-.547-2.097-.911-2.68-1.094-1.092.731-2.751 1.297-4.976 1.697zm.329-8.148h5.195a24.771 24.771 0 0 0 1.531-2.297l.656.383a7.165 7.165 0 0 1-.328.438 60.254 60.254 0 0 1-1.095 1.477h3.063v.656h-9.023v-.657zm3.828-4.649l.656-.273c.328.547.602 1.039.82 1.478l-.603.272h3.883v.656h-8.147v-.656h4.156a11.289 11.289 0 0 0-.765-1.477zm-2.133 2.735l.603-.383c.146.146.383.438.711.875.327.438.547.748.655.931l-.655.383c-.256-.402-.694-1.003-1.314-1.806zm.219 6.562c.875.328 1.731.676 2.57 1.039.729-.582 1.349-1.385 1.859-2.406h-3.392c-.108.146-.255.348-.438.603-.252.364-.453.62-.599.764zm10.063-1.914v-.711h8.367v.766c-.839 1.351-1.878 2.406-3.117 3.172 1.458.584 3.372 1.002 5.742 1.259-.146.291-.273.563-.384.819-2.625-.399-4.667-.946-6.125-1.641-1.494.729-3.519 1.33-6.069 1.805a5.319 5.319 0 0 0-.438-.711c2.517-.438 4.431-.965 5.742-1.586-1.058-.691-2.005-1.75-2.844-3.172h-.874zm-1.641-3.117h8.259a42.993 42.993 0 0 0 1.75-2.733l.766.327a44.1 44.1 0 0 1-1.695 2.406h3.172v2.517h-.766v-1.806H760.14v1.806h-.711l-.001-2.517zm11.594-3.391a435.55 435.55 0 0 1-10.938.383c0-.072-.019-.199-.055-.383a1.72 1.72 0 0 0-.109-.328c4.303-.035 7.948-.182 10.938-.438l.164.766zm-10.227 1.258l.603-.328c.438.547.839 1.148 1.203 1.805l-.656.328c-.256-.473-.639-1.074-1.15-1.805zm7.82 5.25h-5.797c.802 1.203 1.714 2.133 2.733 2.789 1.278-.765 2.299-1.695 3.064-2.789zm-3.937-5.523l.712-.272c.108.219.255.547.438.983l.492.984-.711.328a29.049 29.049 0 0 0-.328-.766c-.075-.218-.275-.636-.603-1.257zm11.867 3.992h.767v1.75h3.116v.656h-3.116v2.844a50.196 50.196 0 0 0 3.444-.438v.602c-.911.109-2.333.291-4.266.547-1.458.183-2.57.328-3.336.438l-.164-.767c.692-.071 1.878-.164 3.555-.272v-2.953h-3.227v-.656h3.227v-1.751zm3.336.055a5.11 5.11 0 0 0-.491-.875c-.692.036-1.642.092-2.845.163-.62.037-1.075.056-1.367.056-.072 0-.183.02-.327.055-.512.037-.856.092-1.039.164l-.438-.766c.328-.22.565-.438.711-.656.911-1.129 1.531-2.06 1.859-2.789h-2.789v-.711h7.602v.711h-3.883a54.017 54.017 0 0 1-2.297 3.336 57.302 57.302 0 0 1 2.242-.109c1.021-.071 1.75-.108 2.188-.108l-.655-.984a7.188 7.188 0 0 0-.438-.711l.603-.272a59.177 59.177 0 0 1 2.077 3.116l-.713.38zm1.914-4.703h.767v8.422h-.767v-8.422zm2.953-1.368h.711v11.211c.036.947-.456 1.438-1.477 1.477h-.711c-.583.037-.948.056-1.095.056a1.66 1.66 0 0 0-.055-.384c0-.219-.019-.364-.055-.438.219.037.82.055 1.805.055.583 0 .875-.272.875-.819l.002-11.158zm4.539 11.266a32.543 32.543 0 0 1 1.586-1.094c0 .184.036.457.109.82-.767.364-1.35.711-1.75 1.039-.22.108-.401.256-.547.438l-.438-.547a1.05 1.05 0 0 0 .328-.766V90.37h-1.641v-.656h2.352l.001 6.618zm.383-8.477a19.947 19.947 0 0 0-1.914-1.97l.547-.438c.911.84 1.567 1.477 1.97 1.914l-.603.494zm1.586.055h3.72v-1.147h-3.992v-.603h3.992v-1.203h.711v1.203h4.266v.603h-4.266v1.147h3.828v.603h-3.828v1.202h4.483v.603h-9.569v-.603h4.375v-1.202h-3.72v-.603zm1.094 10.117h-.767V91.41h7.547v5.031c.036.983-.492 1.459-1.586 1.422h-.819c-.475.037-.803.055-.984.055a2.986 2.986 0 0 0-.219-.766c.438.037 1.058.055 1.858.055.729.037 1.075-.219 1.039-.766v-.82h-6.069v2.406zm0-6.015v1.202h6.069v-1.202h-6.069zm0 1.804v1.203h6.069v-1.203h-6.069zm9.078 2.352l-.383-.766c2.225-1.057 3.992-1.969 5.306-2.734 0 .074.019.164.055.273.036.256.073.438.109.547a118.32 118.32 0 0 0-5.087 2.68zm5.797-11.211h.766v2.844h5.961v.712h-5.961v.383a15.285 15.285 0 0 0 1.641 3.28c.948-.69 1.95-1.565 3.009-2.625l.602.492c-.328.293-.948.82-1.859 1.586-.62.547-1.058.931-1.313 1.148.948 1.203 2.297 2.262 4.047 3.172-.073.037-.2.184-.383.438a.603.603 0 0 0-.164.108c-2.698-1.348-4.559-3.315-5.578-5.906v5.414c.073 1.166-.547 1.75-1.859 1.75-.583.037-1.074.056-1.477.056 0-.22-.055-.492-.164-.82.292.037.784.055 1.477.055.911.072 1.331-.346 1.259-1.258v-7.272h-6.07v-.712h6.07v-2.845h-.004zm-2.625 7.328a48.411 48.411 0 0 0-2.134-2.352l.603-.438a44.148 44.148 0 0 1 2.188 2.353l-.657.437zm4.812-6.234l.492-.491c.948.655 1.604 1.147 1.969 1.477l-.547.547a29.142 29.142 0 0 0-1.914-1.533zm7.93 4.101c0 1.896-.108 3.354-.327 4.375-.22 1.021-.692 2.149-1.423 3.391a1.404 1.404 0 0 0-.219-.164 3.437 3.437 0 0 1-.438-.328c.655-.983 1.094-1.985 1.313-3.008.219-.983.328-2.405.328-4.266V86.16a97.77 97.77 0 0 0 10.391-.766l.328.766c-3.464.365-6.78.621-9.953.766v2.134h10.72v.711h-10.72v.381zm1.531 2.078h7.93v5.688h-.766v-.875h-6.397v.875h-.767V92.23zm.765.711v3.5h6.398v-3.5h-6.398zm13.235 1.368v1.203c.036 1.239-.401 2.149-1.313 2.733l-.384-.328c.803-.584 1.186-1.313 1.148-2.188h-.766v-1.422l1.315.002zm-156.242 20.355h-.711v-10.883h4.047c.109-.365.255-.93.438-1.695.036-.182.073-.311.109-.383l.766.164c0 .037-.02.109-.055.219-.22.729-.384 1.295-.492 1.695h6.453v9.297c.035.984-.492 1.494-1.586 1.531h-1.75a3.531 3.531 0 0 1-.109-.547.917.917 0 0 1-.055-.273c.292.035.839.055 1.641.055.766.035 1.13-.237 1.094-.819v-8.531h-9.789l-.001 10.17zm2.242-7.875h5.305v4.813h-5.305v-4.813zm.711.711v3.392h3.883V107.5h-3.883zm16.679 7.164h-.766v-4.266h-4.32c-.072 1.531-.602 3.024-1.586 4.483a2.245 2.245 0 0 0-.711-.491c.692-.984 1.13-1.914 1.313-2.789.219-.875.328-2.261.328-4.156v-4.867h10.828v10.5c.035 1.057-.528 1.586-1.695 1.586-.511.035-1.058.055-1.642.055 0-.256-.055-.528-.163-.819.363.035.91.055 1.641.055.766.035 1.13-.272 1.094-.93V110.4h-4.319v4.265h-.002zm-4.976-7.219c0 .328-.019.766-.055 1.313v.931h4.266v-2.845h-4.211v.601zm0-4.156v2.844h4.211v-2.844h-4.211zm9.297 0h-4.319v2.844h4.319v-2.844zm-4.321 3.555v2.845h4.32v-2.845h-4.32zm12.634-4.813l.655-.328c.401.584.803 1.187 1.203 1.805l-.655.273h4.977v5.797h-.766v-.711h-8.97c-.035 2.443-.638 4.43-1.805 5.961-.109-.109-.328-.272-.656-.492.692-.983 1.148-1.914 1.367-2.789s.328-2.188.328-3.938v-3.828h5.359c-.109-.256-.348-.674-.711-1.258l-.326-.492zm-3.555 2.461v3.664h8.97v-3.664h-8.97zm11.703-1.64h13.017v.766h-6.728v11.103h-.819v-11.103h-5.47v-.766zm11.593 7.273a93.36 93.36 0 0 0-5.03-2.897l.438-.711c.255.146.62.346 1.095.602 1.785.912 3.136 1.641 4.047 2.188l-.55.818zm3.72-5.25h3.28c.256-.983.456-2.022.603-3.117l.82.109c-.073.291-.164.748-.273 1.367l-.328 1.641h7.603v.711h-7.82a32.963 32.963 0 0 1-.602 2.023h6.836v.656c-.656 1.641-1.642 2.989-2.953 4.047.911.619 2.405 1.166 4.483 1.641a4.665 4.665 0 0 0-.383.656c-.036.035-.055.072-.055.108-1.969-.547-3.536-1.186-4.703-1.913-1.021.581-2.716 1.274-5.086 2.077-.036-.146-.146-.327-.328-.547a.595.595 0 0 0-.109-.219c2.333-.584 3.975-1.186 4.923-1.805-1.276-1.058-2.188-2.406-2.734-4.047h-.164a17.695 17.695 0 0 1-3.938 5.961 1.815 1.815 0 0 0-.383-.384l-.219-.219c2.297-2.149 3.847-4.83 4.648-8.039h-3.884v-.875c.401-.838.729-1.658.984-2.461l.766.219a3.963 3.963 0 0 1-.219.603c-.328.84-.583 1.442-.765 1.807zm9.351 3.391h-5.469a7.971 7.971 0 0 0 2.68 3.608c1.277-.983 2.206-2.186 2.789-3.608zm-2.187-5.743l.438-.547a53.43 53.43 0 0 1 2.353 1.586l-.492.602c-1.023-.766-1.789-1.312-2.299-1.641zm7.491 5.305a85.895 85.895 0 0 0-2.077-1.695l.491-.547a48.8 48.8 0 0 1 2.134 1.695l-.548.547zm-1.75 6.563a49.046 49.046 0 0 0 1.531-4.923c.073.037.2.093.383.164l.328.164a141.74 141.74 0 0 0-.655 2.242c-.438 1.275-.712 2.15-.82 2.625l-.767-.272zm2.188-10.063a31.047 31.047 0 0 1-.984-.875c-.511-.438-.875-.748-1.094-.93l.547-.492c.656.51 1.35 1.094 2.078 1.75l-.547.547zm2.352 4.539h.767c0 1.75-.184 3.025-.547 3.828-.292.766-.911 1.494-1.859 2.188a2.808 2.808 0 0 0-.547-.602c.911-.584 1.495-1.221 1.75-1.914.29-.693.436-1.859.436-3.5zm7.164-.328a7.275 7.275 0 0 0-.711-.876c-.839.037-1.969.072-3.391.109-1.167.071-2.06.108-2.68.108-.255 0-.603.037-1.039.109h-.109l-.328-.766c.292-.146.583-.328.875-.548a19.19 19.19 0 0 0 2.353-2.461h-3.445v-.655h4.594a14.699 14.699 0 0 0-.82-1.531l.656-.328c.146.256.348.603.603 1.039.108.256.2.438.272.547l-.492.273h4.431v.655h-5.414l.492.22a40.265 40.265 0 0 1-2.789 2.733 91.85 91.85 0 0 0 5.688-.164 10.4 10.4 0 0 0-.711-.766 6.475 6.475 0 0 0-.711-.711l.603-.438c.582.584 1.402 1.478 2.461 2.681.108.108.199.201.272.272l-.66.498zm-4.594.328h.767v5.742h-.767v-5.742zm2.571-.054h.766v4.43c0 .4.219.603.656.603h.328c.4 0 .62-.201.656-.603a7.438 7.438 0 0 0 .163-1.641c.073 0 .2.037.384.108.146.037.255.072.328.109a17.988 17.988 0 0 1-.164 1.586c-.146.766-.548 1.129-1.203 1.094h-.656c-.839 0-1.258-.401-1.258-1.203v-4.483zm5.632-.875h9.953v3.608h-4.648v.931h5.195v.547h-5.195v.819h6.289v.548h-13.234v-.548h6.289v-.819h-5.195v-.547h5.195v-.931h-4.648v-3.608zm-1.531-1.368h13.07v.492h-13.07v-.492zm1.422-4.156h10.117v3.281h-10.117v-3.281zm.711.492v.875h8.75v-.875h-8.75zm0 1.367v.93h8.75v-.93h-8.75zm.109 4.157v1.038h3.938v-1.038h-3.938zm0 1.531V111h3.938v-1.039h-3.938zm8.532-1.531h-3.938v1.038h3.938v-1.038zm-3.938 1.531V111h3.938v-1.039h-3.938zm10.992 1.148v1.203c.036 1.237-.401 2.149-1.313 2.733l-.384-.328c.803-.584 1.186-1.313 1.148-2.188h-.766v-1.422l1.315.002zm13.071-8.64l.766.164a.58.58 0 0 0-.108.22c-.22.619-.492 1.221-.82 1.805h3.609v-2.953h.766v2.953h5.305v.766h-5.305v3.445h4.867v.711h-4.867v3.773h6.016v.711h-13.18v-.711h6.398v-3.773h-4.923v-.711h4.923v-3.445h-3.992a22.746 22.746 0 0 1-1.859 2.734 1.89 1.89 0 0 0-.383-.383l-.219-.219c1.237-1.351 2.24-3.046 3.006-5.087zm18.539-.711h.711c0 .328.019.783.055 1.367 0 .619.02 1.076.055 1.367h4.759v.711h-4.703c.146 2.443.4 4.303.766 5.578.802-1.057 1.567-2.424 2.297-4.102l.711.327c-.911 2.007-1.822 3.537-2.733 4.595.547 1.604 1.167 2.405 1.858 2.405.401 0 .692-.272.875-.819.184-.693.292-1.275.328-1.75a.589.589 0 0 0 .219.108c.11.037.273.093.492.164-.108.693-.236 1.258-.383 1.695-.292.91-.802 1.348-1.531 1.313-.947.035-1.75-.784-2.405-2.461-.583.656-1.458 1.423-2.625 2.298a9.677 9.677 0 0 1-.548-.603 12.906 12.906 0 0 0 2.898-2.516c-.511-1.386-.839-3.463-.984-6.234h-5.469v2.297h3.883c0 1.058-.055 2.314-.164 3.773 0 1.313-.602 1.951-1.805 1.914-.255.037-.656.055-1.203.055a7.918 7.918 0 0 0-.164-.82c.438.037.856.056 1.258.056.803.037 1.203-.347 1.203-1.148 0-.146.02-.346.056-.602.036-1.021.055-1.859.055-2.517h-3.117c-.036 1.713-.164 2.99-.383 3.828-.183.803-.603 1.73-1.258 2.789a3.343 3.343 0 0 0-.273-.219c-.146-.146-.255-.238-.328-.273.656-.983 1.059-1.896 1.203-2.733.184-.767.273-2.15.273-4.156v-2.953h6.18v-1.258a25.377 25.377 0 0 1-.059-1.476zm1.914.875l.438-.491a43.188 43.188 0 0 1 2.078 1.366l-.492.548a2.125 2.125 0 0 0-.383-.273 31.161 31.161 0 0 0-1.641-1.15zm9.843 11.484c-.219-.293-.62-.803-1.203-1.531a47.159 47.159 0 0 0-1.094-1.367c-.255 1.24-1.059 2.425-2.406 3.556l-.547-.547c1.13-.875 1.841-1.75 2.133-2.625.364-.875.547-2.261.547-4.156v-2.953h.656v2.844c0 1.24-.073 2.297-.219 3.172a521.09 521.09 0 0 1 2.789 3.117l-.656.49zm-4.593-11.539h4.594v8.148h-.656v-7.492h-3.227v7.547h-.711v-8.203zm6.508-.656h.711v5.688h5.195v.656h-3.445c.547 2.368 1.75 4.118 3.609 5.25-.22.219-.419.438-.603.655-1.969-1.494-3.172-3.463-3.609-5.905h-1.147v5.305c.292-.184.766-.455 1.422-.82.219-.108.383-.201.492-.272.036.071.073.201.108.383.036.146.056.272.056.383-.692.291-1.35.656-1.969 1.094a2.931 2.931 0 0 0-.548.384.574.574 0 0 0-.164.108l-.491-.602c.255-.293.383-.64.383-1.039v-4.922h-1.258v-.656h1.258v-5.69zm1.695 4.594c-.073-.146-.237-.347-.492-.603 1.239-.875 2.441-1.951 3.608-3.227l.547.438c-.947 1.058-2.168 2.189-3.663 3.392zm5.14 4.867h6.18v-1.694h-4.813v-5.853h6.617c.072-.108.199-.272.383-.492.255-.327.655-.875 1.203-1.641l.655.383c-.474.656-.93 1.24-1.366 1.75h2.897v5.853h-4.813v1.694h6.18v.711h-6.18v2.845h-.767v-2.845h-6.18v-.711h.004zm2.079-6.836v1.859h4.102v-1.859h-4.102zm0 2.516v1.914h4.102v-1.914h-4.102zm.765-4.922l.603-.438c.108.146.328.383.655.711.512.51.82.838.931.984l-.656.438c-.512-.693-1.022-1.258-1.533-1.695zm8.203 2.406h-4.102v1.859h4.102v-1.859zm-4.101 2.516v1.914h4.102v-1.914h-4.102z" fill="#979797"/><path fill="#FFF" d="M882.961 74.387v54.01c0 14.637 11.905 26.543 26.543 26.543h229.922c14.637 0 26.543-11.906 26.543-26.543V25.483c0-14.635-11.906-26.543-26.543-26.543H909.504c-14.638 0-26.543 11.908-26.543 26.543v6.51"/><path fill="#D7EBF5" d="M888.961 29.42v-3.936c0-11.326 9.215-20.543 20.543-20.543h229.922c11.328 0 20.543 9.217 20.543 20.543v102.915c0 11.328-9.215 20.543-20.543 20.543H909.504c-11.328 0-20.543-9.215-20.543-20.543V76.962"/><path fill="#FFF" d="M892.961 27.703v-2.219c0-9.121 7.42-16.543 16.543-16.543h229.922c9.123 0 16.543 7.422 16.543 16.543v102.914c0 9.123-7.42 16.543-16.543 16.543H909.504c-9.123 0-16.543-7.42-16.543-16.543V78.679"/><path fill="#91CFE2" d="M965.14 96.347h-10.468v18.322h-5.611V96.347h-34.388v-2.992l35.516-52.709h4.483V91.49h10.468v4.857zm-43.366-4.859h27.29V51.485l-27.29 40.003z"/><path d="M991.494 41.227h13.875c1.625 0 2.375.75 2.25 2.25v16.125c.125 1.875-.75 2.75-2.625 2.625-1 .125-2.313-.188-3.938-.938-.5-.625-.375-1 .375-1.125 1.5.75 2.625 1.063 3.375.938 1.25.125 1.813-.438 1.688-1.688v-4.313h-7.688v6.188c-.375.5-.75.5-1.125 0v-6.188h-7.313c0 2.25-.688 4.563-2.063 6.938-.625.25-.938.063-.938-.563 1.375-2.625 2-5 1.875-7.125V43.477c.002-1.5.752-2.25 2.252-2.25zm6.188 1.125h-5.813c-1 0-1.5.502-1.5 1.5v3.75h7.313v-5.25zm0 6.375h-7.313v5.25h7.313v-5.25zm7.312-6.375h-6.188v5.25h7.688v-3.75c.125-.998-.375-1.5-1.5-1.5zm1.5 6.375h-7.688v5.25h7.688v-5.25zm15.938-8.813c.75 1 1.375 2.002 1.875 3h5.438c1.625 0 2.375.625 2.25 1.875v4.688c.125 1.5-.563 2.188-2.063 2.063h-14.25c.125 4.375-.938 8.125-3.188 11.25-.75.25-1.063 0-.938-.75 2.25-3.248 3.25-6.998 3-11.25v-5.625c0-1.5.688-2.25 2.063-2.25h6.375l-1.5-2.25c0-.751.313-.999.938-.751zm7.312 4.125h-12.938c-.75 0-1.125.438-1.125 1.313v5.063h14.063c.875.127 1.25-.248 1.125-1.125v-4.125c.125-.751-.25-1.126-1.125-1.126z" fill="#494949"/><path d="M994.143 97.863h-.766v-4.266h-4.32c-.072 1.53-.603 3.024-1.586 4.483a2.254 2.254 0 0 0-.711-.492c.692-.983 1.131-1.914 1.313-2.789.219-.875.328-2.26.328-4.155v-4.867h10.828v10.5c.037 1.057-.528 1.586-1.695 1.586-.51.037-1.057.055-1.641.055 0-.256-.055-.528-.164-.819.365.036.912.055 1.641.055.767.037 1.131-.273 1.095-.93v-2.625h-4.32l-.002 4.264zm-4.977-7.218c0 .328-.018.766-.055 1.313v.931h4.267v-2.845h-4.212v.601zm0-4.157v2.844h4.212v-2.844h-4.212zm9.297 0h-4.32v2.844h4.32v-2.844zm-4.32 3.555v2.845h4.32v-2.845h-4.32zm12.633-4.813l.656-.328c.4.584.803 1.186 1.203 1.805l-.656.273h4.977v5.797h-.766v-.711h-8.969c-.036 2.442-.639 4.43-1.805 5.961-.109-.109-.328-.273-.656-.492.692-.984 1.147-1.914 1.367-2.789.219-.875.327-2.188.327-3.938V86.98h5.359c-.109-.254-.346-.674-.711-1.258l-.326-.492zm-3.555 2.461v3.664h8.969v-3.664h-8.969zm11.977 4.977c-.146-.219-.291-.438-.438-.655a13.6 13.6 0 0 0 2.297-1.423 20.791 20.791 0 0 0-1.531-1.694l.547-.438a9.334 9.334 0 0 1 1.531 1.695 8.594 8.594 0 0 0 1.422-1.586l.603.438a10.631 10.631 0 0 1-1.587 1.75c.804 1.277 1.187 2.881 1.148 4.813.073 1.459-.638 2.205-2.133 2.242h-1.203a4.014 4.014 0 0 0-.164-.767c.328.037.748.056 1.258.056 1.021.036 1.515-.476 1.478-1.531 0-.91-.072-1.713-.22-2.406-.691 1.168-1.657 2.115-2.897 2.844-.109-.219-.291-.418-.547-.602 1.35-.801 2.425-1.822 3.227-3.063a6.7 6.7 0 0 0-.547-1.147c-.621.472-1.369.964-2.244 1.474zm8.312-7.711h.711v1.531h3.772v.711h-3.772v.875h-.711v-.875h-3.883v.875h-.711v-.875h-3.884v-.711h3.884v-1.531h.711v1.531h3.883v-1.531zm-.492 3.773h.711c0 1.203-.018 2.043-.055 2.516h4.155v.711h-4.047c.547 2.48 1.951 4.248 4.211 5.306-.182.182-.346.42-.491.711-2.261-1.24-3.646-3.009-4.156-5.306-.291 2.263-1.478 4.064-3.555 5.414a6.966 6.966 0 0 0-.603-.656c2.188-1.237 3.409-3.063 3.664-5.469h-2.953v-.711h3.008c.075-.947.111-1.785.111-2.516zm1.586.657l.438-.548c.656.365 1.276.785 1.859 1.259l-.492.547a2.847 2.847 0 0 1-.383-.328 28.007 28.007 0 0 0-1.422-.93zm4.539 4.156a5.279 5.279 0 0 1-.164-.383l-.164-.328a19.272 19.272 0 0 0 3.336-4.43l.656.328a51.639 51.639 0 0 1-1.313 2.078v7.219h-.712v-6.289a26.268 26.268 0 0 1-1.639 1.805zm.273-4.375a3.24 3.24 0 0 0-.383-.602 14.532 14.532 0 0 0 3.228-3.609l.655.383a19.257 19.257 0 0 1-3.5 3.828zm3.938 2.516h8.422v.655h-1.695v1.367h1.97v.656h-1.97v2.022c.037.984-.491 1.46-1.586 1.423h-.766c-.474.037-.82.055-1.039.055a2.339 2.339 0 0 0-.219-.766c.256 0 .62.018 1.094.055h.766c.729.037 1.076-.219 1.039-.767v-2.022h-6.563v-.656h6.563V92.34h-6.016v-.656zm.656 3.5l.547-.438a15.26 15.26 0 0 1 1.531 1.531l-.603.438a71.276 71.276 0 0 0-1.475-1.531zm.109-9.625h6.836v4.813h-6.836v-4.813zm.711.656v1.423h5.414v-1.423h-5.414zm0 2.078v1.422h5.414v-1.422h-5.414zm8.313 6.016a1.437 1.437 0 0 0-.219-.384c-.072-.182-.146-.309-.22-.383 1.059-1.457 1.843-3.151 2.353-5.086h-2.078V87.8h2.078v-2.733h.766V87.8h1.914v.656h-1.914v2.353l.383-.384a76.647 76.647 0 0 1 1.75 1.695l-.547.492a.643.643 0 0 1-.108-.164 55.747 55.747 0 0 0-1.478-1.531v7.109h-.766v-8.039c-.438 1.679-1.075 3.118-1.914 4.322zm5.414-8.422h6.891v12.141h-.711v-.93h-5.414v.93h-.766V85.887zm.766.711v2.844h5.414v-2.844h-5.414zm0 3.5v2.897h5.414v-2.897h-5.414zm0 3.554v2.789h5.414v-2.789h-5.414zm14.054-8.531l.711-.219c.037.146.146.438.328.875l.383 1.147h4.977v.711h-10.719v2.734c0 2.043-.109 3.574-.328 4.594-.219.984-.674 1.986-1.367 3.009a17.79 17.79 0 0 1-.602-.438c.656-.984 1.076-1.914 1.258-2.789.219-.91.328-2.277.328-4.102v-3.72h5.688a33.73 33.73 0 0 0-.657-1.802zm4.594 4.102l.766.219c-.947 3.281-1.695 5.615-2.242 7h3.445v.711h-10.609v-.711h6.398c.984-2.698 1.732-5.104 2.242-7.219zm-7.82.547l.711-.164a97.3 97.3 0 0 1 1.478 5.305l-.711.164a122 122 0 0 0-1.478-5.305zm3.281-.657l.711-.109c.183.804.438 1.97.766 3.5.184.767.312 1.351.384 1.75l-.767.164a181.38 181.38 0 0 0-1.094-5.305zm7.93-1.859h1.422c.292-.875.512-1.621.656-2.241l.766.163c-.219.73-.438 1.423-.655 2.078h2.789v10.5h-.767V96.66h-3.5v1.203h-.711V87.254zm.711.656v3.719h3.5V87.91h-3.5zm0 4.375v3.773h3.5v-3.773h-3.5zm5.468-2.078a2.263 2.263 0 0 1-.327-.219 32.496 32.496 0 0 1-.328-.164c.803-1.313 1.495-2.916 2.078-4.813l.766.164a27.914 27.914 0 0 1-.766 2.023h4.538v.875c-.071 3.246-.163 5.742-.272 7.492.037 1.422-.747 2.149-2.353 2.188h-2.133a.405.405 0 0 0-.055-.164c-.036-.291-.091-.491-.164-.602.511.037 1.258.055 2.242.055 1.167.037 1.75-.492 1.75-1.586.072-.91.128-2.824.164-5.742.037-.838.055-1.438.055-1.805h-4.047c-.473 1.06-.857 1.825-1.148 2.298zm.602.656l.547-.438c.073.109.183.257.328.438.803.984 1.422 1.805 1.859 2.461l-.603.438a45.632 45.632 0 0 0-2.131-2.899zm12.25-5.687h.766v4.156h5.688v.767h-5.688v6.344h6.781v.766h-13.016v-.766h5.469V85.176zm10.062 12.742h-.711V85.777h11.32v10.5c0 1.021-.51 1.531-1.531 1.531-.51.037-1.11.055-1.805.055a.886.886 0 0 0-.055-.273 3.366 3.366 0 0 0-.109-.547c.328.037.875.056 1.641.056.803.036 1.187-.273 1.148-.931v-9.68h-9.898v11.43zm.711-9.406l.548-.328.983 1.641c.328.512.565.896.711 1.148.037-.109.093-.255.164-.438.512-1.129.839-1.969.984-2.516l.711.219a35.242 35.242 0 0 1-1.477 3.391 50.757 50.757 0 0 1 1.53 2.734l-.655.383a30.575 30.575 0 0 0-1.259-2.297 34.889 34.889 0 0 1-1.914 3.117c-.036 0-.071-.035-.108-.109a4.744 4.744 0 0 0-.492-.272 30.91 30.91 0 0 0 2.133-3.5 34.837 34.837 0 0 1-.766-1.313 700.33 700.33 0 0 1-1.093-1.86zm4.266.328l.602-.327c.256.438.64 1.094 1.148 1.969.183.328.328.584.438.766a28.23 28.23 0 0 0 1.367-3.172l.656.273c-.364 1.059-.911 2.262-1.641 3.608.146.256.364.64.655 1.148.184.328.547 1.004 1.095 2.022l-.656.328c-.438-.838-.492-.947-.164-.328-.328-.619-.766-1.422-1.313-2.405a55.6 55.6 0 0 1-1.858 3.063c-.146-.145-.364-.291-.656-.438.912-1.313 1.623-2.425 2.133-3.336-.219-.4-.547-.984-.983-1.75a38.229 38.229 0 0 0-.823-1.421zm9.461 2.187a86.37 86.37 0 0 0-2.078-1.695l.492-.547a50.322 50.322 0 0 1 2.133 1.695l-.547.547zm-1.75 6.563a49.217 49.217 0 0 0 1.531-4.922c.072.037.201.092.383.164l.328.164a142.36 142.36 0 0 0-.656 2.242c-.438 1.275-.711 2.15-.82 2.625l-.766-.273zm2.187-10.063a27.91 27.91 0 0 1-.983-.875c-.51-.438-.875-.746-1.094-.93l.547-.492c.655.512 1.35 1.094 2.078 1.75l-.548.547zm2.352 4.539h.766c0 1.75-.182 3.026-.547 3.828-.291.766-.911 1.494-1.859 2.188a2.783 2.783 0 0 0-.547-.602c.912-.584 1.495-1.222 1.75-1.914.291-.691.437-1.859.437-3.5zm7.164-.328a7.26 7.26 0 0 0-.711-.876c-.838.037-1.97.074-3.392.109-1.166.073-2.06.108-2.68.108-.255 0-.603.037-1.039.109h-.109l-.327-.767c.291-.145.584-.327.875-.547a18.794 18.794 0 0 0 2.352-2.461h-3.445v-.656h4.595a14.872 14.872 0 0 0-.82-1.53l.656-.328c.146.256.347.602.602 1.039.109.256.201.438.273.547l-.492.272h4.43v.656h-5.413l.491.219a39.392 39.392 0 0 1-2.789 2.734 91.85 91.85 0 0 0 5.688-.164 10.4 10.4 0 0 0-.711-.766 6.387 6.387 0 0 0-.711-.711l.602-.438c.584.584 1.404 1.478 2.461 2.68l.273.273-.659.498zm-4.594.328h.766v5.742h-.766v-5.742zm2.571-.054h.767v4.43c0 .399.219.602.655.602h.328c.401 0 .62-.201.656-.602a7.37 7.37 0 0 0 .164-1.642c.073 0 .201.037.383.109.146.037.256.074.328.109a17.577 17.577 0 0 1-.164 1.586c-.146.766-.547 1.131-1.203 1.094h-.656c-.838 0-1.258-.4-1.258-1.203v-4.483zm5.632-.875h9.953v3.608h-4.647v.93h5.194v.548h-5.194v.819h6.289v.547h-13.234v-.547h6.289v-.819h-5.195v-.548h5.195v-.93h-4.647v-3.608h-.003zm-1.531-1.367h13.069v.492h-13.069v-.492zm1.422-4.157h10.117v3.281h-10.117v-3.281zm.711.492v.875h8.75v-.875h-8.75zm0 1.368v.93h8.75v-.93h-8.75zm.109 4.156v1.039h3.938v-1.039h-3.938zm0 1.531v1.039h3.938V93.16h-3.938zm8.532-1.531h-3.938v1.039h3.938v-1.039zm-3.938 1.531v1.039h3.938V93.16h-3.938z" fill="#979797"/><path fill="#FFF" d="M279.905 74.387v54.01c0 14.637 11.907 26.543 26.543 26.543h229.924c14.636 0 26.543-11.906 26.543-26.543V75.098l24.115-22.912-24.115-22.908v-3.795c0-14.635-11.908-26.543-26.543-26.543H306.448c-14.636 0-26.543 11.908-26.543 26.543v6.51"/><path fill="#D7EBF5" d="M285.905 29.42v-3.936c0-11.326 9.215-20.543 20.543-20.543h229.924c11.326 0 20.543 9.217 20.543 20.543v6.367l21.403 20.336-21.403 20.339v55.872c0 11.328-9.217 20.543-20.543 20.543H306.448v-.001c-11.328 0-20.543-9.215-20.543-20.543V76.962"/><path fill="#FFF" d="M289.905 27.702v-2.219c0-9.121 7.421-16.543 16.543-16.543h229.924c9.121 0 16.543 7.422 16.543 16.543v8.085l19.595 18.618-19.595 18.621v57.59c0 9.123-7.422 16.543-16.543 16.543H306.448c-9.122 0-16.543-7.42-16.543-16.543V78.679"/><path fill="#91CFE2" d="M312.421 115.63v-4.646c4.904-9.3 12.912-18.08 24.023-26.348 11.879-8.779 17.69-16.791 17.436-24.022-.259-10.078-5.811-15.238-16.661-15.499-8.524.774-14.209 5.683-17.048 14.724l-5.813-2.713c3.875-11.878 11.878-17.688 24.023-17.437 13.95.521 21.438 7.107 22.475 19.761.774 9.821-5.559 19.247-18.987 28.286-10.596 7.751-17.825 15.109-21.697 22.084h41.071v5.813h-48.821v-.003z"/><path d="M393.622 40.852c.5-.5.998-.5 1.5 0 3.5 3.877 6.938 6.375 10.313 7.5.375.75.188 1.125-.563 1.125-3.877-1.5-7.252-3.938-10.125-7.313-.25-.375-.502-.375-.75 0-2.625 3.127-6.063 5.438-10.313 6.938-.75-.248-.813-.623-.188-1.125 3.751-1.125 7.126-3.5 10.126-7.125zm.562 6.75c.375-.5.75-.5 1.125 0v4.875h7.875c.624.375.624.75 0 1.125h-7.875v7.125h9.75c.5.375.5.75 0 1.125h-21c-.501-.25-.501-.625 0-1.125h3v-9.75c.375-.5.75-.5 1.125 0v9.75h6V47.602zm21.375-6.563v19.875h4.875V41.039c.375-.5.75-.5 1.125 0v19.875h7.125c.499.375.499.75 0 1.125h-21c-.501-.375-.501-.75 0-1.125h6.75V41.039c.375-.5.75-.5 1.125 0zm-6 3.188c1.5 5.125 2.499 9.25 3 12.375-.25.75-.625.813-1.125.188-.625-3.375-1.626-7.438-3-12.188.124-.875.499-.998 1.125-.375zm17.063-.188c.623-.5.998-.375 1.125.375a50.955 50.955 0 0 1-3.563 12.938c-.626.375-1.001.25-1.125-.375 1.5-3.5 2.686-7.813 3.563-12.938z" fill="#494949"/><path d="M389.427 85.996c-1.35 1.715-3.409 3.318-6.18 4.813a4.198 4.198 0 0 0-.548-.656c3.026-1.494 5.231-3.228 6.617-5.195l.875.109a2.08 2.08 0 0 0-.272.328c1.422 1.858 3.444 3.373 6.069 4.539a3.74 3.74 0 0 0-.491.655l-.056.056c-2.698-1.385-4.703-2.934-6.014-4.649zm-.219 3.117h.766v3.063h4.156v.712h-4.156v3.719h5.578v.766h-12.578v-.766h2.188v-5.142h.767v5.142h3.281l-.002-7.494zm15.53-3.937h.711v11.267h4.539v.711h-13.233v-.711h4.483V85.176h.711v11.267h2.789V85.176zm-5.304 8.312a94.016 94.016 0 0 0-2.023-5.305l.712-.273c.327.84.855 2.188 1.586 4.047.219.621.383 1.06.491 1.313l-.766.218zm7.657.055l-.711-.328c.583-1.094 1.349-2.86 2.297-5.305l.711.273a85.492 85.492 0 0 1-2.297 5.36zm4.429-7.93h11.758v.766h-5.524v6.017h6.125v.766h-6.125v4.922h-.766V93.16h-6.125v-.766h6.125v-6.017h-5.469l.001-.764zm.765 2.407l.603-.438c.838 1.06 1.659 2.133 2.461 3.228l-.711.491a47.434 47.434 0 0 0-2.353-3.281zm7.547 3.335l-.655-.492c1.13-1.275 2.005-2.369 2.625-3.281l.655.438c-.364.512-.966 1.295-1.805 2.352l-.82.983zm17.501-.054a10.887 10.887 0 0 0-1.094-1.147c-3.5.037-6.637.146-9.406.328a4.99 4.99 0 0 0-1.313.164l-.383-.82a5.226 5.226 0 0 0 1.039-.656c1.676-1.422 3.098-2.844 4.266-4.266l.766.383c-1.239 1.387-2.754 2.863-4.539 4.43 1.423-.034 3.81-.108 7.164-.219a42.44 42.44 0 0 1 1.75-.055c-.219-.254-.584-.619-1.094-1.094-.475-.474-.84-.82-1.094-1.039l.602-.438c.619.547 1.513 1.404 2.681 2.57a78.973 78.973 0 0 1 1.366 1.313l-.711.546zm-1.203.875v5.853h-.766v-.875h-7.984v.875h-.766v-5.853h9.516zm-8.75.711v3.555h7.984v-3.555h-7.984zm13.07 4.976h-.711V86.98h4.047c.109-.363.254-.931.438-1.695.035-.182.071-.309.108-.383l.767.164c0 .037-.021.108-.056.219-.219.73-.383 1.295-.491 1.695h6.452v9.297c.035.983-.491 1.494-1.586 1.531h-1.75a3.386 3.386 0 0 1-.108-.548.88.88 0 0 1-.056-.272c.291.037.839.055 1.642.055.766.037 1.129-.235 1.094-.819v-8.531h-9.789l-.001 10.17zm2.242-7.875h5.305v4.813h-5.305v-4.813zm.711.711v3.391h3.883v-3.391h-3.883zm15.367 3.61c-1.715-1.677-2.918-4.211-3.609-7.603h-1.203v-.711h9.845v.767c-.767 3.245-2.062 5.762-3.884 7.547 1.423 1.203 3.408 2.114 5.961 2.733-.036.037-.073.072-.108.109a9.911 9.911 0 0 0-.438.656c-2.698-.804-4.686-1.785-5.961-2.953-1.203 1.059-3.246 2.096-6.125 3.117a5.02 5.02 0 0 0-.492-.712c2.696-.835 4.702-1.82 6.014-2.95zm-2.789-7.602c.582 3.101 1.713 5.451 3.391 7.056 1.785-1.75 2.988-4.103 3.609-7.056h-7zm10.883 6.344l-.109-.819c.619-.183 1.293-.383 2.023-.603v-3.227h-1.914v-.711h1.914v-2.625h.711v2.625h1.586v.711h-1.586v3.008a28.376 28.376 0 0 1 1.641-.492v.767a30.03 30.03 0 0 0-1.641.491v4.212c.035.946-.438 1.422-1.422 1.422h-.984a.518.518 0 0 0-.055-.22 8.629 8.629 0 0 0-.109-.547c.363.037.711.056 1.039.056.582.036.855-.201.82-.711V92.45c-.256.074-.621.184-1.094.328-.365.109-.638.201-.82.273zm5.031-6.235h2.297c.254-.729.438-1.349.547-1.859l.766.109a12.1 12.1 0 0 1-.547 1.75h4.267v11.156h-.767v-1.095h-5.797v1.095h-.766V86.816zm.766.711v3.883h5.797v-3.883h-5.797zm0 4.594v4.211h5.797v-4.211h-5.797zm19.797 5.469a14.965 14.965 0 0 0-.93-1.147c-2.881.037-5.578.108-8.094.219a.905.905 0 0 0-.273.055c-.475.037-.785.072-.93.109l-.438-.82a4.726 4.726 0 0 0 1.203-1.039c1.238-1.348 2.261-2.696 3.063-4.047h-5.195v-.766h13.07v.766h-7.547l.602.22c-.875 1.313-2.17 2.936-3.883 4.866 2.988-.071 5.613-.164 7.875-.272a222.888 222.888 0 0 1-1.969-2.461c.071.108 0 .02-.22-.273l.656-.438c.767.912 2.004 2.426 3.719 4.539l-.709.489zm-10.281-11.649h10.5v.766h-10.5v-.766zm14.656 5.086a90.491 90.491 0 0 0-2.078-1.695l.492-.547a50.322 50.322 0 0 1 2.133 1.695l-.547.547zm-1.75 6.563a49.217 49.217 0 0 0 1.531-4.922c.072.037.199.092.383.164.146.074.254.129.328.164-.146.476-.365 1.223-.656 2.242-.438 1.275-.711 2.15-.819 2.625l-.767-.273zm2.187-10.063a28.665 28.665 0 0 1-.984-.875 175.7 175.7 0 0 0-1.094-.93l.547-.492a39.323 39.323 0 0 1 2.078 1.75l-.547.547zm2.352 4.539h.767c0 1.75-.185 3.026-.547 3.828-.293.766-.912 1.494-1.859 2.188a2.808 2.808 0 0 0-.547-.602c.91-.584 1.494-1.222 1.75-1.914.289-.691.436-1.859.436-3.5zm7.164-.328a8.839 8.839 0 0 0-.328-.438 10.866 10.866 0 0 0-.383-.438c-.84.037-1.969.074-3.391.109a46.093 46.093 0 0 1-2.68.108c-.257 0-.603.037-1.039.109h-.109l-.328-.767c.291-.145.582-.327.875-.547a18.926 18.926 0 0 0 2.352-2.461h-3.444v-.656h4.594a15.27 15.27 0 0 0-.82-1.53l.656-.328c.146.256.346.602.603 1.039.108.256.198.438.272.547l-.492.272h4.431v.656h-5.414l.492.219a39.607 39.607 0 0 1-2.789 2.734c2.041 0 3.938-.055 5.688-.164a10.4 10.4 0 0 0-.711-.766 6.657 6.657 0 0 0-.711-.711l.602-.438c.582.584 1.402 1.478 2.461 2.68.109.109.199.201.273.273l-.66.498zm-4.594.328h.766v5.742h-.766v-5.742zm2.57-.054h.766v4.43c0 .399.219.602.656.602h.328c.399 0 .619-.201.655-.602a7.37 7.37 0 0 0 .164-1.642c.072 0 .199.037.384.109.145.037.254.074.327.109a17.948 17.948 0 0 1-.164 1.586c-.146.766-.547 1.131-1.202 1.094h-.656c-.84 0-1.258-.4-1.258-1.203v-4.483zm5.633-.875h9.953v3.608H515.7v.93h5.195v.548H515.7v.819h6.289v.547h-13.234v-.547h6.289v-.819h-5.194v-.548h5.194v-.93h-4.647l-.002-3.608zm-1.531-1.367h13.07v.492h-13.07v-.492zm1.422-4.157h10.117v3.281h-10.117v-3.281zm.711.492v.875h8.75v-.875h-8.75zm0 1.368v.93h8.75v-.93h-8.75zm.109 4.156v1.039h3.938v-1.039h-3.938zm0 1.531v1.039h3.938V93.16h-3.938zm8.531-1.531h-3.938v1.039h3.938v-1.039zM515.7 93.16v1.039h3.938V93.16H515.7zm7.109 0l-.109-.766c.183-.072.455-.199.82-.384l1.147-.491v-2.953h-1.805v-.656h1.805v-2.897h.712v2.897h1.53v.656h-1.53v2.625c.51-.219.983-.455 1.422-.711.034.074.055.201.055.383.035.184.055.311.055.383l-.328.164c-.293.109-.692.293-1.203.547v4.484c.035.947-.383 1.422-1.258 1.422a6.419 6.419 0 0 1-.983.055c-.074-.438-.109-.692-.109-.766h.93c.511.037.746-.201.711-.711v-4.156c-.256.109-.639.293-1.147.547-.332.147-.57.256-.715.328zm3.719 4.867l-.164-.164c-.074-.072-.219-.164-.438-.273 1.237-1.094 1.948-2.604 2.133-4.539l.711.109a5.764 5.764 0 0 0-.109.603c-.074.364-.129.639-.164.819.582 1.351 1.439 2.078 2.57 2.188v-4.375h-4.32v-.656h9.133v.656h-4.102V94.2h3.555v.602h-3.555v2.023h.328c1.238.072 2.551.072 3.938 0l-.164.492a.904.904 0 0 0-.055.219h-4.047c-1.678-.037-2.863-.711-3.555-2.022-.328.873-.894 1.711-1.695 2.513zm1.422-12.359h6.728v4.703h-6.728v-4.703zm.766.602v1.422h5.194V86.27h-5.194zm0 2.078v1.422h5.194v-1.422h-5.194zM387.02 107.773c.729 1.494 1.513 2.625 2.353 3.391.802-.729 1.566-1.896 2.297-3.5l.711.328c-.767 1.641-1.568 2.861-2.406 3.664 1.057.912 2.971 1.676 5.742 2.297a.564.564 0 0 0-.109.219c-.037.072-.128.254-.272.547-2.734-.729-4.723-1.567-5.961-2.516-1.24.947-3.264 1.822-6.07 2.625l-.383-.766c2.988-.767 4.939-1.568 5.852-2.406-.766-.729-1.568-1.896-2.406-3.5l.652-.383zm-3.993-3.992h6.398l-.164-.328c-.328-.619-.603-1.076-.82-1.367l.711-.328c.146.22.347.548.603.984.182.291.328.529.438.711l-.656.328h6.234v.766h-12.743v-.766zm4.157 1.586l.602.602c-1.714 1.386-3.08 2.406-4.102 3.063a4.292 4.292 0 0 0-.547-.656 26.586 26.586 0 0 0 4.047-3.009zm7.875 3.391a104.572 104.572 0 0 0-4.102-2.844l.491-.547a81.16 81.16 0 0 1 4.103 2.734l-.492.657zm3.774-.93a90.005 90.005 0 0 0-2.078-1.695l.492-.547a48.77 48.77 0 0 1 2.133 1.695l-.547.547zm-1.75 6.563a49.581 49.581 0 0 0 1.53-4.923c.073.037.2.093.384.164.146.072.255.127.327.164a131.57 131.57 0 0 0-.655 2.242c-.438 1.275-.711 2.15-.82 2.625l-.766-.272zm2.187-10.063a31.047 31.047 0 0 1-.984-.875c-.511-.438-.875-.748-1.094-.93l.547-.492c.656.51 1.35 1.094 2.078 1.75l-.547.547zm2.352 4.539h.766c0 1.75-.184 3.025-.547 3.828-.292.766-.912 1.494-1.859 2.188a2.808 2.808 0 0 0-.547-.602c.911-.584 1.495-1.221 1.75-1.914.29-.693.437-1.859.437-3.5zm7.163-.328a7.275 7.275 0 0 0-.711-.876c-.839.037-1.969.072-3.391.109-1.167.071-2.06.108-2.68.108-.255 0-.603.037-1.039.109h-.109l-.328-.766c.292-.146.583-.328.875-.548a19.122 19.122 0 0 0 2.353-2.461h-3.445v-.655h4.594a15.084 15.084 0 0 0-.819-1.531l.655-.328c.146.256.347.603.603 1.039.108.256.2.438.272.547l-.491.273h4.43v.655h-5.414l.492.22a40.265 40.265 0 0 1-2.789 2.733 91.85 91.85 0 0 0 5.688-.164 10.4 10.4 0 0 0-.711-.766 6.475 6.475 0 0 0-.711-.711l.603-.438c.583.584 1.402 1.478 2.461 2.681.108.108.199.201.272.272l-.66.498zm-4.593.328h.767v5.742h-.767v-5.742zm2.57-.054h.766v4.43c0 .4.22.603.656.603h.328c.401 0 .62-.201.656-.603a7.434 7.434 0 0 0 .164-1.641c.072 0 .199.037.383.108.146.037.255.072.328.109a18.376 18.376 0 0 1-.164 1.586c-.146.766-.547 1.129-1.203 1.094h-.656c-.839 0-1.258-.401-1.258-1.203v-4.483zm5.633-.875h9.953v3.608H417.7v.931h5.195v.547H417.7v.819h6.29v.548h-13.234v-.548h6.288v-.819h-5.194v-.547h5.194v-.931h-4.647l-.002-3.608zm-1.532-1.368h13.071v.492h-13.071v-.492zm1.422-4.156h10.117v3.281h-10.117v-3.281zm.712.492v.875h8.749v-.875h-8.749zm0 1.367v.93h8.749v-.93h-8.749zm.109 4.157v1.038h3.938v-1.038h-3.938zm0 1.531V111h3.938v-1.039h-3.938zm8.531-1.531h-3.938v1.038h3.938v-1.038zm-3.938 1.531V111h3.938v-1.039h-3.938zm7.165-7.109h13.016v.766h-6.727v11.103h-.82v-11.103h-5.469v-.766zm11.594 7.273a93.747 93.747 0 0 0-5.03-2.897l.438-.711c.254.146.619.346 1.094.602 1.785.912 3.136 1.641 4.048 2.188l-.55.818zm3.719-5.25h3.28c.254-.983.455-2.022.603-3.117l.819.109c-.073.291-.163.748-.272 1.367-.146.729-.256 1.274-.328 1.641h7.602v.711h-7.819a33.68 33.68 0 0 1-.603 2.023h6.836v.656c-.655 1.641-1.641 2.989-2.952 4.047.909.619 2.405 1.166 4.483 1.641a4.476 4.476 0 0 0-.383.656c-.037.035-.055.072-.055.108-1.97-.547-3.537-1.186-4.703-1.913-1.021.581-2.717 1.274-5.086 2.077-.037-.146-.146-.327-.328-.547a.628.628 0 0 0-.109-.219c2.332-.584 3.974-1.186 4.922-1.805-1.276-1.058-2.188-2.406-2.733-4.047h-.164a17.74 17.74 0 0 1-3.938 5.961 1.919 1.919 0 0 0-.383-.384l-.219-.219c2.297-2.149 3.846-4.83 4.647-8.039h-3.883v-.875c.4-.838.729-1.658.984-2.461l.766.219a4.196 4.196 0 0 1-.219.603c-.328.84-.584 1.442-.765 1.807zm9.351 3.391h-5.469a7.957 7.957 0 0 0 2.68 3.608c1.275-.983 2.205-2.186 2.789-3.608zm-2.187-5.743l.438-.547c.801.51 1.586 1.039 2.352 1.586l-.491.602c-1.024-.766-1.79-1.312-2.299-1.641zm7.765 10.61a32.065 32.065 0 0 1 1.586-1.094c0 .183.035.455.109.82-.767.365-1.351.711-1.75 1.039-.22.108-.402.254-.548.438l-.438-.547a1.05 1.05 0 0 0 .328-.766v-5.853h-1.642v-.655h2.353l.002 6.618zm.383-8.477a19.936 19.936 0 0 0-1.914-1.969l.547-.438c.91.838 1.566 1.478 1.97 1.914l-.603.493zm1.586.055h3.719v-1.147h-3.991v-.603h3.991v-1.203h.711v1.203h4.267v.603h-4.267v1.147h3.828v.603h-3.828v1.203h4.484v.602h-9.57v-.602h4.375v-1.203h-3.719v-.603zm1.094 10.117h-.766v-6.617h7.547v5.031c.035.984-.492 1.457-1.586 1.422h-.82c-.475.035-.803.055-.983.055a3.003 3.003 0 0 0-.219-.766 24.66 24.66 0 0 0 1.858.055c.729.035 1.074-.219 1.039-.766v-.82h-6.07v2.406zm0-6.015v1.203h6.07v-1.203h-6.07zm0 1.804v1.203h6.07v-1.203h-6.07zm9.078 2.352l-.383-.766c2.223-1.057 3.992-1.969 5.305-2.734 0 .072.019.164.056.273.035.256.071.438.108.547a115.504 115.504 0 0 0-5.086 2.68zm5.797-11.211h.767v2.845h5.961v.711h-5.961v.383a15.27 15.27 0 0 0 1.641 3.281c.947-.693 1.949-1.568 3.008-2.625l.603.491c-.328.291-.949.82-1.859 1.587-.621.547-1.059.93-1.313 1.147.946 1.203 2.297 2.26 4.047 3.172-.074.037-.201.183-.383.438a.594.594 0 0 0-.164.108c-2.699-1.35-4.56-3.317-5.578-5.905v5.414c.072 1.166-.547 1.75-1.859 1.75-.584.034-1.076.055-1.477.055 0-.219-.056-.492-.164-.82.291.035.783.056 1.477.056.91.071 1.33-.349 1.258-1.259v-7.272h-6.069v-.711h6.069v-2.846h-.004zm-2.625 7.328a48.272 48.272 0 0 0-2.133-2.352l.603-.438c.766.767 1.494 1.55 2.188 2.353l-.658.437zm4.812-6.234l.492-.492c.946.656 1.604 1.147 1.969 1.477l-.547.547a29.01 29.01 0 0 0-1.914-1.532z" fill="#979797"/><path fill="#FFF" stroke="#FFF" stroke-width="2" stroke-miterlimit="10" d="M25.544 152.94c-13.532 0-24.543-11.01-24.543-24.543V25.483C1.001 11.95 12.011.94 25.544.94h211.913C250.99.94 262 11.95 262 25.483v5.654l23.207 22.053L262 75.243v53.154c0 13.533-11.01 24.543-24.543 24.543H25.544z"/><path fill="#D7EBF5" d="M25.544 148.94c-11.327 0-20.543-9.215-20.543-20.543V25.483c0-11.326 9.216-20.543 20.543-20.543h211.913C248.785 4.94 258 14.157 258 25.483v7.371l21.4 20.336L258 73.526v54.871c0 11.328-9.215 20.543-20.543 20.543H25.544z"/><path fill="#FFF" d="M273.594 53.19L254 34.571v-9.088c0-9.137-7.406-16.543-16.543-16.543H25.544c-9.136 0-16.543 7.406-16.543 16.543v102.914c0 9.137 7.407 16.543 16.543 16.543h211.913c9.137 0 16.543-7.406 16.543-16.543V71.81l19.594-18.62z"/><path fill="#91CFE2" d="M51.657 54.172c-6.464 5.966-13.047 10.195-19.758 12.67v-6.335c11.431-5.223 18.64-11.801 21.623-19.758h4.101v73.818h-5.965V54.172z"/><path d="M87.518 41.227h13.875c1.625 0 2.375.75 2.25 2.25v16.125c.125 1.875-.75 2.75-2.625 2.625-1 .125-2.313-.188-3.938-.938-.501-.625-.375-1 .375-1.125 1.5.75 2.625 1.063 3.375.938 1.25.125 1.813-.438 1.688-1.688v-4.313H94.83v6.188c-.375.5-.75.5-1.125 0v-6.188h-7.313c0 2.25-.688 4.563-2.063 6.938-.625.25-.938.063-.938-.563 1.374-2.625 2-5 1.875-7.125V43.477c.002-1.5.752-2.25 2.252-2.25zm6.188 1.125h-5.813c-1 0-1.5.502-1.5 1.5v3.75h7.313v-5.25zm0 6.375h-7.313v5.25h7.313v-5.25zm7.312-6.375H94.83v5.25h7.688v-3.75c.125-.998-.375-1.5-1.5-1.5zm1.5 6.375H94.83v5.25h7.688v-5.25zm15.938-8.813c.75 1 1.374 2.002 1.875 3h5.438c1.625 0 2.375.625 2.25 1.875v4.688c.125 1.5-.563 2.188-2.063 2.063h-14.25c.125 4.375-.938 8.125-3.188 11.25-.75.25-1.063 0-.938-.75 2.25-3.248 3.249-6.998 3-11.25v-5.625c0-1.5.688-2.25 2.063-2.25h6.375l-1.5-2.25c0-.751.312-.999.938-.751zm7.312 4.125H112.83c-.75 0-1.125.438-1.125 1.313v5.063h14.063c.875.127 1.25-.248 1.125-1.125v-4.125c.125-.751-.25-1.126-1.125-1.126z" fill="#494949"/><path d="M88.09 84.957l.766.109a17.075 17.075 0 0 1-.711 1.805h7.875v.711h-8.203a15.055 15.055 0 0 1-1.914 3.228v7.164h-.766v-6.289c-.693.803-1.294 1.403-1.806 1.805a3.195 3.195 0 0 0-.491-.602c1.932-1.677 3.316-3.445 4.155-5.306H83.44v-.711h3.883c.292-.582.547-1.221.767-1.914zm2.789 3.719h.711v2.734h3.664v.656H91.59v4.266h4.43v.603h-9.461v-.603h4.32v-4.266H87.27v-.656h3.609v-2.734zm12.631-2.68c-1.35 1.715-3.409 3.318-6.181 4.813a4.189 4.189 0 0 0-.547-.656c3.026-1.494 5.231-3.228 6.617-5.195l.875.109a2.027 2.027 0 0 0-.272.328c1.422 1.858 3.444 3.373 6.069 4.539-.146.146-.31.364-.492.655l-.055.056c-2.696-1.385-4.701-2.934-6.014-4.649zm-.217 3.117h.766v3.063h4.156v.712h-4.156v3.719h5.578v.766H97.058v-.766h2.188v-5.142h.767v5.142h3.281l-.001-7.494zm15.53-3.937h.711v11.267h4.539v.711H110.84v-.711h4.483V85.176h.711v11.267h2.789V85.176zm-5.305 8.312a94.016 94.016 0 0 0-2.023-5.305l.711-.273c.328.84.856 2.188 1.587 4.047.219.621.383 1.06.491 1.313l-.766.218zm7.658.055l-.711-.328c.583-1.094 1.349-2.86 2.297-5.305l.711.273a85.492 85.492 0 0 1-2.297 5.36zm4.428-7.93h11.758v.766h-5.522v6.017h6.125v.766h-6.125v4.922h-.767V93.16h-6.125v-.766h6.125v-6.017h-5.469v-.764zm.766 2.407l.603-.438c.838 1.06 1.659 2.133 2.461 3.228l-.711.491a47.773 47.773 0 0 0-2.353-3.281zm7.548 3.335l-.656-.492c1.13-1.275 2.005-2.369 2.625-3.281l.656.438c-.365.512-.967 1.295-1.806 2.352l-.819.983zm17.5-.054a10.898 10.898 0 0 0-1.095-1.147c-3.5.037-6.636.146-9.405.328a4.99 4.99 0 0 0-1.313.164l-.383-.82c.438-.219.784-.438 1.039-.656 1.677-1.422 3.099-2.844 4.266-4.266l.767.383c-1.24 1.387-2.754 2.863-4.539 4.43a915.87 915.87 0 0 0 7.164-.219 42.388 42.388 0 0 1 1.75-.055c-.22-.254-.583-.619-1.095-1.094-.474-.474-.839-.82-1.094-1.039l.602-.438c.62.547 1.514 1.404 2.681 2.57a69.89 69.89 0 0 1 1.367 1.313l-.712.546zm-1.203.875v5.853h-.767v-.875h-7.983v.875h-.767v-5.853h9.517zm-8.75.711v3.555h7.983v-3.555h-7.983zm11.375-.055c1.822-.766 3.208-1.604 4.155-2.516h-3.827v-.603h4.483c.182-.219.419-.526.711-.93.109-.109.183-.199.219-.273l.711.273c-.219.293-.455.602-.711.93h7.164v.603h-4.047c.948 1.168 2.389 2.078 4.32 2.733-.183.22-.328.438-.438.656-1.969-.766-3.555-1.895-4.758-3.391h-2.789c-1.021 1.168-2.606 2.207-4.758 3.117a2.479 2.479 0 0 0-.219-.328 4.425 4.425 0 0 0-.216-.271zm11.045 1.422l.492.547a37.612 37.612 0 0 1-10.009 3.337 2.719 2.719 0 0 0-.328-.656c3.72-.695 7.003-1.769 9.845-3.228zm.166-5.305a5.38 5.38 0 0 0-.82-.656c-2.552 0-5.068.037-7.547.109-.547 0-.912.02-1.094.055l-.273-.766a8.017 8.017 0 0 0 1.258-.603 25.492 25.492 0 0 0 3.008-2.241l.767.438c-1.422 1.021-2.625 1.842-3.609 2.461a196.35 196.35 0 0 1 6.672-.108 77.022 77.022 0 0 1-1.858-1.313l.547-.492a91.756 91.756 0 0 1 3.5 2.517l-.551.599zm-1.97 3.828l.492.547c-2.625 1.35-5.177 2.279-7.655 2.789a2.813 2.813 0 0 0-.328-.656c2.769-.656 5.267-1.549 7.491-2.68zm-1.477-1.531l.492.492c-1.714.912-3.684 1.678-5.906 2.297a5.93 5.93 0 0 0-.383-.656 29.818 29.818 0 0 0 5.797-2.133zm6.236 2.297h9.789v.711h-9.789v-.711zm2.186-2.406l.656-6.181h.766l-.219 2.188h9.789v.711h-9.844l-.273 2.516h9.133c-.146 2.443-.272 4.193-.383 5.25-.073 1.422-1.003 2.133-2.789 2.133h-2.897c0-.108-.02-.256-.056-.438a4.056 4.056 0 0 0-.108-.438c.838.072 1.822.109 2.953.109 1.313.037 2.022-.455 2.133-1.478.036-.29.073-.745.108-1.366.109-1.349.183-2.353.22-3.009h-9.188v.003zm13.892-.11a92.703 92.703 0 0 0-2.078-1.695l.491-.547c.729.547 1.44 1.113 2.134 1.695l-.547.547zm-1.75 6.563a49.228 49.228 0 0 0 1.53-4.922c.073.037.2.092.383.164l.328.164c-.146.476-.364 1.223-.655 2.242-.438 1.275-.711 2.15-.82 2.625l-.766-.273zm2.186-10.063a28.665 28.665 0 0 1-.984-.875c-.511-.438-.875-.746-1.094-.93l.547-.492a38.53 38.53 0 0 1 2.078 1.75l-.547.547zm2.352 4.539h.767c0 1.75-.184 3.026-.547 3.828-.292.766-.912 1.494-1.859 2.188a2.808 2.808 0 0 0-.547-.602c.911-.584 1.495-1.222 1.75-1.914.29-.691.436-1.859.436-3.5zm7.164-.328a7.26 7.26 0 0 0-.711-.876c-.839.037-1.969.074-3.391.109a46.029 46.029 0 0 1-2.68.108c-.256 0-.603.037-1.039.109h-.109l-.328-.767c.292-.145.583-.327.875-.547a18.93 18.93 0 0 0 2.353-2.461h-3.445v-.656h4.594a15.267 15.267 0 0 0-.819-1.53l.655-.328c.146.256.347.602.603 1.039.108.256.2.438.272.547l-.492.272h4.431v.656h-5.414l.492.219a39.607 39.607 0 0 1-2.789 2.734 91.85 91.85 0 0 0 5.688-.164 10.4 10.4 0 0 0-.711-.766 6.565 6.565 0 0 0-.711-.711l.603-.438c.583.584 1.402 1.478 2.461 2.68l.272.273-.66.498zm-4.594.328h.767v5.742h-.767v-5.742zm2.57-.054h.766v4.43c0 .399.219.602.656.602h.328c.4 0 .62-.201.656-.602a7.43 7.43 0 0 0 .164-1.642c.072 0 .199.037.383.109.146.037.255.074.328.109a18.334 18.334 0 0 1-.164 1.586c-.146.766-.547 1.131-1.203 1.094h-.656c-.839 0-1.258-.4-1.258-1.203v-4.483zm5.633-.875h9.953v3.608h-4.648v.93h5.195v.548h-5.195v.819h6.289v.547H194.84v-.547h6.289v-.819h-5.195v-.548h5.195v-.93h-4.648l-.002-3.608zm-1.531-1.367h13.07v.492h-13.07v-.492zm1.422-4.157h10.117v3.281H196.37v-3.281zm.711.492v.875h8.75v-.875h-8.75zm0 1.368v.93h8.75v-.93h-8.75zm.109 4.156v1.039h3.938v-1.039h-3.938zm0 1.531v1.039h3.938V93.16h-3.938zm8.531-1.531h-3.938v1.039h3.938v-1.039zm-3.937 1.531v1.039h3.938V93.16h-3.938zm11.759 4.211a68.059 68.059 0 0 0-1.587-1.695 16.204 16.204 0 0 0-.547-.602c-.255.984-.93 1.986-2.022 3.008a1.971 1.971 0 0 0-.383-.383 12.336 12.336 0 0 1-.164-.164c.983-.875 1.604-1.713 1.858-2.516.292-.802.438-2.15.438-4.047v-3.281h.656v3.227c0 1.935-.109 3.301-.328 4.103l.438-.438c.073.074.183.201.328.383.948.984 1.586 1.642 1.914 1.97l-.601.435zm-4.048-11.648h3.992v8.313h-.656v-7.602h-2.68v7.655h-.656v-8.366zm4.976 1.148h2.297a26.932 26.932 0 0 0-1.258-1.586l.602-.383c.475.621.894 1.147 1.258 1.586l-.547.383h1.642c.51-.656.983-1.313 1.422-1.969l.602.383c-.511.693-.93 1.223-1.258 1.586h2.297v4.43h-7.055l-.002-4.43zm.494 5.688h6.016v5.469h-.656v-.656h-4.703v.656h-.655l-.002-5.469zm.164-5.086v3.28h2.516v-3.28h-2.516zm.491.984l.492-.328c.183.22.475.621.875 1.203.109.109.183.201.219.273l-.602.328c-.401-.656-.729-1.148-.984-1.476zm0 4.703v1.531h4.703V93.16h-4.703zm0 2.133v1.478h4.703v-1.478h-4.703zm5.25-7.82h-2.569v3.28h2.569v-3.28zm-.491.984c-.073.109-.256.365-.548.767s-.474.655-.547.766l-.547-.383c.109-.146.346-.455.711-.931.183-.254.311-.438.383-.547l.548.328zm7.875 8.422c1.094.037 2.424.056 3.991.056 1.458-.037 2.734-.072 3.828-.109a3.63 3.63 0 0 0-.108.438 5.963 5.963 0 0 1-.164.383h-5.031c-1.167 0-2.042-.019-2.625-.056-1.604 0-2.716-.51-3.336-1.53-.438.475-.948 1.11-1.531 1.914l-.492-.603c.656-.803 1.239-1.438 1.75-1.914v-4.922h-1.641v-.711h2.352v5.633c.509.948 1.512 1.421 3.007 1.421zm-3.009-8.805c-.655-.91-1.275-1.75-1.858-2.516l.602-.384a43.545 43.545 0 0 1 1.914 2.406l-.658.494zm1.367 2.899h4.047c0-.109.019-.273.056-.492v-2.078h-3.664v-.656h4.539a52.08 52.08 0 0 0 1.202-1.586l.82-1.147.656.383a84.21 84.21 0 0 1-1.859 2.352h3.009v.656h-3.992v1.641c0 .328-.02.64-.056.931h4.484v.655h-4.539a.942.942 0 0 1-.055.22c0 .108-.02.184-.056.219.256.219.656.529 1.203.93 1.203.984 2.169 1.787 2.898 2.406l-.603.602a88.526 88.526 0 0 0-3.719-3.227c-.474 1.313-1.787 2.479-3.938 3.5a2.537 2.537 0 0 0-.492-.656c2.406-1.02 3.737-2.352 3.992-3.992h-3.938v-.658h.005zm1.531-5.524l.547-.438a22.576 22.576 0 0 1 1.695 1.914l-.603.438a29.759 29.759 0 0 0-1.639-1.914zM85.026 107.938a25.912 25.912 0 0 0-2.242-1.806l.492-.547a24.148 24.148 0 0 1 2.297 1.75l-.547.603zm-1.858 6.453c.582-1.351 1.167-3.009 1.75-4.978.255.146.51.273.766.383-.656 1.859-1.222 3.5-1.695 4.922l-.821-.327zm2.297-10.008a39.106 39.106 0 0 0-1.422-1.202 8.351 8.351 0 0 1-.712-.603l.548-.547a40.11 40.11 0 0 1 2.133 1.75l-.547.602zm2.022 4.976h3.392v-2.625h-4.32v-.711h4.32v-2.57c-1.203.037-2.443.092-3.72.164a2.96 2.96 0 0 0-.164-.711c2.442-.037 5.231-.182 8.367-.438l.109.712c-.401.036-1.039.071-1.914.108l-1.914.164v2.57h4.43v.711h-4.43v2.625h3.391v5.469h-.711v-.82h-6.125v.82h-.711v-5.468zm.711.711v3.281h6.125v-3.281h-6.125zm14.164 3.172a9.303 9.303 0 0 1-.328-.602c-.802.036-1.805.108-3.008.219-.401.037-.711.072-.93.108a12.59 12.59 0 0 1-.656.109c.036 0-.037.019-.219.055l-.328-.655c.292-.22.528-.547.711-.984.51-1.057 1.075-2.369 1.695-3.938h-2.406v-.767h6.289v.767h-3.063a82.411 82.411 0 0 1-2.133 4.758 75.52 75.52 0 0 0 3.773-.328 476.42 476.42 0 0 0-.711-1.586 6.973 6.973 0 0 1-.384-.767l.656-.272c.401.729.948 1.842 1.642 3.336.035.109.072.201.108.272l-.708.275zm-4.867-10.281h5.142v.711h-5.142v-.711zm7.82-1.203h.711v2.898h3.609v.656c-.073 3.791-.146 6.162-.22 7.108-.072 1.349-.729 2.041-1.969 2.078h-1.694a4.964 4.964 0 0 0-.273-.875c.219 0 .528.019.93.056h.931c.838.034 1.275-.384 1.313-1.259.146-2.662.219-5.014.219-7.055h-2.897c0 .438-.02.893-.055 1.367 0 3.428-.984 6.125-2.953 8.094a3.086 3.086 0 0 0-.438-.328 1.99 1.99 0 0 1-.219-.164c1.858-1.75 2.807-4.303 2.844-7.655.036-.146.055-.365.055-.656a5.97 5.97 0 0 0 .056-.656h-2.133v-.711h2.133v-1.367c.033-.656.05-1.166.05-1.531zm9.461 9.351v1.203c.036 1.237-.401 2.149-1.313 2.733l-.384-.328c.803-.584 1.186-1.313 1.148-2.188h-.766v-1.422l1.315.002zm10.117-7.273h1.367a12.3 12.3 0 0 0 .272-1.039c.109-.438.183-.766.22-.983l.711.108a30.203 30.203 0 0 1-.492 1.914h2.461v.656h-2.68c-.184.766-.492 1.842-.931 3.227l-.164.492h1.531v-2.188h.656v2.188h1.258v.603h-1.258v2.461c.182-.037.438-.072.766-.109.328-.072.565-.108.711-.108-.037.108-.055.327-.055.655a8.195 8.195 0 0 0-1.422.22v2.897h-.656v-2.844c-.729.146-1.477.272-2.242.383l-.108-.711c.438-.037 1.13-.109 2.078-.219-.62.071-.529.055.272-.056v-2.569H125v-.656c.292-.838.655-2.061 1.094-3.664h-1.203l.002-.658zm12.797 2.352c-1.823-.875-3.208-2.006-4.156-3.392-.912 1.351-2.278 2.554-4.102 3.609a54.529 54.529 0 0 0-.492-.602c2.078-1.095 3.573-2.462 4.484-4.103l.766.109a10.19 10.19 0 0 0-.273.438 9.222 9.222 0 0 0 4.156 3.281 2.826 2.826 0 0 1-.164.273 1.52 1.52 0 0 0-.219.387zm-7.164 8.64h-.656v-7.711h3.392v6.344c.036.802-.383 1.222-1.258 1.258h-.82c0-.219-.037-.438-.109-.655h.82c.51.035.747-.201.711-.711v-1.478h-2.078l-.002 2.953zm0-7.055v1.422h2.078v-1.422h-2.078zm0 2.024v1.478h2.078v-1.478h-2.078zm.82-4.594h4.319v.656h-4.319v-.656zm5.305 1.695h.711v6.344c.036.947-.492 1.422-1.586 1.422h-1.039c0-.219-.037-.457-.108-.711.363.035.766.055 1.202.055.583.035.856-.256.82-.875v-6.235zm-2.022.711h.655v4.813h-.655v-4.813zm8.147-5.14l.547-.491c1.167.875 2.242 2.442 3.228 4.703 1.422 3.391 3.263 5.688 5.522 6.891-.219.291-.438.563-.656.82-2.261-1.531-4.083-3.955-5.469-7.273a2.336 2.336 0 0 0-.219-.438c-.037-.146-.164-.4-.383-.767-1.094 3.646-3.063 6.49-5.906 8.531-.219-.328-.419-.547-.602-.656 2.952-1.969 4.958-4.922 6.016-8.858-.62-1.058-1.311-1.878-2.078-2.462zm21.984.656c-.475 0-1.223.037-2.242.109a97.228 97.228 0 0 0-2.625.108v2.845h4.977v.655h-4.977v2.845h6.18v.711h-6.18v2.625c.036 1.057-.565 1.586-1.805 1.586h-2.023a5.603 5.603 0 0 0-.219-.82c.438.035 1.13.055 2.078.055.838.035 1.238-.293 1.203-.983V110.4h-6.234v-.711h6.234v-2.845h-5.25v-.655h5.25V103.4c-1.934.037-3.72.092-5.359.164a2.26 2.26 0 0 0-.109-.711c4.047-.072 7.692-.22 10.938-.438l.163.71zm2.352 7.984l-.164-.328a2.465 2.465 0 0 0-.219-.438c.984-1.313 1.75-3.045 2.297-5.194h-1.969v-.656h1.969v-2.68h.711v2.68h1.914v.656h-1.914v2.242l.383-.438a58.948 58.948 0 0 1 1.806 1.695l-.492.492c-.219-.22-.547-.529-.984-.931l-.711-.711v7.273h-.711v-8.203c-.513 2.008-1.149 3.52-1.916 4.541zm6.564-7.711v3.883c0 2.115-.164 3.646-.492 4.594-.292.947-.966 1.914-2.023 2.898a6.456 6.456 0 0 0-.655-.547c1.057-.949 1.73-1.843 2.022-2.681s.438-2.278.438-4.319v-4.539h4.594v10.28c0 .474.182.691.547.656h.273c.51 0 .783-.256.819-.766.109-.584.183-1.313.22-2.188.255.109.491.201.711.273-.037.983-.109 1.695-.22 2.133-.146.875-.62 1.293-1.422 1.258h-.492c-.802 0-1.202-.42-1.202-1.258v-9.68h-3.118v.003zm9.242 7.438l.875-2.405h-2.953v-.767h13.233v.767h-9.461l-.602 1.694h8.147a86.89 86.89 0 0 1-.164 1.914c-.037.291-.055.51-.055.656-.109 1.238-1.039 1.859-2.789 1.859-.875.034-1.805.055-2.789.055a11.896 11.896 0 0 0-.164-.875c.583.035 1.549.055 2.898.055 1.313.072 2.005-.348 2.078-1.258.035-.182.072-.475.108-.875s.056-.674.056-.82h-8.418zm.053-8.422h8.969v3.719h-8.969v-3.719zm.766.711v2.297h7.438v-2.297h-7.438zm11.431-.109h4.922v.655h-2.023a14.85 14.85 0 0 1-1.258 3.445h2.734v7.055h-.656v-.93h-2.023v1.094h-.711v-6.069a8.272 8.272 0 0 1-.547.766 4.83 4.83 0 0 0-.383.602c-.073-.182-.219-.399-.438-.655 1.276-1.679 2.134-3.445 2.57-5.306h-2.188v-.656h.001zm1.694 4.757v4.867h2.023v-4.867h-2.023zm3.5 3.172h5.414v.656h-5.414v-.656zm1.859-6.836l-.383 3.992h3.555l.492-4.813H200.8v-.711h5.905l-.602 5.523h1.477a83.418 83.418 0 0 1-.219 4.703c-.037 1.165-.692 1.75-1.969 1.75h-1.75c0-.074-.02-.185-.055-.328a1.708 1.708 0 0 0-.109-.384h1.805c.875 0 1.331-.364 1.367-1.094.109-1.313.164-2.625.164-3.938h-5.742l.438-4.703h.711v.003z" fill="#979797"/></svg>