<svg xmlns="http://www.w3.org/2000/svg" width="4535.43" height="5669.29" viewBox="0 0 4535.43 5669.29"><path fill="#3BB0DC" d="M2386.845 2296.61a.684.684 0 0 0-.959.12l-4.757 6.116v-23.568a.683.683 0 1 0-1.367 0v23.568l-4.757-6.116a.684.684 0 0 0-1.078.839l5.98 7.689c.008.01.02.013.029.023.02.024.041.045.064.065.011.009.015.022.027.031.012.009.027.005.04.014l.038.026c.021.013.038.031.061.041a.688.688 0 0 0 .28.064h.002a.66.66 0 0 0 .28-.064c.022-.01.039-.028.061-.041l.038-.026c.012-.008.028-.004.039-.014.011-.009.016-.022.027-.031a.784.784 0 0 0 .064-.065c.009-.01.021-.013.029-.023l5.98-7.689a.684.684 0 0 0-.121-.959zm0 191.748a.684.684 0 0 0-.959.12l-4.757 6.116v-23.568a.683.683 0 1 0-1.367 0v23.568l-4.757-6.116a.684.684 0 0 0-1.078.839l5.98 7.689c.008.01.02.013.029.023.02.024.041.045.064.065.011.009.015.022.027.031.012.009.027.005.04.014l.038.026c.021.013.038.031.061.041a.688.688 0 0 0 .28.064h.002a.66.66 0 0 0 .28-.064c.022-.01.039-.028.061-.041l.038-.026c.012-.008.028-.004.039-.014.011-.009.016-.022.027-.031a.784.784 0 0 0 .064-.065c.009-.01.021-.013.029-.023l5.98-7.689a.684.684 0 0 0-.121-.959zm217.509-111.815a.684.684 0 0 0 .12.959l6.116 4.757h-70.746a.683.683 0 1 0 0 1.367h70.746l-6.116 4.757a.684.684 0 0 0 .839 1.079l7.688-5.98c.01-.008.013-.02.023-.029a.656.656 0 0 0 .065-.064c.009-.011.022-.015.031-.027.009-.012.005-.027.014-.039l.026-.038c.013-.021.031-.039.041-.061a.688.688 0 0 0 .064-.28v-.002a.66.66 0 0 0-.064-.28c-.01-.022-.028-.04-.041-.061l-.026-.039c-.008-.012-.004-.028-.014-.039-.009-.011-.022-.016-.031-.027a.784.784 0 0 0-.065-.064c-.01-.009-.013-.021-.023-.029l-7.688-5.98a.685.685 0 0 0-.959.12z"/><path fill="#3BB0DC" d="M2539.16 2382.943v195.758a.683.683 0 1 0 1.366 0v-195.758m463.654 0v178.696a.683.683 0 1 0 1.367 0v-178.696m-315.047 91.926a.684.684 0 0 0-.959.12l-4.757 6.116v-23.568a.683.683 0 1 0-1.366 0v23.568l-4.758-6.116a.684.684 0 0 0-1.078.839l5.98 7.689c.008.01.02.013.029.023.02.024.041.045.064.065.011.009.015.022.027.031.012.009.028.005.04.014l.038.026c.021.013.038.031.061.041a.688.688 0 0 0 .28.064h.003a.66.66 0 0 0 .28-.064c.022-.01.039-.028.061-.041l.038-.026c.012-.008.028-.004.039-.014.011-.009.016-.022.027-.031a.784.784 0 0 0 .064-.065c.009-.01.021-.013.029-.023l5.98-7.689a.685.685 0 0 0-.122-.959z"/><path fill="#3FB2DF" d="M2381.182 2229.548c-.293-.003-.578-.002-.866-.007l.011-.754c.283.004.568.002.854.006.322 0 .644-.004.964-.01l.015.754a45.41 45.41 0 0 1-.978.011zm-2.709-.067a53.144 53.144 0 0 1-1.841-.125l.065-.751a49.39 49.39 0 0 0 1.813.123l-.037.753zm5.531-.012l-.041-.753a51.523 51.523 0 0 0 1.813-.131l.068.751c-.611.055-1.224.099-1.84.133zm-9.205-.303a50.155 50.155 0 0 1-1.827-.255l.117-.745c.597.094 1.197.178 1.8.251l-.09.749zm12.878-.029l-.094-.748a50.555 50.555 0 0 0 1.799-.259l.121.745c-.605.098-1.214.186-1.826.262zm-16.522-.546a51.078 51.078 0 0 1-1.804-.385l.17-.735c.589.136 1.182.263 1.778.379l-.144.741zm20.163-.044l-.148-.74a51.843 51.843 0 0 0 1.776-.387l.173.734c-.596.141-1.196.272-1.801.393zm-23.756-.79a48.623 48.623 0 0 1-1.773-.513l.223-.721c.578.179 1.16.347 1.746.506l-.196.728zm27.344-.06l-.199-.727a50.65 50.65 0 0 0 1.743-.513l.226.72c-.585.183-1.175.357-1.77.52zm-30.873-1.031a52.16 52.16 0 0 1-1.736-.64l.274-.703c.565.22 1.135.431 1.71.631l-.248.712zm34.393-.074l-.251-.711c.572-.202 1.14-.415 1.702-.636l.277.702a53.25 53.25 0 0 1-1.728.645zm-37.839-1.268a51.045 51.045 0 0 1-1.685-.763l.324-.681c.548.26 1.101.511 1.659.751l-.298.693zm41.266-.082l-.302-.692a49.016 49.016 0 0 0 1.648-.755l.327.68c-.552.266-1.11.521-1.673.767zm-44.606-1.503a50.749 50.749 0 0 1-1.624-.881l.371-.657a50.38 50.38 0 0 0 1.601.868l-.348.67zm47.924-.088l-.351-.668a52.073 52.073 0 0 0 1.592-.87l.374.655c-.533.303-1.071.597-1.615.883zm-51.14-1.731a52.562 52.562 0 0 1-1.557-.993l.417-.628a51.04 51.04 0 0 0 1.534.979l-.394.642zm54.337-.092l-.396-.642a52.853 52.853 0 0 0 1.527-.982l.419.627c-.51.342-1.026.674-1.55.997zm-57.413-1.949a53.616 53.616 0 0 1-1.482-1.101l.46-.597c.481.37.967.732 1.461 1.085l-.439.613zm60.476-.098l-.441-.611c.492-.355.977-.718 1.455-1.089l.463.595c-.486.377-.978.745-1.477 1.105zm-63.399-2.155c-.473-.393-.94-.794-1.399-1.203l.501-.563c.453.403.913.798 1.38 1.185l-.482.581zm66.311-.104l-.483-.579c.466-.388.924-.784 1.375-1.188l.504.562c-.459.409-.924.81-1.396 1.205zm-69.067-2.35a50.144 50.144 0 0 1-1.311-1.298l.54-.527c.423.434.854.86 1.292 1.279l-.521.546zm71.813-.111l-.523-.544c.437-.42.866-.848 1.288-1.283l.542.525c-.428.441-.864.875-1.307 1.302zm-74.386-2.53a51.745 51.745 0 0 1-1.216-1.387l.576-.487c.392.463.791.918 1.198 1.366l-.558.508zm76.952-.119l-.56-.505c.406-.45.804-.907 1.194-1.372l.577.485c-.395.471-.799.935-1.211 1.392zm-79.332-2.696a52.9 52.9 0 0 1-1.114-1.468l.609-.445c.358.489.724.971 1.098 1.447l-.593.466zm81.705-.13l-.594-.465c.373-.477.738-.962 1.094-1.453l.61.443c-.36.499-.731.99-1.11 1.475zm-83.88-2.845a50.998 50.998 0 0 1-1.006-1.543l.639-.401c.322.513.652 1.02.992 1.52l-.625.424zm86.049-.142l-.626-.422c.339-.502.669-1.011.989-1.527l.641.398a50.09 50.09 0 0 1-1.004 1.551zm-88.006-2.978a55.905 55.905 0 0 1-.894-1.609l.666-.355c.285.535.579 1.063.882 1.587l-.654.377zm89.958-.157l-.654-.375c.302-.526.595-1.058.878-1.595l.667.352a50.905 50.905 0 0 1-.891 1.618zm-91.688-3.092a49.612 49.612 0 0 1-.777-1.669l.689-.306c.246.554.501 1.102.765 1.644l-.677.331zm93.413-.176l-.68-.328c.263-.546.518-1.098.763-1.655l.691.304a55.493 55.493 0 0 1-.774 1.679zm-94.905-3.186a51.015 51.015 0 0 1-.658-1.724l.709-.256c.207.57.422 1.137.648 1.698l-.699.282zm96.392-.199l-.701-.279c.225-.564.439-1.132.643-1.705l.71.252c-.207.582-.425 1.16-.652 1.732zm-97.646-3.27a54.563 54.563 0 0 1-.533-1.766l.726-.205c.165.585.34 1.165.525 1.74l-.718.231zm98.887-.215l-.719-.228c.183-.576.355-1.157.517-1.742l.727.201c-.165.595-.34 1.184-.525 1.769zm-99.887-3.336a52.81 52.81 0 0 1-.405-1.8l.739-.152c.123.595.256 1.186.399 1.773l-.733.179zm100.872-.218l-.733-.175c.14-.588.271-1.18.391-1.776l.74.149a53.96 53.96 0 0 1-.398 1.802zm-101.617-3.394a51.657 51.657 0 0 1-.275-1.824l.748-.099c.08.603.171 1.202.271 1.797l-.744.126zm102.346-.222l-.744-.123c.098-.596.186-1.196.263-1.799l.748.096a49.52 49.52 0 0 1-.267 1.826zm-102.831-3.434a52.993 52.993 0 0 1-.145-1.839l.753-.046c.037.607.085 1.211.143 1.812l-.751.073zm103.301-.224l-.751-.07c.056-.602.101-1.206.135-1.812l.753.043c-.035.615-.08 1.228-.137 1.839zm-103.526-3.457a52.438 52.438 0 0 1 .014-3.22l.754.027a52.22 52.22 0 0 0-.014 3.173l-.754.02zm103.735-.225l-.754-.017a53.45 53.45 0 0 0 .008-1.818l.754-.011a49.04 49.04 0 0 1-.008 1.846zm-.802-3.652a49.447 49.447 0 0 0-.119-1.814l.752-.063c.051.61.091 1.224.121 1.84l-.754.037zm-102.07-1.132l-.753-.053c.043-.615.097-1.228.162-1.837l.75.08a54.052 54.052 0 0 0-.159 1.81zm101.768-2.49a50.637 50.637 0 0 0-.248-1.801l.746-.116c.094.606.177 1.214.251 1.827l-.749.09zm-101.386-1.125l-.746-.106c.086-.611.184-1.218.292-1.821l.742.133a52.767 52.767 0 0 0-.288 1.794zm100.828-2.466c-.115-.597-.24-1.19-.375-1.779l.735-.169c.137.598.264 1.199.381 1.804l-.741.144zm-100.188-1.112l-.737-.159c.13-.603.27-1.201.42-1.796l.731.185a50.495 50.495 0 0 0-.414 1.77zm99.373-2.431a49.174 49.174 0 0 0-.501-1.747l.721-.221c.18.586.35 1.177.509 1.773l-.729.195zm-98.481-1.092l-.724-.211c.173-.592.355-1.179.549-1.762l.716.238a48.447 48.447 0 0 0-.541 1.735zm97.417-2.383a51.766 51.766 0 0 0-.625-1.707l.703-.272c.221.573.433 1.15.635 1.733l-.713.246zm-96.273-1.072l-.707-.262c.215-.579.44-1.153.675-1.722l.697.288c-.231.56-.453 1.126-.665 1.696zm94.963-2.312a51.145 51.145 0 0 0-.743-1.654l.683-.321c.261.554.512 1.113.754 1.678l-.694.297zm-93.573-1.056l-.686-.312c.256-.562.521-1.118.797-1.669l.674.337a51.57 51.57 0 0 0-.785 1.644zm92.027-2.224a50.898 50.898 0 0 0-.859-1.597l.657-.369c.3.535.591 1.075.872 1.621l-.67.345zm-90.4-1.034l-.662-.36a50.73 50.73 0 0 1 .913-1.607l.649.385a50.03 50.03 0 0 0-.9 1.582zm88.625-2.13a52.85 52.85 0 0 0-.972-1.533l.63-.415c.337.512.666 1.031.986 1.555l-.644.393zm-86.77-1.002l-.635-.407c.333-.519.674-1.031 1.024-1.536l.621.429a50.393 50.393 0 0 0-1.01 1.514zm84.773-2.029c-.351-.494-.71-.981-1.078-1.462l.599-.458c.374.488.738.982 1.094 1.483l-.615.437zm-82.701-.962l-.604-.451c.367-.493.745-.98 1.13-1.459l.588.472c-.38.472-.751.951-1.114 1.438zm80.493-1.922a51.784 51.784 0 0 0-1.18-1.382l.565-.5c.407.46.806.928 1.197 1.402l-.582.48zm-78.216-.914l-.571-.493a53.37 53.37 0 0 1 1.23-1.375l.554.512c-.412.445-.817.897-1.213 1.356zm75.81-1.808a50.28 50.28 0 0 0-1.275-1.296l.529-.539c.439.431.87.869 1.293 1.315l-.547.52zm-73.339-.858l-.535-.532c.433-.436.874-.864 1.324-1.285l.515.551c-.442.415-.877.836-1.304 1.266zm70.744-1.688a53.8 53.8 0 0 0-1.364-1.204l.49-.574c.468.398.929.806 1.383 1.22l-.509.558zm-68.092-.797l-.496-.569c.463-.404.933-.799 1.41-1.187l.476.585c-.47.383-.934.773-1.39 1.171zm65.322-1.561a49.666 49.666 0 0 0-1.445-1.104l.447-.608c.496.365.985.739 1.468 1.121l-.47.591zm-62.502-.729l-.455-.603c.49-.369.987-.73 1.49-1.084l.433.618c-.496.348-.985.704-1.468 1.069zm59.574-1.427a51.03 51.03 0 0 0-1.521-.999l.403-.638c.521.329 1.035.667 1.543 1.014l-.425.623zm-56.601-.657l-.41-.633a54.433 54.433 0 0 1 1.562-.976l.388.647c-.519.312-1.033.633-1.54.962zm53.523-1.287a49.25 49.25 0 0 0-1.589-.889l.357-.665c.543.292 1.08.592 1.612.902l-.38.652zm-50.411-.58l-.365-.66a56.026 56.026 0 0 1 1.627-.862l.341.673c-.54.274-1.075.557-1.603.849zm47.203-1.14a48.541 48.541 0 0 0-1.649-.773l.308-.689a52.1 52.1 0 0 1 1.674.785l-.333.677zm-43.969-.5l-.317-.685a52.673 52.673 0 0 1 1.683-.743l.292.695c-.557.235-1.11.479-1.658.733zm40.644-.988a49.744 49.744 0 0 0-1.701-.654l.258-.709c.58.211 1.156.433 1.726.663l-.283.7zm-37.303-.417l-.267-.706a53.338 53.338 0 0 1 1.736-.623l.242.715c-.575.195-1.145.4-1.711.614zm33.877-.83a50.686 50.686 0 0 0-1.74-.529l.207-.725c.593.169 1.181.348 1.765.537l-.232.717zm-30.434-.335l-.216-.723c.588-.176 1.18-.342 1.776-.497l.19.73a48.61 48.61 0 0 0-1.75.49zm26.939-.659a49.53 49.53 0 0 0-1.773-.403l.154-.739c.603.126 1.203.263 1.799.409l-.18.733zm-23.422-.258l-.164-.736a53.495 53.495 0 0 1 1.807-.369l.138.741c-.598.111-1.191.232-1.781.364zm19.863-.484a50.441 50.441 0 0 0-1.796-.275l.101-.747c.611.082 1.219.176 1.823.279l-.128.743zm-16.289-.179l-.111-.746c.607-.091 1.216-.17 1.829-.24l.085.75c-.605.069-1.206.148-1.803.236zm12.687-.307a49.156 49.156 0 0 0-1.812-.147l.048-.753c.616.039 1.229.089 1.838.15l-.074.75zm-9.076-.099l-.058-.752a53.333 53.333 0 0 1 1.841-.109l.031.754c-.607.024-1.212.06-1.814.107zm5.449-.132c-.49-.014-.981-.02-1.474-.02l-.343.001-.006-.755.349-.001c.5 0 .999.008 1.496.021l-.022.754z"/><path fill="#EA8888" d="M2381.168 2216.302c-.219-.002-.434-.002-.65-.005l.009-.565c.212.003.426.001.64.005.242 0 .482-.003.723-.007l.011.565c-.244.004-.488.007-.733.007zm-2.032-.051a36.866 36.866 0 0 1-1.38-.094l.049-.563c.451.039.905.07 1.36.093l-.029.564zm4.148-.009l-.031-.564c.456-.025.909-.058 1.36-.098l.051.563a39.28 39.28 0 0 1-1.38.099zm-6.903-.227c-.459-.056-.916-.12-1.37-.191l.088-.559c.448.07.897.133 1.35.188l-.068.562zm9.657-.021l-.071-.561a37.42 37.42 0 0 0 1.349-.195l.091.559c-.454.073-.91.139-1.369.197zm-12.39-.41a40.068 40.068 0 0 1-1.353-.288l.127-.551c.442.102.886.197 1.333.284l-.107.555zm15.12-.033l-.111-.554a38.88 38.88 0 0 0 1.332-.29l.13.551a44.9 44.9 0 0 1-1.351.293zm-17.814-.592a35.46 35.46 0 0 1-1.329-.385l.167-.541c.434.134.87.26 1.31.379l-.148.547zm20.505-.045l-.149-.545c.439-.121.875-.249 1.307-.385l.17.54c-.439.137-.882.268-1.328.39zm-23.151-.773a42.2 42.2 0 0 1-1.302-.48l.206-.527c.424.165.851.323 1.282.473l-.186.534zm25.79-.056l-.188-.533a39.8 39.8 0 0 0 1.277-.477l.207.526c-.428.169-.86.331-1.296.484zm-28.375-.951a37.775 37.775 0 0 1-1.263-.572l.243-.511c.411.195.825.383 1.244.564l-.224.519zm30.945-.061l-.226-.519c.416-.182.828-.37 1.236-.566l.245.51c-.414.199-.832.39-1.255.575zm-33.449-1.127c-.41-.213-.817-.433-1.218-.66l.278-.493c.396.224.796.441 1.201.651l-.261.502zm35.937-.066l-.263-.501c.402-.211.8-.428 1.193-.653l.281.491c-.399.228-.802.449-1.211.663zm-38.348-1.298c-.394-.241-.783-.49-1.168-.745l.313-.471c.379.251.762.496 1.151.735l-.296.481zm40.746-.069l-.297-.481c.386-.239.768-.484 1.145-.737l.314.47c-.382.256-.769.506-1.162.748zm-43.053-1.462a37.593 37.593 0 0 1-1.111-.826l.345-.448c.361.278.726.549 1.095.814l-.329.46zm45.35-.073l-.331-.458a38.2 38.2 0 0 0 1.091-.816l.347.447c-.364.281-.733.557-1.107.827zm-47.542-1.616a40.896 40.896 0 0 1-1.05-.902l.376-.423c.34.302.684.599 1.035.889l-.361.436zm49.725-.079l-.363-.435c.349-.291.693-.588 1.031-.891l.378.421c-.343.309-.691.61-1.046.905zm-51.791-1.761a40.995 40.995 0 0 1-.983-.973l.405-.395c.317.325.64.645.969.959l-.391.409zm53.851-.084l-.393-.408a38.1 38.1 0 0 0 .966-.962l.406.394c-.321.331-.647.656-.979.976zm-55.781-1.897c-.31-.341-.614-.688-.912-1.04l.432-.365c.294.347.593.689.898 1.025l-.418.38zm57.705-.089l-.42-.379c.305-.337.603-.68.896-1.028l.433.364c-.297.352-.6.7-.909 1.043zm-59.49-2.022a38.81 38.81 0 0 1-.835-1.101l.456-.334c.269.367.543.728.823 1.085l-.444.35zm61.269-.097l-.445-.348c.28-.358.553-.721.821-1.089l.458.332c-.271.373-.549.741-.834 1.105zm-62.9-2.134c-.258-.381-.51-.766-.754-1.157l.479-.3c.241.385.489.765.744 1.14l-.469.317zm64.527-.106l-.469-.316c.254-.377.501-.759.742-1.146l.48.299c-.245.392-.496.78-.753 1.163zm-65.994-2.233c-.23-.398-.453-.8-.67-1.207l.499-.266c.214.401.434.798.661 1.19l-.49.283zm67.457-.118l-.49-.282c.227-.394.446-.793.658-1.196l.501.264c-.216.409-.439.813-.669 1.214zm-68.754-2.319c-.201-.413-.396-.83-.583-1.251l.517-.23c.184.416.375.826.574 1.233l-.508.248zm70.048-.132l-.51-.245c.198-.41.388-.823.572-1.241l.518.228c-.186.423-.38.842-.58 1.258zm-71.168-2.389a38.612 38.612 0 0 1-.493-1.292l.532-.192c.155.427.317.852.486 1.273l-.525.211zm72.283-.149l-.526-.209c.168-.423.329-.849.482-1.279l.533.189a38.1 38.1 0 0 1-.489 1.299zm-73.222-2.452c-.14-.438-.274-.879-.399-1.324l.544-.153c.124.438.255.873.394 1.305l-.539.172zm74.152-.161l-.539-.171c.137-.432.266-.868.388-1.306l.545.151a35.43 35.43 0 0 1-.394 1.326zm-74.903-2.502c-.109-.447-.21-.897-.303-1.35l.554-.114c.092.447.192.89.299 1.33l-.55.134zm75.643-.163l-.55-.132c.105-.441.203-.885.293-1.332l.555.112c-.092.453-.191.904-.298 1.352zm-76.201-2.546a40.569 40.569 0 0 1-.206-1.368l.561-.074c.06.452.128.901.203 1.348l-.558.094zm76.747-.166l-.558-.092c.073-.447.14-.897.197-1.349l.561.072c-.058.459-.125.915-.2 1.369zm-77.111-2.575a36.953 36.953 0 0 1-.109-1.379l.564-.035c.028.456.064.908.107 1.359l-.562.055zm77.463-.168l-.563-.053c.042-.451.076-.904.102-1.359l.564.032c-.026.462-.06.922-.103 1.38zm-77.632-2.593a39.34 39.34 0 0 1 .01-2.415l.565.02a38.512 38.512 0 0 0-.011 2.38l-.564.015zm77.789-.168l-.565-.013a40.1 40.1 0 0 0 .006-1.363l.565-.008a35.415 35.415 0 0 1-.006 1.384zm-.601-2.739a40.486 40.486 0 0 0-.089-1.36l.564-.048c.038.458.068.918.091 1.38l-.566.028zm-76.54-.849l-.564-.039c.032-.461.073-.921.121-1.378l.563.06c-.049.451-.089.903-.12 1.357zm76.314-1.867a37.501 37.501 0 0 0-.186-1.351l.559-.087c.071.454.133.911.189 1.37l-.562.068zm-76.028-.843l-.56-.079c.065-.458.138-.913.219-1.366l.557.1c-.08.445-.152.894-.216 1.345zm75.609-1.85a38.93 38.93 0 0 0-.281-1.334l.551-.127c.103.448.198.899.286 1.353l-.556.108zm-75.129-.833l-.553-.12c.097-.452.203-.901.315-1.347l.549.139c-.112.44-.216.883-.311 1.328zm74.518-1.823c-.117-.44-.243-.877-.375-1.311l.541-.165c.135.44.262.883.382 1.33l-.548.146zm-73.85-.819l-.543-.158c.129-.444.267-.884.411-1.322l.537.178a40.91 40.91 0 0 0-.405 1.302zm73.051-1.787c-.149-.43-.305-.857-.469-1.28l.527-.204c.166.429.325.862.476 1.299l-.534.185zm-72.192-.804l-.53-.197c.161-.434.33-.865.506-1.292l.522.216a39.96 39.96 0 0 0-.498 1.273zm71.211-1.734a40.696 40.696 0 0 0-.557-1.24l.512-.241c.195.415.384.835.566 1.258l-.521.223zm-70.169-.792l-.515-.234c.192-.421.391-.838.597-1.251l.506.253a44.87 44.87 0 0 0-.588 1.232zm69.009-1.667a37.191 37.191 0 0 0-.645-1.198l.493-.277c.225.401.443.807.654 1.216l-.502.259zm-67.788-.776l-.497-.27c.221-.406.449-.808.685-1.205l.487.288c-.233.392-.458.787-.675 1.187zm66.457-1.597a39.12 39.12 0 0 0-.729-1.15l.472-.311c.253.384.499.773.74 1.167l-.483.294zm-65.067-.752l-.476-.305c.249-.389.505-.773.768-1.152l.465.322c-.258.373-.511.752-.757 1.135zm63.57-1.521a34.761 34.761 0 0 0-.809-1.096l.449-.344c.28.366.554.737.821 1.112l-.461.328zm-62.017-.722l-.453-.338c.276-.37.559-.735.847-1.094l.441.354c-.284.354-.562.714-.835 1.078zm60.361-1.44a39.667 39.667 0 0 0-.885-1.037l.424-.374c.305.345.604.696.897 1.052l-.436.359zm-58.653-.686l-.428-.369c.302-.349.609-.693.922-1.031l.415.384c-.308.333-.611.672-.909 1.016zm56.848-1.356c-.313-.33-.632-.654-.956-.972l.396-.404c.329.323.652.652.97.986l-.41.39zm-54.995-.643l-.401-.399c.325-.326.656-.648.993-.963l.386.413c-.331.31-.657.627-.978.949zm53.05-1.266a38.136 38.136 0 0 0-1.023-.903l.367-.43c.351.299.697.604 1.037.915l-.381.418zm-51.061-.597l-.372-.426c.347-.302.7-.599 1.057-.89l.357.439c-.353.286-.7.578-1.042.877zm48.984-1.171a37.818 37.818 0 0 0-1.084-.828l.335-.456c.372.274.739.554 1.1.841l-.351.443zm-46.87-.547l-.341-.452c.367-.277.74-.548 1.117-.813l.325.463c-.371.262-.738.529-1.101.802zm44.674-1.07a39.288 39.288 0 0 0-1.141-.749l.302-.479c.39.247.776.5 1.157.76l-.318.468zm-42.444-.493l-.308-.474c.385-.25.776-.495 1.172-.732l.291.485c-.39.234-.775.475-1.155.721zm40.136-.964c-.393-.229-.79-.451-1.192-.667l.268-.498c.407.219.81.444 1.209.677l-.285.488zm-37.802-.435l-.274-.495a39.42 39.42 0 0 1 1.22-.646l.256.505c-.405.204-.806.417-1.202.636zm35.396-.856c-.408-.201-.82-.394-1.236-.58l.231-.517c.422.189.841.385 1.255.589l-.25.508zm-32.971-.374l-.238-.513c.417-.193.837-.379 1.262-.557l.219.521c-.418.175-.832.359-1.243.549zm30.478-.741a37.718 37.718 0 0 0-1.276-.49l.194-.532c.435.158.867.324 1.295.497l-.213.525zm-27.973-.313l-.2-.529c.43-.163.864-.318 1.302-.467l.181.536c-.431.146-.859.3-1.283.46zm25.404-.622c-.431-.14-.866-.272-1.304-.396l.155-.544c.444.126.885.26 1.324.402l-.175.538zm-22.822-.252l-.162-.542c.441-.132.884-.256 1.332-.373l.143.547c-.442.116-.879.238-1.313.368zm20.201-.493c-.44-.108-.884-.209-1.329-.302l.115-.554c.452.094.902.197 1.349.307l-.135.549zm-17.564-.194l-.123-.552c.449-.1.9-.192 1.355-.276l.103.556c-.447.082-.893.173-1.335.272zm14.895-.363a39.721 39.721 0 0 0-1.347-.206l.075-.561c.458.062.914.132 1.367.209l-.095.558zm-12.215-.134l-.083-.559a38.65 38.65 0 0 1 1.372-.179l.063.562c-.454.05-.904.109-1.352.176zm9.514-.23a38.223 38.223 0 0 0-1.358-.111l.036-.564c.462.029.921.067 1.378.113l-.056.562zm-6.806-.075l-.043-.564c.458-.035.918-.062 1.381-.082l.023.565a38.23 38.23 0 0 0-1.361.081zm4.086-.099c-.367-.01-.736-.015-1.105-.015l-.257.001-.005-.566.262-.001c.375 0 .749.006 1.122.016l-.017.565z"/><circle fill="#3FB2DF" cx="2372.633" cy="2139.419" r="1.711"/><circle fill="#EA8888" cx="2395.948" cy="2141.57" r="1.711"/><circle fill="#3FB2DF" cx="2351.496" cy="2202.537" r="1.711"/><circle fill="#C9EBF5" cx="2394.506" cy="2213.662" r="1.711"/><circle fill="#EA8888" cx="2384.313" cy="2215.946" r="1.711"/><circle fill-rule="evenodd" clip-rule="evenodd" fill="#FFF" stroke="#2C515A" stroke-width=".597" stroke-miterlimit="10" cx="2381.125" cy="2227.927" r="8.285"/><path fill="#3FB1DE" d="M2378.358 2231.36h7.293v-6.867h-7.293v1.534h-1.76v4.031h1.76v1.302z"/><circle fill-rule="evenodd" clip-rule="evenodd" fill="#FFF" stroke="#2C515A" stroke-width=".597" stroke-miterlimit="10" cx="2432.19" cy="2177.665" r="8.285"/><circle fill="#EA8888" cx="2432.189" cy="2177.645" r="4.979"/><path fill="#FFF" d="M2432.516 2177.645a.327.327 0 0 1-.654 0v-3.189a.326.326 0 1 1 .654 0v3.189z"/><path fill="#FFF" d="M2435.379 2177.318a.327.327 0 0 1 0 .654h-3.189a.327.327 0 0 1 0-.654h3.189z"/><circle fill-rule="evenodd" clip-rule="evenodd" fill="#FFF" stroke="#2C515A" stroke-width=".597" stroke-miterlimit="10" cx="2330.06" cy="2177.673" r="8.285"/><g fill="#3FB1DE"><path d="M2331.819 2174.933c1.772 0 3.666 1.437 3.666 3.208 0 1.157-.809 2.168-1.862 2.732l-.089.593-.148.99-.783-.624-.617-.491c-.056.003-.111.008-.167.008-1.772 0-3.666-1.437-3.666-3.209.001-1.771 1.894-3.207 3.666-3.207z"/><path d="M2327.395 2178.027c0-2.139 2.286-3.873 4.425-3.873.034 0 .068.004.101.005-.818-.63-1.854-1.017-2.861-1.017-2.139 0-4.425 1.734-4.425 3.873 0 1.396.976 2.616 2.248 3.298l.107.716.179 1.195.945-.753.744-.592.1.005c-.92-.709-1.563-1.725-1.563-2.857z"/></g><circle fill-rule="evenodd" clip-rule="evenodd" fill="#FFF" stroke="#2C515A" stroke-width=".597" stroke-miterlimit="10" cx="2381.125" cy="2125.797" r="8.285"/><path fill="#EA8888" d="M2385.178 2121.345h-7.08v4.958a2.18 2.18 0 0 0-.609-.087c-.927 0-1.679.564-1.679 1.26s.751 1.259 1.679 1.259 1.679-.564 1.679-1.259c0-.028-.003-.054-.005-.082h.01v-4.669h4.733v4.703a2.259 2.259 0 0 0-.381-.034c-.927 0-1.679.564-1.679 1.259s.752 1.259 1.679 1.259 1.679-.564 1.679-1.259v-7.309h-.026z"/><text transform="translate(2365.842 2259.776)" opacity=".6" font-family="'NotoSansHans-Light-GBpc-EUC-H'" font-size="14">主 播</text><text transform="translate(3158.313 2259.776)" opacity=".6" font-family="'NotoSansHans-Light-GBpc-EUC-H'" font-size="14">观 众</text><text transform="translate(2400.795 2489.464)" fill="#3BAFDC" font-family="'NotoSansHans-Regular-GBpc-EUC-H'" font-size="14.856">推 流</text><text transform="translate(2636.313 2475.386)" fill="#3BAFDC" font-family="'NotoSansHans-Regular-GBpc-EUC-H'" font-size="14.856">转 码</text><text transform="translate(2988.98 2619.637)" fill="#3BAFDC" font-family="'NotoSansHans-Regular-GBpc-EUC-H'" font-size="14.856">点播流</text><text transform="translate(2869.102 2475.386)" fill="#3BAFDC" font-family="'NotoSansHans-Regular-GBpc-EUC-H'" font-size="14.856">录 制</text><text transform="translate(2781.661 2294.464)" fill="#737474" font-family="'NotoSansHans-Regular-GBpc-EUC-H'" font-size="14.856">拉 流</text><text transform="translate(2741.087 2259.253)" opacity=".6" font-family="'NotoSansHans-Light-GBpc-EUC-H'" font-size="14">直播源站</text><path d="M2958.776 2647.012v3.87h-3.618m-27.249 0h-320.864m-23.625 0h-3.618v-3.87m0-7.895v-514.085m0-3.948v-3.87h3.618m7.25 0h360.864m3.624 0h3.618v3.87m0 254.249v267.731m0-514.085v203.688" fill="none" stroke="#3BAFDB" stroke-miterlimit="10" stroke-dasharray="11.919,11.919" opacity=".5"/><path fill="#737474" d="M2762.802 2281.413c.295.23.719.176.949-.118l4.708-6.052v23.941a.675.675 0 1 0 1.352 0v-23.941l4.708 6.052a.676.676 0 1 0 1.067-.831l-5.918-7.608c-.008-.01-.02-.013-.028-.023a.77.77 0 0 0-.063-.065c-.01-.009-.015-.022-.026-.031-.011-.009-.027-.005-.039-.013-.013-.009-.025-.018-.038-.025-.021-.013-.038-.031-.06-.041a.658.658 0 0 0-.277-.063h-.002a.662.662 0 0 0-.277.063c-.022.01-.039.028-.06.041l-.038.025c-.012.008-.028.004-.039.013s-.016.021-.026.031a.645.645 0 0 0-.063.065c-.009.01-.021.013-.028.023l-5.918 7.608a.674.674 0 0 0 .116.949zm405 5.102c.295.23.719.176.949-.118l4.708-6.052v23.941a.675.675 0 1 0 1.352 0v-23.941l4.708 6.052a.676.676 0 1 0 1.067-.831l-5.918-7.608c-.008-.01-.02-.013-.028-.023a.77.77 0 0 0-.063-.065c-.01-.009-.015-.022-.026-.031-.011-.009-.027-.005-.039-.013-.013-.009-.025-.018-.038-.025-.021-.013-.038-.031-.06-.04a.658.658 0 0 0-.277-.063h-.002a.662.662 0 0 0-.277.063c-.022.01-.039.028-.06.04l-.038.025c-.012.008-.028.004-.039.013s-.016.021-.026.031a.645.645 0 0 0-.063.065c-.009.01-.021.013-.028.023l-5.918 7.608a.674.674 0 0 0 .116.949zm0 192.057c.295.23.719.176.949-.118l4.708-6.052v23.941a.675.675 0 1 0 1.352 0v-23.941l4.708 6.052a.676.676 0 1 0 1.067-.831l-5.918-7.608c-.008-.01-.02-.013-.028-.023a.77.77 0 0 0-.063-.065c-.01-.009-.015-.022-.026-.031-.011-.009-.027-.005-.039-.013-.013-.009-.025-.018-.038-.025-.021-.013-.038-.031-.06-.04a.658.658 0 0 0-.277-.063h-.002a.662.662 0 0 0-.277.063c-.022.01-.039.028-.06.04l-.038.025c-.012.008-.028.004-.039.013s-.016.021-.026.031a.645.645 0 0 0-.063.065c-.009.01-.021.013-.028.023l-5.918 7.608a.674.674 0 0 0 .116.949zm-478.034-13.239c.295.23.719.176.949-.118l4.708-6.052v23.941a.676.676 0 1 0 1.352 0v-23.941l4.708 6.052a.676.676 0 1 0 1.067-.831l-5.917-7.608c-.008-.01-.02-.013-.028-.023a.77.77 0 0 0-.063-.065c-.011-.009-.015-.022-.026-.031-.012-.009-.027-.005-.039-.013-.013-.009-.025-.018-.038-.025-.021-.013-.038-.031-.06-.04a.658.658 0 0 0-.277-.063h-.002a.662.662 0 0 0-.277.063c-.022.01-.039.028-.06.04l-.038.025c-.012.008-.027.004-.039.013-.011.009-.016.021-.026.031a.645.645 0 0 0-.063.065c-.009.01-.021.013-.029.023l-5.917 7.608a.671.671 0 0 0 .115.949z"/><path fill="#3BB0DC" d="M2848.937 2474.869a.684.684 0 0 0-.959.12l-4.757 6.116v-23.568a.684.684 0 1 0-1.367 0v23.568l-4.757-6.116a.684.684 0 0 0-1.079.839l5.98 7.689c.008.01.02.013.029.023a.656.656 0 0 0 .064.065c.011.009.015.022.027.031.012.009.027.005.039.014l.038.026c.021.013.039.031.061.041a.688.688 0 0 0 .28.064h.002a.66.66 0 0 0 .28-.064c.022-.01.04-.028.061-.041l.038-.026c.012-.008.028-.004.039-.014.011-.009.016-.022.027-.031a.784.784 0 0 0 .064-.065c.009-.01.021-.013.029-.023l5.98-7.689a.682.682 0 0 0-.119-.959z"/><path fill="#737474" d="M2848.204 2465.333c.295.23.719.176.949-.118l4.708-6.052v23.941a.676.676 0 1 0 1.352 0v-23.941l4.708 6.052a.676.676 0 1 0 1.067-.831l-5.917-7.608c-.008-.01-.02-.013-.028-.023a.77.77 0 0 0-.063-.065c-.01-.009-.015-.022-.026-.031-.011-.009-.027-.005-.039-.013-.013-.009-.025-.018-.038-.025-.021-.013-.038-.031-.06-.04a.658.658 0 0 0-.277-.063h-.002a.662.662 0 0 0-.277.063c-.022.01-.039.028-.06.04l-.038.025c-.012.008-.028.004-.039.013s-.016.021-.026.031a.645.645 0 0 0-.063.065c-.009.01-.021.013-.028.023l-5.918 7.608a.673.673 0 0 0 .115.949z"/><g fill="none" stroke="#737474" stroke-miterlimit="10" opacity=".4"><path d="M2490.366 2460.868v.669h-1.023"/><path stroke-dasharray="1.6576,1.6576" d="M2487.294 2461.537h-213.697"/><path d="M2272.572 2461.537h-1.022v-.669"/><path stroke-dasharray="1.6874,1.6874" d="M2271.55 2459.503v-138.452"/><path d="M2271.55 2320.369v-.669h1.022"/><path stroke-dasharray="1.6576,1.6576" d="M2274.622 2319.7h213.697"/><path d="M2489.343 2319.7h1.023v.669"/><path stroke-dasharray="1.6874,1.6874" d="M2490.366 2321.734v138.452"/></g><text transform="translate(2345.296 2345.776)" opacity=".6" font-family="'NotoSansHans-Light-GBpc-EUC-H'" font-size="14">推流端 SDK</text><g fill="none" stroke="#737474" stroke-miterlimit="10" opacity=".4"><path d="M3283.544 2460.868v.669h-1.023"/><path stroke-dasharray="1.6576,1.6576" d="M3280.471 2461.537h-213.696"/><path d="M3065.75 2461.537h-1.023v-.669"/><path stroke-dasharray="1.6874,1.6874" d="M3064.727 2459.503v-138.452"/><path d="M3064.727 2320.369v-.669h1.023"/><path stroke-dasharray="1.6576,1.6576" d="M3067.799 2319.7h213.697"/><path d="M3282.521 2319.7h1.023v.669"/><path stroke-dasharray="1.6874,1.6874" d="M3283.544 2321.734v138.452"/></g><text transform="translate(3138.187 2345.776)" opacity=".6" font-family="'NotoSansHans-Light-GBpc-EUC-H'" font-size="14">播放器 SDK</text><text transform="translate(2331.95 2533.86)" opacity=".6" font-family="'NotoSansHans-Light-GBpc-EUC-H'" font-size="14">分布式推流节点</text><g fill="none" stroke="#737474" stroke-miterlimit="10" opacity=".4"><path d="M2490.366 2648.952v.669h-1.023"/><path stroke-dasharray="1.6576,1.6576" d="M2487.294 2649.621h-213.697"/><path d="M2272.572 2649.621h-1.022v-.669"/><path stroke-dasharray="1.6874,1.6874" d="M2271.55 2647.587v-138.452"/><path d="M2271.55 2508.453v-.67h1.022"/><path stroke-dasharray="1.6576,1.6576" d="M2274.622 2507.783h213.697"/><path d="M2489.343 2507.783h1.023v.67"/><path stroke-dasharray="1.6874,1.6874" d="M2490.366 2509.817v138.453"/></g><path fill-rule="evenodd" clip-rule="evenodd" fill="none" stroke="#C9EBF5" stroke-miterlimit="10" stroke-dasharray="1.72,0.86" d="M2421.382 2571.155c-3.313 0-6.508.503-9.519 1.423-1.803-15.295-14.792-27.167-30.573-27.167-15.539 0-28.354 11.515-30.468 26.47a14.727 14.727 0 0 0-4.561-.726c-8.157 0-14.77 6.613-14.77 14.771 0 .428.028.849.063 1.269-.021 0-.042-.004-.042-.004-13.54 0-24.499 10.959-24.499 24.478 0 13.519 10.959 24.478 24.478 24.478h92.001v-.106c16.959-1.093 30.386-15.155 30.386-32.39 0-17.948-14.549-32.496-32.496-32.496z"/><g stroke-miterlimit="10"><ellipse fill="#3BAFDC" stroke="#040000" cx="2329.649" cy="2589.83" rx="5.131" ry=".948"/><g stroke="#0B0C0C"><path fill="#EA8888" d="M2337.528 2576.651c0 4.303-7.885 12.967-7.885 12.967s-7.873-8.664-7.873-12.967v-.285a7.793 7.793 0 0 1 7.792-7.792h.174a7.793 7.793 0 0 1 7.792 7.792v.285z"/><circle fill="#FFF" cx="2329.649" cy="2575.282" r="3.301"/></g></g><g stroke-miterlimit="10"><ellipse fill="#3BAFDC" stroke="#040000" cx="2329.649" cy="2628.281" rx="5.131" ry=".948"/><g stroke="#0B0C0C"><path fill="#EA8888" d="M2337.528 2615.102c0 4.303-7.885 12.967-7.885 12.967s-7.873-8.664-7.873-12.967v-.285a7.793 7.793 0 0 1 7.792-7.792h.174a7.793 7.793 0 0 1 7.792 7.792v.285z"/><circle fill="#FFF" cx="2329.649" cy="2613.733" r="3.301"/></g></g><g stroke-miterlimit="10"><ellipse fill="#3BAFDC" stroke="#040000" cx="2431.189" cy="2589.83" rx="5.132" ry=".948"/><g stroke="#0B0C0C"><path fill="#EA8888" d="M2439.068 2576.651c0 4.303-7.885 12.967-7.885 12.967s-7.873-8.664-7.873-12.967v-.285a7.792 7.792 0 0 1 7.792-7.792h.174a7.793 7.793 0 0 1 7.792 7.792v.285z"/><circle fill="#FFF" cx="2431.189" cy="2575.282" r="3.301"/></g></g><g stroke-miterlimit="10"><ellipse fill="#3BAFDC" stroke="#040000" cx="2431.189" cy="2628.281" rx="5.132" ry=".948"/><g stroke="#0B0C0C"><path fill="#EA8888" d="M2439.068 2615.102c0 4.303-7.885 12.967-7.885 12.967s-7.873-8.664-7.873-12.967v-.285a7.792 7.792 0 0 1 7.792-7.792h.174a7.793 7.793 0 0 1 7.792 7.792v.285z"/><circle fill="#FFF" cx="2431.189" cy="2613.733" r="3.301"/></g></g><g stroke-miterlimit="10"><ellipse fill="#3BAFDC" stroke="#040000" cx="2380.621" cy="2606.585" rx="5.132" ry=".948"/><g stroke="#0B0C0C"><path fill="#EA8888" d="M2388.5 2593.406c0 4.303-7.885 12.967-7.885 12.967s-7.873-8.663-7.873-12.967v-.285a7.793 7.793 0 0 1 7.792-7.792h.174a7.792 7.792 0 0 1 7.792 7.792v.285z"/><circle fill="#FFF" cx="2380.621" cy="2592.037" r="3.301"/></g></g><g fill="none" stroke-miterlimit="10"><path stroke="#FFF" d="M2390.704 2596.275l.748-.487"/><path stroke="#3BAFDC" stroke-dasharray="2.3288,1.1644" d="M2393.001 2594.781l24.918-8.622"/><path stroke="#FFF" d="M2418.693 2585.655l.748-.486"/></g><g fill="none" stroke-miterlimit="10"><path stroke="#FFF" d="M2390.704 2596.275l.732.509"/><path stroke="#3BAFDC" stroke-dasharray="2.3288,1.1644" d="M2392.989 2597.865l23.691 12.579"/><path stroke="#FFF" d="M2417.457 2610.984l.732.51"/></g><g fill="none" stroke-miterlimit="10"><path stroke="#FFF" d="M2369.096 2596.275l-.764-.459"/><path stroke="#3BAFDC" stroke-dasharray="2.3288,1.1644" d="M2366.642 2594.802l-21.942-8.667"/><path stroke="#FFF" d="M2343.855 2585.628l-.765-.459"/></g><g fill="none" stroke-miterlimit="10"><path stroke="#FFF" d="M2419.211 2580.739l-.892-.001"/><path stroke="#3BAFDC" stroke-dasharray="2.3288,1.1644" d="M2416.55 2580.738l-71.767-.01"/><path stroke="#FFF" d="M2343.898 2580.727h-.891"/></g><g fill="none" stroke-miterlimit="10"><path stroke="#FFF" d="M2418.411 2617.039h-.891"/><path stroke="#3BAFDC" stroke-dasharray="2.3288,1.1644" d="M2415.751 2617.039l-70.611-.011"/><path stroke="#FFF" d="M2344.256 2617.028h-.892"/></g><g fill="none" stroke-miterlimit="10"><path stroke="#FFF" d="M2369.096 2596.275l-.748.484"/><path stroke="#3BAFDC" stroke-dasharray="2.3288,1.1644" d="M2366.9 2597.694l-21.905 12.65"/><path stroke="#FFF" d="M2343.042 2611.606l-.749.485"/></g><circle fill-rule="evenodd" clip-rule="evenodd" fill="#3BAFDC" cx="2369.096" cy="2596.347" r="1.062"/><circle fill-rule="evenodd" clip-rule="evenodd" fill="#FFF" cx="2390.704" cy="2596.275" r="1.062"/><circle fill-rule="evenodd" clip-rule="evenodd" fill="#3BAFDC" cx="2343.09" cy="2585.169" r="1.062"/><circle fill-rule="evenodd" clip-rule="evenodd" fill="#3BAFDC" cx="2343.007" cy="2580.739" r="1.062"/><circle fill-rule="evenodd" clip-rule="evenodd" fill="#3BAFDC" cx="2343.364" cy="2617.028" r="1.062"/><circle fill-rule="evenodd" clip-rule="evenodd" fill="#3BAFDC" cx="2419.211" cy="2580.739" r="1.062"/><circle fill-rule="evenodd" clip-rule="evenodd" fill="#3BAFDC" cx="2418.411" cy="2617.028" r="1.062"/><circle fill-rule="evenodd" clip-rule="evenodd" fill="#3BAFDC" cx="2342.972" cy="2611.582" r="1.062"/><circle fill-rule="evenodd" clip-rule="evenodd" fill="#3BAFDC" cx="2419.441" cy="2585.169" r="1.062"/><circle fill-rule="evenodd" clip-rule="evenodd" fill="#3BAFDC" cx="2418.189" cy="2611.494" r="1.062"/><text transform="translate(3125.18 2533.86)" opacity=".6" font-family="'NotoSansHans-Light-GBpc-EUC-H'" font-size="14">分布式推流节点</text><g fill="none" stroke="#737474" stroke-miterlimit="10" opacity=".4"><path d="M3283.544 2648.952v.669h-1.023"/><path stroke-dasharray="1.6576,1.6576" d="M3280.471 2649.621h-213.696"/><path d="M3065.75 2649.621h-1.023v-.669"/><path stroke-dasharray="1.6874,1.6874" d="M3064.727 2647.587v-138.452"/><path d="M3064.727 2508.453v-.67h1.023"/><path stroke-dasharray="1.6576,1.6576" d="M3067.799 2507.783h213.697"/><path d="M3282.521 2507.783h1.023v.67"/><path stroke-dasharray="1.6874,1.6874" d="M3283.544 2509.817v138.453"/></g><path fill-rule="evenodd" clip-rule="evenodd" fill="none" stroke="#C9EBF5" stroke-miterlimit="10" stroke-dasharray="1.72,0.86" d="M3214.559 2571.155c-3.313 0-6.508.503-9.519 1.423-1.804-15.295-14.792-27.167-30.573-27.167-15.539 0-28.354 11.515-30.468 26.47a14.727 14.727 0 0 0-4.561-.726c-8.157 0-14.77 6.613-14.77 14.771 0 .428.028.849.063 1.269-.021 0-.042-.004-.042-.004-13.54 0-24.499 10.959-24.499 24.478 0 13.519 10.958 24.478 24.478 24.478h92.001v-.106c16.959-1.093 30.386-15.155 30.386-32.39 0-17.948-14.549-32.496-32.496-32.496z"/><g stroke-miterlimit="10"><ellipse fill="#3BAFDC" stroke="#040000" cx="3122.826" cy="2589.83" rx="5.131" ry=".948"/><g stroke="#0B0C0C"><path fill="#EA8888" d="M3130.705 2576.651c0 4.303-7.885 12.967-7.885 12.967s-7.873-8.664-7.873-12.967v-.285a7.793 7.793 0 0 1 7.792-7.792h.174a7.793 7.793 0 0 1 7.792 7.792v.285z"/><circle fill="#FFF" cx="3122.826" cy="2575.282" r="3.301"/></g></g><g stroke-miterlimit="10"><ellipse fill="#3BAFDC" stroke="#040000" cx="3122.826" cy="2628.281" rx="5.131" ry=".948"/><g stroke="#0B0C0C"><path fill="#EA8888" d="M3130.705 2615.102c0 4.303-7.885 12.967-7.885 12.967s-7.873-8.664-7.873-12.967v-.285a7.793 7.793 0 0 1 7.792-7.792h.174a7.793 7.793 0 0 1 7.792 7.792v.285z"/><circle fill="#FFF" cx="3122.826" cy="2613.733" r="3.301"/></g></g><g stroke-miterlimit="10"><ellipse fill="#3BAFDC" stroke="#040000" cx="3224.367" cy="2589.83" rx="5.132" ry=".948"/><g stroke="#0B0C0C"><path fill="#EA8888" d="M3232.245 2576.651c0 4.303-7.885 12.967-7.885 12.967s-7.873-8.664-7.873-12.967v-.285a7.793 7.793 0 0 1 7.792-7.792h.174a7.793 7.793 0 0 1 7.792 7.792v.285z"/><circle fill="#FFF" cx="3224.367" cy="2575.282" r="3.301"/></g></g><g stroke-miterlimit="10"><ellipse fill="#3BAFDC" stroke="#040000" cx="3224.367" cy="2628.281" rx="5.132" ry=".948"/><g stroke="#0B0C0C"><path fill="#EA8888" d="M3232.245 2615.102c0 4.303-7.885 12.967-7.885 12.967s-7.873-8.664-7.873-12.967v-.285a7.793 7.793 0 0 1 7.792-7.792h.174a7.793 7.793 0 0 1 7.792 7.792v.285z"/><circle fill="#FFF" cx="3224.367" cy="2613.733" r="3.301"/></g></g><g stroke-miterlimit="10"><ellipse fill="#3BAFDC" stroke="#040000" cx="3173.799" cy="2606.585" rx="5.132" ry=".948"/><g stroke="#0B0C0C"><path fill="#EA8888" d="M3181.677 2593.406c0 4.303-7.885 12.967-7.885 12.967s-7.873-8.663-7.873-12.967v-.285a7.793 7.793 0 0 1 7.792-7.792h.174a7.792 7.792 0 0 1 7.792 7.792v.285z"/><circle fill="#FFF" cx="3173.799" cy="2592.037" r="3.301"/></g></g><g fill="none" stroke-miterlimit="10"><path stroke="#FFF" d="M3183.882 2596.275l.747-.487"/><path stroke="#3BAFDC" stroke-dasharray="2.3288,1.1644" d="M3186.178 2594.781l24.918-8.622"/><path stroke="#FFF" d="M3211.871 2585.655l.747-.486"/></g><g fill="none" stroke-miterlimit="10"><path stroke="#FFF" d="M3183.882 2596.275l.732.509"/><path stroke="#3BAFDC" stroke-dasharray="2.3288,1.1644" d="M3186.166 2597.865l23.692 12.579"/><path stroke="#FFF" d="M3210.635 2610.984l.731.51"/></g><g fill="none" stroke-miterlimit="10"><path stroke="#FFF" d="M3162.274 2596.275l-.765-.459"/><path stroke="#3BAFDC" stroke-dasharray="2.3288,1.1644" d="M3159.819 2594.802l-21.942-8.667"/><path stroke="#FFF" d="M3137.032 2585.628l-.764-.459"/></g><g fill="none" stroke-miterlimit="10"><path stroke="#FFF" d="M3212.388 2580.739l-.891-.001"/><path stroke="#3BAFDC" stroke-dasharray="2.3288,1.1644" d="M3209.728 2580.738l-71.767-.01"/><path stroke="#FFF" d="M3137.076 2580.727h-.891"/></g><g fill="none" stroke-miterlimit="10"><path stroke="#FFF" d="M3211.589 2617.039h-.892"/><path stroke="#3BAFDC" stroke-dasharray="2.3288,1.1644" d="M3208.928 2617.039l-70.61-.011"/><path stroke="#FFF" d="M3137.433 2617.028h-.891"/></g><g fill="none" stroke-miterlimit="10"><path stroke="#FFF" d="M3162.274 2596.275l-.749.484"/><path stroke="#3BAFDC" stroke-dasharray="2.3288,1.1644" d="M3160.078 2597.694l-21.905 12.65"/><path stroke="#FFF" d="M3136.219 2611.606l-.748.485"/></g><circle fill-rule="evenodd" clip-rule="evenodd" fill="#3BAFDC" cx="3162.274" cy="2596.347" r="1.062"/><circle fill-rule="evenodd" clip-rule="evenodd" fill="#FFF" cx="3183.882" cy="2596.275" r="1.062"/><circle fill-rule="evenodd" clip-rule="evenodd" fill="#3BAFDC" cx="3136.268" cy="2585.169" r="1.062"/><circle fill-rule="evenodd" clip-rule="evenodd" fill="#3BAFDC" cx="3136.184" cy="2580.739" r="1.062"/><circle fill-rule="evenodd" clip-rule="evenodd" fill="#3BAFDC" cx="3136.542" cy="2617.028" r="1.062"/><circle fill-rule="evenodd" clip-rule="evenodd" fill="#3BAFDC" cx="3212.388" cy="2580.739" r="1.062"/><circle fill-rule="evenodd" clip-rule="evenodd" fill="#3BAFDC" cx="3211.589" cy="2617.028" r="1.062"/><circle fill-rule="evenodd" clip-rule="evenodd" fill="#3BAFDC" cx="3136.15" cy="2611.582" r="1.062"/><circle fill-rule="evenodd" clip-rule="evenodd" fill="#3BAFDC" cx="3212.618" cy="2585.169" r="1.062"/><circle fill-rule="evenodd" clip-rule="evenodd" fill="#3BAFDC" cx="3211.366" cy="2611.494" r="1.062"/><text transform="translate(2725.23 2334.422)" opacity=".6" font-family="'NotoSansHans-Light-GBpc-EUC-H'" font-size="14">直播云服务端</text><g fill="none" stroke="#737474" stroke-miterlimit="10" opacity=".4"><path d="M2918.655 2449.05v.669h-1.023"/><path stroke-dasharray="1.6576,1.6576" d="M2915.583 2449.719h-293.697"/><path d="M2620.861 2449.719h-1.023v-.669"/><path stroke-dasharray="1.6874,1.6874" d="M2619.838 2447.685v-138.452"/><path d="M2619.838 2308.551v-.669h1.023"/><path stroke-dasharray="1.6576,1.6576" d="M2622.911 2307.882h293.696"/><path d="M2917.632 2307.882h1.023v.669"/><path stroke-dasharray="1.6874,1.6874" d="M2918.655 2309.916v138.452"/></g><path fill="#C1ECF5" d="M2696.172 2371.351h20.525v50.302h-20.525z"/><path fill="#21525B" d="M2717.005 2421.961h-21.142v-50.919h21.142v50.919zm-20.524-.617h19.908v-49.685h-19.908v49.685z"/><circle fill="#FFF" cx="2706.655" cy="2383.569" r="6.898"/><circle fill="#FFF" cx="2706.655" cy="2383.569" r="4.46"/><path fill="#21525B" d="M2706.655 2388.338a4.775 4.775 0 0 1-4.769-4.769 4.774 4.774 0 0 1 4.769-4.769 4.775 4.775 0 0 1 4.769 4.769 4.775 4.775 0 0 1-4.769 4.769zm0-8.921a4.157 4.157 0 0 0-4.152 4.152 4.157 4.157 0 0 0 4.152 4.152 4.157 4.157 0 0 0 4.152-4.152 4.157 4.157 0 0 0-4.152-4.152zm-3.955 27.937h6.984v.617h-6.984zm0 2.906h6.984v.617h-6.984zm0 3.102h6.984v.617h-6.984z"/><path fill="#C1ECF5" d="M2668.675 2371.351h20.525v50.302h-20.525z"/><path fill="#21525B" d="M2689.509 2421.961h-21.142v-50.919h21.142v50.919zm-20.525-.617h19.908v-49.686h-19.908v49.686z"/><circle fill="#FFF" cx="2679.158" cy="2383.569" r="6.898"/><circle fill="#FFF" cx="2679.158" cy="2383.569" r="4.46"/><path fill="#21525B" d="M2679.158 2388.338c-2.629 0-4.769-2.139-4.769-4.769s2.139-4.769 4.769-4.769 4.769 2.139 4.769 4.769-2.14 4.769-4.769 4.769zm0-8.921c-2.289 0-4.152 1.863-4.152 4.152s1.863 4.152 4.152 4.152 4.152-1.863 4.152-4.152-1.863-4.152-4.152-4.152zm-3.955 27.937h6.984v.617h-6.984zm0 2.906h6.984v.617h-6.984zm0 3.102h6.984v.617h-6.984z"/><path fill="#C1ECF5" d="M2681.877 2367.542h21.847v57.918h-21.847z"/><path fill="#21525B" d="M2704.052 2425.79h-22.503v-58.575h22.503v58.575zm-21.847-.657h21.19v-57.262h-21.19v57.262z"/><circle fill="#FFF" cx="2693.035" cy="2381.423" r="7.342"/><circle fill="#FFF" cx="2693.035" cy="2381.423" r="4.747"/><path fill="#21525B" d="M2693.035 2386.499c-2.799 0-5.076-2.277-5.076-5.076s2.277-5.076 5.076-5.076c2.799 0 5.076 2.277 5.076 5.076s-2.277 5.076-5.076 5.076zm0-9.495c-2.437 0-4.419 1.982-4.419 4.419s1.983 4.419 4.419 4.419c2.437 0 4.419-1.983 4.419-4.419s-1.982-4.419-4.419-4.419zm-4.21 33.238h7.434v.656h-7.434zm0 3.092h7.434v.656h-7.434zm0 3.302h7.434v.656h-7.434z"/><path fill="#C1ECF5" d="M2695.013 2550.131h20.525v50.302h-20.525z"/><path fill="#21525B" d="M2715.846 2600.741h-21.142v-50.919h21.142v50.919zm-20.525-.616h19.908v-49.686h-19.908v49.686z"/><circle fill="#FFF" cx="2705.496" cy="2562.349" r="6.898"/><circle fill="#FFF" cx="2705.496" cy="2562.349" r="4.46"/><path fill="#21525B" d="M2705.496 2567.118c-2.629 0-4.769-2.139-4.769-4.769s2.139-4.769 4.769-4.769c2.629 0 4.769 2.139 4.769 4.769s-2.14 4.769-4.769 4.769zm0-8.921c-2.289 0-4.152 1.863-4.152 4.152s1.863 4.152 4.152 4.152 4.152-1.863 4.152-4.152-1.863-4.152-4.152-4.152zm-3.956 27.938h6.984v.617h-6.984zm0 2.905h6.984v.617h-6.984zm0 3.102h6.984v.617h-6.984z"/><path fill="#C1ECF5" d="M2667.516 2550.131h20.525v50.302h-20.525z"/><path fill="#21525B" d="M2688.349 2600.741h-21.142v-50.919h21.142v50.919zm-20.525-.616h19.908v-49.685h-19.908v49.685z"/><circle fill="#FFF" cx="2677.999" cy="2562.349" r="6.898"/><circle fill="#FFF" cx="2677.999" cy="2562.349" r="4.46"/><path fill="#21525B" d="M2677.999 2567.118a4.775 4.775 0 0 1-4.769-4.769 4.774 4.774 0 0 1 4.769-4.769 4.775 4.775 0 0 1 4.769 4.769 4.775 4.775 0 0 1-4.769 4.769zm0-8.921a4.157 4.157 0 0 0-4.152 4.152 4.157 4.157 0 0 0 4.152 4.152 4.157 4.157 0 0 0 4.152-4.152 4.157 4.157 0 0 0-4.152-4.152zm-3.956 27.937h6.984v.617h-6.984zm0 2.906h6.984v.617h-6.984zm0 3.102h6.984v.617h-6.984z"/><path fill="#C1ECF5" d="M2680.718 2546.323h21.847v57.918h-21.847z"/><path fill="#21525B" d="M2702.893 2604.57h-22.503v-58.575h22.503v58.575zm-21.847-.657h21.19v-57.262h-21.19v57.262z"/><circle fill="#FFF" cx="2691.876" cy="2560.203" r="7.342"/><circle fill="#FFF" cx="2691.876" cy="2560.203" r="4.747"/><path fill="#21525B" d="M2691.875 2565.279a5.082 5.082 0 0 1-5.076-5.076c0-2.799 2.277-5.076 5.076-5.076s5.076 2.277 5.076 5.076a5.082 5.082 0 0 1-5.076 5.076zm0-9.495a4.424 4.424 0 0 0-4.419 4.419 4.424 4.424 0 0 0 4.419 4.419 4.424 4.424 0 0 0 4.419-4.419 4.423 4.423 0 0 0-4.419-4.419zm-4.21 33.238h7.434v.656h-7.434zm0 3.093h7.434v.656h-7.434zm0 3.301h7.434v.656h-7.434z"/><path fill="#C1ECF5" d="M2774.588 2371.351h20.525v50.302h-20.525z"/><path fill="#21525B" d="M2795.421 2421.961h-21.142v-50.919h21.142v50.919zm-20.525-.617h19.908v-49.685h-19.908v49.685z"/><circle fill="#FFF" cx="2785.071" cy="2383.569" r="6.898"/><circle fill="#FFF" cx="2785.071" cy="2383.569" r="4.46"/><path fill="#21525B" d="M2785.071 2388.338a4.775 4.775 0 0 1-4.769-4.769 4.774 4.774 0 0 1 4.769-4.769 4.775 4.775 0 0 1 4.769 4.769 4.776 4.776 0 0 1-4.769 4.769zm0-8.921a4.157 4.157 0 0 0-4.152 4.152 4.157 4.157 0 0 0 4.152 4.152 4.157 4.157 0 0 0 4.152-4.152 4.158 4.158 0 0 0-4.152-4.152zm-3.956 27.937h6.984v.617h-6.984zm0 2.906h6.984v.617h-6.984zm0 3.102h6.984v.617h-6.984z"/><path fill="#C1ECF5" d="M2747.091 2371.351h20.525v50.302h-20.525z"/><path fill="#21525B" d="M2767.924 2421.961h-21.142v-50.919h21.142v50.919zm-20.525-.617h19.908v-49.686h-19.908v49.686z"/><circle fill="#FFF" cx="2757.574" cy="2383.569" r="6.898"/><circle fill="#FFF" cx="2757.574" cy="2383.569" r="4.46"/><path fill="#21525B" d="M2757.574 2388.338c-2.629 0-4.769-2.139-4.769-4.769s2.139-4.769 4.769-4.769c2.629 0 4.769 2.139 4.769 4.769s-2.14 4.769-4.769 4.769zm0-8.921c-2.289 0-4.152 1.863-4.152 4.152s1.863 4.152 4.152 4.152 4.152-1.863 4.152-4.152-1.863-4.152-4.152-4.152zm-3.956 27.937h6.984v.617h-6.984zm0 2.906h6.984v.617h-6.984zm0 3.102h6.984v.617h-6.984z"/><path fill="#C1ECF5" d="M2760.292 2367.542h21.847v57.918h-21.847z"/><path fill="#21525B" d="M2782.468 2425.79h-22.503v-58.575h22.503v58.575zm-21.847-.657h21.19v-57.262h-21.19v57.262z"/><circle fill="#FFF" cx="2771.451" cy="2381.423" r="7.342"/><circle fill="#FFF" cx="2771.451" cy="2381.423" r="4.747"/><path fill="#21525B" d="M2771.451 2386.499c-2.799 0-5.076-2.277-5.076-5.076s2.277-5.076 5.076-5.076 5.076 2.277 5.076 5.076-2.278 5.076-5.076 5.076zm0-9.495c-2.437 0-4.419 1.982-4.419 4.419s1.983 4.419 4.419 4.419c2.437 0 4.419-1.983 4.419-4.419s-1.983-4.419-4.419-4.419zm-4.211 33.238h7.434v.656h-7.434zm0 3.092h7.434v.656h-7.434zm0 3.302h7.434v.656h-7.434z"/><path fill="#C1ECF5" d="M2849.891 2371.351h20.525v50.302h-20.525z"/><path fill="#21525B" d="M2870.724 2421.961h-21.142v-50.919h21.142v50.919zm-20.525-.617h19.908v-49.685h-19.908v49.685z"/><circle fill="#FFF" cx="2860.374" cy="2383.569" r="6.898"/><circle fill="#FFF" cx="2860.374" cy="2383.569" r="4.46"/><path fill="#21525B" d="M2860.374 2388.338a4.775 4.775 0 0 1-4.769-4.769 4.774 4.774 0 0 1 4.769-4.769 4.775 4.775 0 0 1 4.769 4.769 4.775 4.775 0 0 1-4.769 4.769zm0-8.921a4.157 4.157 0 0 0-4.152 4.152 4.157 4.157 0 0 0 4.152 4.152 4.157 4.157 0 0 0 4.152-4.152 4.157 4.157 0 0 0-4.152-4.152zm-3.956 27.937h6.984v.617h-6.984zm0 2.906h6.984v.617h-6.984zm0 3.102h6.984v.617h-6.984z"/><path fill="#C1ECF5" d="M2822.394 2371.351h20.525v50.302h-20.525z"/><path fill="#21525B" d="M2843.227 2421.961h-21.142v-50.919h21.142v50.919zm-20.525-.617h19.908v-49.686h-19.908v49.686z"/><circle fill="#FFF" cx="2832.877" cy="2383.569" r="6.898"/><circle fill="#FFF" cx="2832.877" cy="2383.569" r="4.46"/><path fill="#21525B" d="M2832.877 2388.338c-2.629 0-4.769-2.139-4.769-4.769s2.139-4.769 4.769-4.769c2.629 0 4.769 2.139 4.769 4.769s-2.14 4.769-4.769 4.769zm0-8.921c-2.289 0-4.152 1.863-4.152 4.152s1.863 4.152 4.152 4.152 4.152-1.863 4.152-4.152-1.863-4.152-4.152-4.152zm-3.955 27.937h6.984v.617h-6.984zm0 2.906h6.984v.617h-6.984zm0 3.102h6.984v.617h-6.984z"/><path fill="#C1ECF5" d="M2835.596 2367.542h21.847v57.918h-21.847z"/><path fill="#21525B" d="M2857.771 2425.79h-22.503v-58.575h22.503v58.575zm-21.847-.657h21.19v-57.262h-21.19v57.262z"/><circle fill="#FFF" cx="2846.754" cy="2381.423" r="7.342"/><circle fill="#FFF" cx="2846.754" cy="2381.423" r="4.747"/><path fill="#21525B" d="M2846.754 2386.499c-2.799 0-5.076-2.277-5.076-5.076s2.277-5.076 5.076-5.076 5.076 2.277 5.076 5.076-2.278 5.076-5.076 5.076zm0-9.495c-2.437 0-4.419 1.982-4.419 4.419s1.983 4.419 4.419 4.419 4.419-1.983 4.419-4.419-1.983-4.419-4.419-4.419zm-4.21 33.238h7.434v.656h-7.434zm0 3.092h7.434v.656h-7.434zm0 3.302h7.434v.656h-7.434z"/><path fill="#3FB1DE" d="M2732.413 2165.41v-12.321h-37.129v12.321h2.904v2.981h-2.904v12.321h2.904v2.982h-2.904v39.238h2.904v2.672h31.321v-2.672h2.904v-39.238h-2.904v-2.982h2.904v-12.321h-2.904v-2.981z"/><path fill="#0B0C0C" d="M2729.767 2225.862h-31.837v-2.671h-2.904v-39.755h2.904v-2.465h-2.904v-12.837h2.904v-2.465h-2.904v-12.837h37.646v12.837h-2.904v2.465h2.904v12.837h-2.904v2.465h2.904v39.755h-2.904v2.671zm-31.321-.517h30.805v-2.671h2.904v-38.723h-2.904v-3.497h2.904v-11.805h-2.904v-3.497h2.904v-11.805h-36.614v11.805h2.904v3.497h-2.904v11.805h2.904v3.497h-2.904v38.723h2.904v2.671z"/><path fill="#3BAFDC" stroke="#040000" stroke-width=".894" stroke-miterlimit="10" d="M2732.413 2165.41v-12.321h-37.129v12.321h2.904v2.981h-2.904v12.321h2.904v2.982h-2.904v39.238h2.904v2.672h31.321v-2.672h2.904v-39.238h-2.904v-2.982h2.904v-12.321h-2.904v-2.981z"/><path fill="#2C515A" d="M2729.767 2225.862h-31.837v-2.671h-2.904v-39.755h2.904v-2.465h-2.904v-12.837h2.904v-2.465h-2.904v-12.837h37.646v12.837h-2.904v2.465h2.904v12.837h-2.904v2.465h2.904v39.755h-2.904v2.671zm-31.321-.517h30.805v-2.671h2.904v-38.723h-2.904v-3.497h2.904v-11.805h-2.904v-3.497h2.904v-11.805h-36.614v11.805h2.904v3.497h-2.904v11.805h2.904v3.497h-2.904v38.723h2.904v2.671z"/><circle fill="#FFF" cx="2713.848" cy="2215.52" r="5.84"/><path fill="#2C515A" d="M2713.849 2221.618c-3.362 0-6.098-2.735-6.098-6.098s2.736-6.098 6.098-6.098c3.362 0 6.097 2.735 6.097 6.098s-2.735 6.098-6.097 6.098zm0-11.783a5.691 5.691 0 0 0-5.685 5.685 5.692 5.692 0 0 0 5.685 5.685 5.692 5.692 0 0 0 5.685-5.685 5.693 5.693 0 0 0-5.685-5.685z"/><circle fill="#EA8888" cx="2713.848" cy="2215.52" r="3.979"/><circle fill="#FFF" cx="2713.848" cy="2196.478" r=".72"/><circle fill="#FFF" cx="2710.8" cy="2196.478" r=".72"/><circle fill="#FFF" cx="2716.897" cy="2196.478" r=".72"/><circle fill="#FFF" cx="2713.848" cy="2199.635" r=".72"/><circle fill="#FFF" cx="2710.8" cy="2199.635" r=".72"/><circle fill="#FFF" cx="2716.897" cy="2199.635" r=".72"/><circle fill="#FFF" cx="2713.848" cy="2202.791" r=".72"/><circle fill="#FFF" cx="2710.8" cy="2202.791" r=".72"/><circle fill="#FFF" cx="2707.751" cy="2196.478" r=".72"/><circle fill="#FFF" cx="2707.751" cy="2199.635" r=".72"/><circle fill="#FFF" cx="2707.751" cy="2202.791" r=".72"/><circle fill="#FFF" cx="2716.897" cy="2202.791" r=".72"/><circle fill="#FFF" cx="2719.946" cy="2196.478" r=".72"/><circle fill="#FFF" cx="2719.946" cy="2199.635" r=".72"/><circle fill="#FFF" cx="2719.946" cy="2202.791" r=".72"/><path fill="#FFF" d="M2725.348 2162.427a1.44 1.44 0 0 1-1.44 1.44h-20.118a1.44 1.44 0 0 1 0-2.881h20.118c.795 0 1.44.645 1.44 1.441z"/><path fill="#2C515A" d="M2723.907 2164.125h-20.118c-.937 0-1.699-.762-1.699-1.698s.762-1.698 1.699-1.698h20.118c.937 0 1.699.762 1.699 1.698s-.762 1.698-1.699 1.698zm-20.117-2.881c-.652 0-1.183.531-1.183 1.183s.531 1.183 1.183 1.183h20.118c.652 0 1.183-.531 1.183-1.183s-.531-1.183-1.183-1.183h-20.118z"/><path fill="#FFF" d="M2725.348 2168.224a1.44 1.44 0 0 1-1.44 1.44h-20.118a1.44 1.44 0 0 1 0-2.881h20.118c.795 0 1.44.645 1.44 1.441z"/><path fill="#2C515A" d="M2723.907 2169.922h-20.118a1.7 1.7 0 0 1-1.699-1.698 1.7 1.7 0 0 1 1.699-1.699h20.118a1.7 1.7 0 0 1 1.699 1.699 1.7 1.7 0 0 1-1.699 1.698zm-20.117-2.881c-.652 0-1.183.531-1.183 1.183s.531 1.182 1.183 1.182h20.118c.652 0 1.183-.531 1.183-1.182 0-.652-.531-1.183-1.183-1.183h-20.118z"/><path fill="#FFF" d="M2725.348 2173.271a1.44 1.44 0 0 1-1.44 1.44h-20.118a1.44 1.44 0 0 1 0-2.881h20.118c.795.001 1.44.646 1.44 1.441z"/><path fill="#2C515A" d="M2723.907 2174.97h-20.118c-.937 0-1.699-.762-1.699-1.698s.762-1.698 1.699-1.698h20.118c.937 0 1.699.762 1.699 1.698s-.762 1.698-1.699 1.698zm-20.117-2.881c-.652 0-1.183.531-1.183 1.183s.531 1.182 1.183 1.182h20.118c.652 0 1.183-.531 1.183-1.182 0-.652-.531-1.183-1.183-1.183h-20.118z"/><path fill="#3FB1DE" d="M2792.314 2165.41v-12.321h-37.13v12.321h2.905v2.981h-2.905v12.321h2.905v2.982h-2.905v39.238h2.905v2.672h31.321v-2.672h2.904v-39.238h-2.904v-2.982h2.904v-12.321h-2.904v-2.981z"/><path fill="#0B0C0C" d="M2789.667 2225.862h-31.837v-2.671h-2.904v-39.755h2.904v-2.465h-2.904v-12.837h2.904v-2.465h-2.904v-12.837h37.646v12.837h-2.904v2.465h2.904v12.837h-2.904v2.465h2.904v39.755h-2.904v2.671zm-31.321-.517h30.805v-2.671h2.904v-38.723h-2.904v-3.497h2.904v-11.805h-2.904v-3.497h2.904v-11.805h-36.614v11.805h2.904v3.497h-2.904v11.805h2.904v3.497h-2.904v38.723h2.904v2.671z"/><path fill="#3BAFDC" stroke="#040000" stroke-width=".894" stroke-miterlimit="10" d="M2792.314 2165.41v-12.321h-37.13v12.321h2.905v2.981h-2.905v12.321h2.905v2.982h-2.905v39.238h2.905v2.672h31.321v-2.672h2.904v-39.238h-2.904v-2.982h2.904v-12.321h-2.904v-2.981z"/><path fill="#2C515A" d="M2789.667 2225.862h-31.837v-2.671h-2.904v-39.755h2.904v-2.465h-2.904v-12.837h2.904v-2.465h-2.904v-12.837h37.646v12.837h-2.904v2.465h2.904v12.837h-2.904v2.465h2.904v39.755h-2.904v2.671zm-31.321-.517h30.805v-2.671h2.904v-38.723h-2.904v-3.497h2.904v-11.805h-2.904v-3.497h2.904v-11.805h-36.614v11.805h2.904v3.497h-2.904v11.805h2.904v3.497h-2.904v38.723h2.904v2.671z"/><circle fill="#FFF" cx="2773.749" cy="2215.52" r="5.84"/><path fill="#2C515A" d="M2773.749 2221.618c-3.362 0-6.098-2.735-6.098-6.098s2.736-6.098 6.098-6.098c3.362 0 6.097 2.735 6.097 6.098s-2.734 6.098-6.097 6.098zm0-11.783a5.691 5.691 0 0 0-5.685 5.685c0 3.135 2.551 5.685 5.685 5.685s5.685-2.55 5.685-5.685a5.692 5.692 0 0 0-5.685-5.685z"/><circle fill="#EA8888" cx="2773.749" cy="2215.52" r="3.979"/><circle fill="#FFF" cx="2773.749" cy="2196.478" r=".72"/><circle fill="#FFF" cx="2770.7" cy="2196.478" r=".72"/><circle fill="#FFF" cx="2776.798" cy="2196.478" r=".72"/><circle fill="#FFF" cx="2773.749" cy="2199.635" r=".72"/><circle fill="#FFF" cx="2770.7" cy="2199.635" r=".72"/><circle fill="#FFF" cx="2776.798" cy="2199.635" r=".72"/><circle fill="#FFF" cx="2773.749" cy="2202.791" r=".72"/><circle fill="#FFF" cx="2770.7" cy="2202.791" r=".72"/><circle fill="#FFF" cx="2767.651" cy="2196.478" r=".72"/><circle fill="#FFF" cx="2767.651" cy="2199.635" r=".72"/><circle fill="#FFF" cx="2767.651" cy="2202.791" r=".72"/><circle fill="#FFF" cx="2776.798" cy="2202.791" r=".72"/><circle fill="#FFF" cx="2779.847" cy="2196.478" r=".72"/><circle fill="#FFF" cx="2779.847" cy="2199.635" r=".72"/><circle fill="#FFF" cx="2779.847" cy="2202.791" r=".72"/><path fill="#FFF" d="M2785.249 2162.427a1.44 1.44 0 0 1-1.441 1.44h-20.118a1.44 1.44 0 0 1 0-2.881h20.118a1.44 1.44 0 0 1 1.441 1.441z"/><path fill="#2C515A" d="M2783.808 2164.125h-20.118c-.936 0-1.698-.762-1.698-1.698s.762-1.698 1.698-1.698h20.118c.937 0 1.698.762 1.698 1.698s-.761 1.698-1.698 1.698zm-20.118-2.881c-.652 0-1.183.531-1.183 1.183s.531 1.183 1.183 1.183h20.118c.652 0 1.183-.531 1.183-1.183s-.531-1.183-1.183-1.183h-20.118z"/><path fill="#FFF" d="M2785.249 2168.224a1.44 1.44 0 0 1-1.441 1.44h-20.118a1.44 1.44 0 0 1 0-2.881h20.118a1.44 1.44 0 0 1 1.441 1.441z"/><path fill="#2C515A" d="M2783.808 2169.922h-20.118a1.7 1.7 0 0 1-1.698-1.698 1.7 1.7 0 0 1 1.698-1.699h20.118a1.699 1.699 0 0 1 0 3.397zm-20.118-2.881c-.652 0-1.183.531-1.183 1.183s.531 1.182 1.183 1.182h20.118c.652 0 1.183-.531 1.183-1.182 0-.652-.531-1.183-1.183-1.183h-20.118z"/><path fill="#FFF" d="M2785.249 2173.271a1.44 1.44 0 0 1-1.441 1.44h-20.118a1.44 1.44 0 0 1 0-2.881h20.118a1.442 1.442 0 0 1 1.441 1.441z"/><path fill="#2C515A" d="M2783.808 2174.97h-20.118c-.936 0-1.698-.762-1.698-1.698s.762-1.698 1.698-1.698h20.118c.937 0 1.698.762 1.698 1.698s-.761 1.698-1.698 1.698zm-20.118-2.881c-.652 0-1.183.531-1.183 1.183s.531 1.182 1.183 1.182h20.118c.652 0 1.183-.531 1.183-1.182 0-.652-.531-1.183-1.183-1.183h-20.118z"/><path fill="#3FB1DE" d="M2847.868 2165.41v-12.321h-37.129v12.321h2.904v2.981h-2.904v12.321h2.904v2.982h-2.904v39.238h2.904v2.672h31.321v-2.672h2.904v-39.238h-2.904v-2.982h2.904v-12.321h-2.904v-2.981z"/><path fill="#0B0C0C" d="M2845.222 2225.862h-31.837v-2.671h-2.904v-39.755h2.904v-2.465h-2.904v-12.837h2.904v-2.465h-2.904v-12.837h37.646v12.837h-2.904v2.465h2.904v12.837h-2.904v2.465h2.904v39.755h-2.904v2.671zm-31.321-.517h30.805v-2.671h2.904v-38.723h-2.904v-3.497h2.904v-11.805h-2.904v-3.497h2.904v-11.805h-36.614v11.805h2.904v3.497h-2.904v11.805h2.904v3.497h-2.904v38.723h2.904v2.671z"/><path fill="#3BAFDC" stroke="#040000" stroke-width=".894" stroke-miterlimit="10" d="M2847.868 2165.41v-12.321h-37.129v12.321h2.904v2.981h-2.904v12.321h2.904v2.982h-2.904v39.238h2.904v2.672h31.321v-2.672h2.904v-39.238h-2.904v-2.982h2.904v-12.321h-2.904v-2.981z"/><path fill="#2C515A" d="M2845.222 2225.862h-31.837v-2.671h-2.904v-39.755h2.904v-2.465h-2.904v-12.837h2.904v-2.465h-2.904v-12.837h37.646v12.837h-2.904v2.465h2.904v12.837h-2.904v2.465h2.904v39.755h-2.904v2.671zm-31.321-.517h30.805v-2.671h2.904v-38.723h-2.904v-3.497h2.904v-11.805h-2.904v-3.497h2.904v-11.805h-36.614v11.805h2.904v3.497h-2.904v11.805h2.904v3.497h-2.904v38.723h2.904v2.671z"/><circle fill="#FFF" cx="2829.303" cy="2215.52" r="5.84"/><path fill="#2C515A" d="M2829.303 2221.618c-3.362 0-6.098-2.735-6.098-6.098s2.736-6.098 6.098-6.098c3.362 0 6.097 2.735 6.097 6.098s-2.734 6.098-6.097 6.098zm0-11.783a5.691 5.691 0 0 0-5.685 5.685c0 3.135 2.55 5.685 5.685 5.685s5.685-2.55 5.685-5.685a5.692 5.692 0 0 0-5.685-5.685z"/><circle fill="#EA8888" cx="2829.303" cy="2215.52" r="3.979"/><circle fill="#FFF" cx="2829.303" cy="2196.478" r=".72"/><circle fill="#FFF" cx="2826.254" cy="2196.478" r=".72"/><circle fill="#FFF" cx="2832.352" cy="2196.478" r=".72"/><circle fill="#FFF" cx="2829.303" cy="2199.635" r=".72"/><circle fill="#FFF" cx="2826.254" cy="2199.635" r=".72"/><circle fill="#FFF" cx="2832.352" cy="2199.635" r=".72"/><circle fill="#FFF" cx="2829.303" cy="2202.791" r=".72"/><circle fill="#FFF" cx="2826.254" cy="2202.791" r=".72"/><circle fill="#FFF" cx="2823.206" cy="2196.478" r=".72"/><circle fill="#FFF" cx="2823.206" cy="2199.635" r=".72"/><circle fill="#FFF" cx="2823.206" cy="2202.791" r=".72"/><circle fill="#FFF" cx="2832.352" cy="2202.791" r=".72"/><circle fill="#FFF" cx="2835.401" cy="2196.478" r=".72"/><circle fill="#FFF" cx="2835.401" cy="2199.635" r=".72"/><circle fill="#FFF" cx="2835.401" cy="2202.791" r=".72"/><path fill="#FFF" d="M2840.803 2162.427a1.44 1.44 0 0 1-1.441 1.44h-20.118a1.44 1.44 0 0 1 0-2.881h20.118a1.44 1.44 0 0 1 1.441 1.441z"/><path fill="#2C515A" d="M2839.362 2164.125h-20.118c-.937 0-1.698-.762-1.698-1.698s.762-1.698 1.698-1.698h20.118c.937 0 1.699.762 1.699 1.698s-.762 1.698-1.699 1.698zm-20.118-2.881c-.652 0-1.183.531-1.183 1.183s.531 1.183 1.183 1.183h20.118c.652 0 1.183-.531 1.183-1.183s-.531-1.183-1.183-1.183h-20.118z"/><path fill="#FFF" d="M2840.803 2168.224a1.44 1.44 0 0 1-1.441 1.44h-20.118a1.44 1.44 0 0 1 0-2.881h20.118a1.44 1.44 0 0 1 1.441 1.441z"/><path fill="#2C515A" d="M2839.362 2169.922h-20.118a1.7 1.7 0 0 1 0-3.397h20.118a1.7 1.7 0 0 1 1.699 1.699 1.7 1.7 0 0 1-1.699 1.698zm-20.118-2.881c-.652 0-1.183.531-1.183 1.183s.531 1.182 1.183 1.182h20.118c.652 0 1.183-.531 1.183-1.182 0-.652-.531-1.183-1.183-1.183h-20.118z"/><path fill="#FFF" d="M2840.803 2173.271a1.44 1.44 0 0 1-1.441 1.44h-20.118a1.44 1.44 0 0 1 0-2.881h20.118a1.442 1.442 0 0 1 1.441 1.441z"/><path fill="#2C515A" d="M2839.362 2174.97h-20.118c-.937 0-1.698-.762-1.698-1.698s.762-1.698 1.698-1.698h20.118c.937 0 1.699.762 1.699 1.698s-.762 1.698-1.699 1.698zm-20.118-2.881c-.652 0-1.183.531-1.183 1.183s.531 1.182 1.183 1.182h20.118c.652 0 1.183-.531 1.183-1.182 0-.652-.531-1.183-1.183-1.183h-20.118z"/><text transform="translate(2660.239 2518.92)" opacity=".6" font-family="'NotoSansHans-Light-GBpc-EUC-H'" font-size="14">转码集群</text><g fill="none" stroke="#737474" stroke-width=".967" stroke-miterlimit="10" opacity=".4"><path d="M2759.469 2624.101v.625h-1.023"/><path stroke-dasharray="1.603,1.603" d="M2756.396 2624.726h-135.022"/><path d="M2620.349 2624.726h-1.023v-.625"/><path stroke-dasharray="1.6318,1.6318" d="M2619.326 2622.824v-129.18"/><path d="M2619.326 2493.006v-.626h1.023"/><path stroke-dasharray="1.603,1.603" d="M2622.398 2492.38h135.023"/><path d="M2758.446 2492.38h1.023v.626"/><path stroke-dasharray="1.6318,1.6318" d="M2759.469 2494.282v129.18"/></g><path fill="#21525B" d="M2816.545 2585.92h-.673c0-.847.03-1.7.09-2.535l.671.048a35.366 35.366 0 0 0-.088 2.487zm69.283-1.837a34.853 34.853 0 0 0-.219-2.48l.668-.083c.104.836.179 1.686.223 2.527l-.672.036zm-68.931-3.126l-.666-.096c.12-.837.271-1.678.451-2.498l.657.144a34.856 34.856 0 0 0-.442 2.45zm68.316-1.812c-.16-.81-.353-1.625-.572-2.423l.649-.178c.223.813.419 1.644.582 2.47l-.659.131zm-67.256-3.05l-.646-.191c.239-.808.51-1.618.806-2.407l.63.237a34.95 34.95 0 0 0-.79 2.361zm65.939-1.748a34.143 34.143 0 0 0-.914-2.312l.617-.27c.338.772.651 1.565.931 2.358l-.634.224zm-64.188-2.912l-.611-.282c.353-.765.738-1.528 1.145-2.267l.59.324a33.825 33.825 0 0 0-1.124 2.225zm62.195-1.642a35.02 35.02 0 0 0-1.237-2.158l.571-.355c.446.717.87 1.457 1.262 2.2l-.596.313zm-59.792-2.72l-.564-.366c.458-.706.948-1.406 1.458-2.079l.537.406a34.273 34.273 0 0 0-1.431 2.039zm57.166-1.503a35.3 35.3 0 0 0-1.534-1.96l.515-.433a35.708 35.708 0 0 1 1.563 1.998l-.544.395zm-54.163-2.468l-.506-.443a35.876 35.876 0 0 1 1.739-1.849l.473.478c-.585.579-1.16 1.19-1.706 1.814zm50.958-1.338a34.769 34.769 0 0 0-1.798-1.723l.448-.502c.628.56 1.244 1.151 1.833 1.756l-.483.469zm-47.422-2.164l-.438-.511a35.502 35.502 0 0 1 1.983-1.582l.4.541a35.346 35.346 0 0 0-1.945 1.552zm43.707-1.15a34.76 34.76 0 0 0-2.026-1.449l.372-.561c.701.464 1.396.961 2.065 1.477l-.411.533zm-39.71-1.811l-.361-.568a35.213 35.213 0 0 1 2.188-1.282l.319.592c-.726.391-1.448.815-2.146 1.258zm35.559-.938a34.525 34.525 0 0 0-2.213-1.144l.287-.609a35.1 35.1 0 0 1 2.256 1.167l-.33.586zm-31.18-1.42l-.276-.614a34.87 34.87 0 0 1 2.349-.954l.23.632a34.35 34.35 0 0 0-2.303.936zm26.676-.707a34.626 34.626 0 0 0-2.355-.814l.196-.644a35.27 35.27 0 0 1 2.402.83l-.243.628zm-22.005-.997l-.184-.647c.81-.231 1.64-.435 2.464-.607l.137.659c-.809.168-1.622.368-2.417.595zm17.244-.457c-.807-.184-1.63-.34-2.446-.465l.102-.665c.832.127 1.671.287 2.493.473l-.149.657zm-12.373-.557l-.089-.667a35.04 35.04 0 0 1 2.526-.246l.041.672c-.825.05-1.659.132-2.478.241zm7.454-.195a34.928 34.928 0 0 0-2.487-.111l.006-.673c.844.008 1.697.046 2.535.113l-.054.671z"/><circle fill="#FFF" cx="2820.457" cy="2568.35" r="6.245"/><path fill="#21525B" d="M2820.457 2574.932a6.59 6.59 0 0 1-6.582-6.582c0-3.629 2.953-6.582 6.582-6.582s6.582 2.953 6.582 6.582a6.59 6.59 0 0 1-6.582 6.582zm0-12.491a5.915 5.915 0 0 0-5.909 5.909 5.916 5.916 0 0 0 5.909 5.909 5.916 5.916 0 0 0 5.909-5.909 5.916 5.916 0 0 0-5.909-5.909z"/><circle fill="#FFF" cx="2881.496" cy="2567.962" r="6.245"/><path fill="#21525B" d="M2881.496 2574.544c-3.629 0-6.582-2.953-6.582-6.582s2.952-6.582 6.582-6.582 6.582 2.952 6.582 6.582-2.953 6.582-6.582 6.582zm0-12.491a5.916 5.916 0 0 0-5.909 5.909 5.916 5.916 0 0 0 5.909 5.909 5.915 5.915 0 0 0 5.909-5.909 5.916 5.916 0 0 0-5.909-5.909z"/><circle fill="#FFF" cx="2839.823" cy="2553.712" r="6.245"/><path fill="#21525B" d="M2839.823 2560.294a6.59 6.59 0 0 1-6.582-6.582c0-3.629 2.953-6.582 6.582-6.582s6.582 2.953 6.582 6.582a6.59 6.59 0 0 1-6.582 6.582zm0-12.491a5.916 5.916 0 0 0-5.909 5.909c0 3.258 2.651 5.909 5.909 5.909s5.909-2.651 5.909-5.909a5.916 5.916 0 0 0-5.909-5.909z"/><circle fill="#FFF" cx="2862.921" cy="2553.712" r="6.245"/><path fill="#21525B" d="M2862.921 2560.294a6.59 6.59 0 0 1-6.582-6.582 6.59 6.59 0 0 1 6.582-6.582 6.59 6.59 0 0 1 6.582 6.582 6.59 6.59 0 0 1-6.582 6.582zm0-12.491a5.916 5.916 0 0 0-5.909 5.909 5.916 5.916 0 0 0 5.909 5.909 5.916 5.916 0 0 0 5.909-5.909 5.916 5.916 0 0 0-5.909-5.909z"/><path fill="#F67B82" d="M2883.562 2566.378l.006-.228h-2.405l-.209-.338h-1.414l-.401.566h-.115v3.226h4.944v-3.226z"/><path fill="#21525B" d="M2884.192 2569.828h-5.393v-3.674h.224l.4-.566h1.656l.209.338h2.51l-.006.228h.4v3.674zm-4.944-.449h4.495v-2.777h-.412l.006-.228h-2.3l-.209-.338h-1.173l-.408.566v2.777z"/><path fill="#F67B82" d="M2838.205 2551.74v.812h-.933v2.443h.933v.688h4.169v-3.943z"/><path fill="#21525B" d="M2842.598 2555.908h-4.618v-.689h-.932v-2.89h.932v-.812h4.618v4.391zm-4.169-.449h3.72v-3.495h-3.72v.812h-.932v1.993h.932v.69z"/><path fill="#C1ECF5" d="M2822.904 2565.69h-4.618v3.233a1.416 1.416 0 0 0-.397-.057c-.604 0-1.095.368-1.095.821s.49.821 1.095.821 1.095-.368 1.095-.821c0-.018-.002-.035-.003-.053h.006v-3.045h3.087v3.067a1.441 1.441 0 0 0-.249-.022c-.604 0-1.095.368-1.095.821s.49.821 1.095.821 1.095-.368 1.095-.821v-4.766h-.016z"/><path fill="#21525B" d="M2821.825 2571.502c-.727 0-1.319-.469-1.319-1.046 0-.576.592-1.046 1.319-1.046h.024v-2.596h-2.638l-.02 3.045c-.103.495-.648.874-1.302.874-.727 0-1.319-.469-1.319-1.046s.592-1.045 1.319-1.045c.058 0 .116.003.173.009v-3.186h5.066l.016.224v4.766c0 .578-.592 1.047-1.319 1.047zm0-1.643c-.472 0-.871.273-.871.597s.399.597.871.597.87-.273.87-.597v-4.542h-4.185v3.309l-.287-.084a1.199 1.199 0 0 0-.334-.048c-.472 0-.87.273-.87.597 0 .324.399.597.87.597.472 0 .871-.273.871-.597l.002-3.322h3.535v3.558l-.262-.045a1.108 1.108 0 0 0-.21-.02z"/><path fill="#C1ECF5" d="M2861.408 2552.694c.153 0 .3.024.439.068a1.547 1.547 0 0 1 1.459-1.064c.853 0 1.543.707 1.543 1.58 0 .093-.008.184-.023.272l.023-.001c.587 0 1.064.487 1.064 1.089 0 .601-.476 1.089-1.064 1.089h-3.442c-.818 0-1.481-.679-1.481-1.516s.665-1.517 1.482-1.517z"/><path fill="#21525B" d="M2864.85 2555.95h-3.442c-.94 0-1.705-.781-1.705-1.74 0-.96.765-1.74 1.705-1.74.103 0 .204.009.304.028a1.765 1.765 0 0 1 1.594-1.024c.975 0 1.768.809 1.768 1.804l-.001.07a1.307 1.307 0 0 1 1.065 1.29c0 .723-.578 1.312-1.288 1.312zm-3.442-3.032c-.693 0-1.256.579-1.256 1.292 0 .712.564 1.292 1.256 1.292h3.442a.854.854 0 0 0 .839-.865.854.854 0 0 0-.839-.865h-.266l.021-.26c.013-.076.02-.155.02-.235 0-.748-.592-1.356-1.32-1.356-.562 0-1.062.366-1.246.912l-.07.209-.21-.066a1.22 1.22 0 0 0-.371-.058zm-3.312 13.58h6.08v.449h-6.08zm2.462 4.232h9.635v.449h-9.635zm.928 2.817h6.441v.449h-6.441zm19.024 18.859h7.138v.449h-7.138zm-3.261 2.593h6.83v.449h-6.83zm-68.339-5.443h11.088v.449h-11.088zm4.188 3.563h8.741v.449h-8.741zm2.141 2.137h8.269v.449h-8.269z"/><path fill-rule="evenodd" clip-rule="evenodd" fill="#C1ECF5" d="M2866.443 2576.15a12.64 12.64 0 0 0-3.702.554c-.701-5.949-5.754-10.567-11.892-10.567-6.044 0-11.029 4.479-11.851 10.296a5.745 5.745 0 0 0-7.519 5.463c0 .167.011.33.025.494l-.025-.001a9.52 9.52 0 0 0-9.521 9.521 9.52 9.52 0 0 0 9.521 9.521h35.786v-.042c6.596-.425 11.819-5.895 11.819-12.598-.001-6.982-5.66-12.641-12.641-12.641z"/><path fill="#21525B" d="M2867.264 2601.766h-35.785c-5.436 0-9.857-4.422-9.857-9.857 0-5.324 4.242-9.676 9.524-9.852a6.088 6.088 0 0 1 6.078-6.243c.507 0 1.01.063 1.501.189 1.016-5.843 6.16-10.203 12.123-10.203a12.314 12.314 0 0 1 12.174 10.472 12.997 12.997 0 0 1 3.421-.458c7.155 0 12.976 5.821 12.976 12.976 0 6.709-5.167 12.319-11.819 12.91v.025l-.336.041zm-35.763-19.041c-5.088 0-9.206 4.119-9.206 9.183s4.12 9.185 9.185 9.185h35.448v-.02l.315-.021c6.451-.416 11.504-5.802 11.504-12.263 0-6.784-5.519-12.303-12.303-12.303-1.222 0-2.434.181-3.604.539l-.385.118-.047-.4c-.69-5.855-5.659-10.27-11.558-10.27-5.76 0-10.711 4.302-11.518 10.007l-.056.397-.381-.124a5.371 5.371 0 0 0-1.67-.266 5.415 5.415 0 0 0-5.408 5.409c0 .157.01.312.023.466l.031.364h-.37z"/><circle fill="#FFF" stroke="#00B1E0" stroke-width=".359" stroke-miterlimit="10" cx="2850.521" cy="2587.689" r="8.475"/><circle fill="none" stroke="#00B1E0" stroke-width=".359" stroke-miterlimit="10" cx="2850.521" cy="2587.689" r="6.441"/><path fill="#00B1E0" d="M2853.824 2587.689l-2.888-1.667-2.889-1.668v6.671l2.889-1.668z"/><text transform="translate(2820.749 2518.927)" opacity=".6" font-family="'NotoSansHans-Light-GBpc-EUC-H'" font-size="14">录制集群</text><g fill="none" stroke="#737474" stroke-width=".967" stroke-miterlimit="10" opacity=".4"><path d="M2918.574 2624.107v.626h-1.023"/><path stroke-dasharray="1.603,1.603" d="M2915.501 2624.733h-135.022"/><path d="M2779.454 2624.733h-1.023v-.626"/><path stroke-dasharray="1.6318,1.6318" d="M2778.431 2622.83v-129.18"/><path d="M2778.431 2493.012v-.626h1.023"/><path stroke-dasharray="1.603,1.603" d="M2781.503 2492.386h135.023"/><path d="M2917.551 2492.386h1.023v.626"/><path stroke-dasharray="1.6318,1.6318" d="M2918.574 2494.288v129.181"/></g><path fill="#3BB0DC" d="M2539.844 2578.046h-74.852a.684.684 0 1 0 0 1.367h74.852m465.02-197.034h-74.169a.684.684 0 1 0 0 1.367h74.169"/><path fill="#3BB0DC" d="M3004.864 2382.379h-74.169a.684.684 0 1 0 0 1.367h74.169"/><path fill="#3BB0DC" d="M2930.011 2382.379h74.853a.683.683 0 1 1 0 1.367h-74.853"/><path fill="#00B1E0" d="M3244.293 2218.432l-.009-1.318a44.32 44.32 0 0 0 1.864-.051l.064 1.315c-.636.032-1.275.049-1.919.054zm-1.918-.027a43.354 43.354 0 0 1-1.917-.107l.102-1.313c.616.048 1.236.082 1.86.104l-.045 1.316zm5.752-.158l-.12-1.312a45.233 45.233 0 0 0 1.853-.208l.174 1.306c-.632.084-1.268.155-1.907.214zm-9.578-.136a42.644 42.644 0 0 1-1.902-.268l.213-1.301c.61.1 1.225.187 1.844.26l-.155 1.309zm13.382-.371l-.229-1.298a42.485 42.485 0 0 0 1.828-.363l.284 1.286c-.623.138-1.251.262-1.883.375zm-17.171-.245a46.558 46.558 0 0 1-1.871-.428l.321-1.278c.601.151 1.206.29 1.817.415l-.267 1.291zm20.919-.583l-.339-1.273c.602-.16 1.199-.333 1.791-.517l.392 1.257c-.61.19-1.224.368-1.844.533zm-24.642-.351a45.269 45.269 0 0 1-1.829-.586l.43-1.245c.586.203 1.178.392 1.775.569l-.376 1.262zm28.306-.791l-.446-1.24a43.363 43.363 0 0 0 1.74-.668l.498 1.219c-.591.242-1.189.471-1.792.689zm-31.941-.458a46.072 46.072 0 0 1-1.775-.741l.533-1.205c.569.252 1.144.491 1.724.719l-.482 1.227zm35.491-.991l-.551-1.196c.565-.26 1.123-.531 1.675-.812l.599 1.173a46.35 46.35 0 0 1-1.723.835zm-39.008-.566a45.857 45.857 0 0 1-1.705-.888l.634-1.156c.545.299 1.097.586 1.655.862l-.584 1.182zm42.419-1.177l-.649-1.147a44.888 44.888 0 0 0 1.6-.95l.696 1.118c-.541.337-1.09.664-1.647.979zm-45.789-.671a46.262 46.262 0 0 1-1.623-1.029l.729-1.097a45.07 45.07 0 0 0 1.576 1l-.682 1.126zm49.043-1.355l-.743-1.087a46.3 46.3 0 0 0 1.516-1.083l.788 1.055c-.513.383-1.033.754-1.561 1.115zm-52.244-.769a45.245 45.245 0 0 1-1.53-1.162l.819-1.032c.487.387.982.763 1.485 1.128l-.774 1.066zm55.318-1.526l-.833-1.021c.482-.393.956-.795 1.42-1.207l.874.986c-.478.424-.966.839-1.461 1.242zm-58.326-.861a46.85 46.85 0 0 1-1.426-1.286l.903-.959c.452.426.914.843 1.384 1.248l-.861.997zm61.196-1.683l-.915-.948a45.5 45.5 0 0 0 1.314-1.322l.954.909c-.441.463-.893.916-1.353 1.361zm-63.993-.945a46.925 46.925 0 0 1-1.313-1.4l.98-.881c.416.462.84.915 1.274 1.359l-.941.922zm66.642-1.832l-.991-.868c.41-.468.809-.944 1.199-1.429l1.027.826a49.51 49.51 0 0 1-1.235 1.471zm-69.207-1.022a44.707 44.707 0 0 1-1.19-1.506l1.051-.794c.375.496.76.983 1.155 1.461l-1.016.839zm71.613-1.971l-1.06-.782a43.01 43.01 0 0 0 1.075-1.524l1.092.736a45.634 45.634 0 0 1-1.107 1.57zm-73.928-1.087a46.056 46.056 0 0 1-1.059-1.599l1.114-.704c.332.525.675 1.043 1.028 1.552l-1.083.751zm76.075-2.098l-1.122-.69c.325-.529.639-1.066.943-1.61l1.151.642c-.313.56-.637 1.113-.972 1.658zm-78.123-1.142a42.624 42.624 0 0 1-.919-1.682l1.169-.607c.286.551.584 1.095.893 1.632l-1.143.657zm79.994-2.216l-1.177-.592a44.07 44.07 0 0 0 .803-1.685l1.201.541a43.115 43.115 0 0 1-.827 1.736zm-81.761-1.183a46.499 46.499 0 0 1-.773-1.752l1.217-.507c.239.573.489 1.141.751 1.701l-1.195.558zm83.342-2.323l-1.223-.489c.231-.578.45-1.16.658-1.749l1.242.437a43.751 43.751 0 0 1-.677 1.801zm-84.813-1.211a46.216 46.216 0 0 1-.624-1.816l1.255-.401c.189.592.392 1.18.605 1.762l-1.236.455zm86.09-2.42l-1.261-.383c.18-.594.349-1.191.505-1.794l1.275.329c-.16.621-.333 1.237-.519 1.848zm-87.26-1.237a46.043 46.043 0 0 1-.467-1.862l1.285-.293c.138.607.29 1.21.453 1.808l-1.271.347zm88.22-2.48l-1.288-.274c.13-.607.246-1.216.35-1.831l1.299.221c-.107.631-.228 1.26-.361 1.884zm-89.074-1.261a45.595 45.595 0 0 1-.307-1.895l1.305-.183c.086.617.186 1.231.297 1.84l-1.295.238zm89.716-2.521l-1.307-.166c.078-.615.142-1.232.194-1.854l1.313.109c-.053.641-.12 1.278-.2 1.911zm-90.249-1.28a44.496 44.496 0 0 1-.146-1.914l1.315-.073c.034.624.082 1.243.142 1.859l-1.311.128zm90.569-2.545l-1.317-.055a44.365 44.365 0 0 0 .022-3.095l1.316-.036a44.554 44.554 0 0 1-.021 3.186zm-90.782-1.286a44.665 44.665 0 0 1 .014-1.92l1.317.038a43.21 43.21 0 0 0-.014 1.863l-1.317.019zm89.397-3.726a43.5 43.5 0 0 0-.168-1.856l1.309-.147c.071.634.128 1.271.173 1.913l-1.314.09zm-87.975-.018l-1.314-.092a46.48 46.48 0 0 1 .173-1.912l1.309.147a43.844 43.844 0 0 0-.168 1.857zm87.561-3.686a44.203 44.203 0 0 0-.323-1.835l1.292-.257c.124.626.236 1.256.333 1.891l-1.302.201zm-87.146-.018l-1.302-.202c.098-.634.21-1.265.334-1.89l1.292.257c-.12.607-.228 1.219-.324 1.835zm86.421-3.636a43.78 43.78 0 0 0-.479-1.802l1.266-.366c.177.614.342 1.232.493 1.856l-1.28.312zm-85.694-.019l-1.28-.311c.152-.624.317-1.243.494-1.856l1.265.366a42.902 42.902 0 0 0-.479 1.801zm84.661-3.56a43.505 43.505 0 0 0-.63-1.755l1.23-.472c.229.596.445 1.199.649 1.807l-1.249.42zm-83.626-.019l-1.249-.419c.205-.61.422-1.214.652-1.811l1.229.472c-.222.58-.433 1.166-.632 1.758zm82.293-3.457a41.676 41.676 0 0 0-.775-1.69l1.185-.575c.279.574.544 1.155.799 1.741l-1.209.524zm-80.954-.03l-1.208-.524c.256-.589.523-1.172.803-1.748l1.185.575c-.271.56-.531 1.125-.78 1.697zm79.333-3.317a42.904 42.904 0 0 0-.916-1.62l1.133-.672c.325.549.64 1.104.943 1.668l-1.16.624zm-77.702-.042l-1.16-.625c.304-.565.62-1.122.948-1.672l1.132.674a42.928 42.928 0 0 0-.92 1.623zm75.803-3.158a43.825 43.825 0 0 0-1.049-1.538l1.072-.765c.371.52.732 1.048 1.081 1.584l-1.104.719zm-73.895-.049l-1.103-.721c.351-.536.713-1.065 1.085-1.585l1.072.766a44.995 44.995 0 0 0-1.054 1.54zm71.732-2.981c-.382-.49-.774-.972-1.176-1.446l1.004-.852c.414.487.817.984 1.21 1.488l-1.038.81zm-69.561-.051l-1.038-.811c.395-.505.8-1.001 1.215-1.488l1.002.855c-.402.473-.796.954-1.179 1.444zm67.149-2.788a44.303 44.303 0 0 0-1.294-1.343l.929-.933c.454.451.898.912 1.332 1.382l-.967.894zm-64.731-.051l-.966-.896c.435-.469.88-.93 1.334-1.38l.928.935c-.441.439-.873.885-1.296 1.341zm62.089-2.579a46.66 46.66 0 0 0-1.402-1.229l.847-1.009c.49.412.971.833 1.444 1.265l-.889.973zm-59.442-.044l-.888-.974c.473-.43.954-.852 1.444-1.263l.846 1.01c-.476.4-.944.808-1.402 1.227zm56.586-2.353c-.492-.38-.993-.749-1.501-1.108l.76-1.075c.524.369 1.039.75 1.546 1.14l-.805 1.043zm-53.73-.04l-.803-1.044c.507-.39 1.022-.769 1.545-1.137l.759 1.077c-.508.359-1.009.726-1.501 1.104zm50.682-2.11a44.197 44.197 0 0 0-1.59-.977l.666-1.136c.553.324 1.099.66 1.637 1.006l-.713 1.107zm-47.637-.031l-.711-1.109a47.509 47.509 0 0 1 1.633-1.001l.666 1.136c-.536.315-1.066.639-1.588.974zm44.417-1.855a45.56 45.56 0 0 0-1.667-.84l.567-1.189c.579.276 1.152.564 1.718.864l-.618 1.165zm-41.204-.022l-.616-1.165a46.371 46.371 0 0 1 1.712-.86l.566 1.189c-.56.268-1.114.547-1.662.836zm37.834-1.585a43.505 43.505 0 0 0-1.734-.695l.464-1.233c.601.226 1.197.465 1.786.716l-.516 1.212zm-34.476-.012l-.515-1.213a44.122 44.122 0 0 1 1.777-.71l.463 1.233c-.581.218-1.156.448-1.725.69zm30.981-1.303a42.703 42.703 0 0 0-1.783-.543l.357-1.268c.617.174 1.229.36 1.836.559l-.41 1.252zm-27.497-.005l-.411-1.252a45.324 45.324 0 0 1 1.837-.559l.356 1.268c-.599.168-1.193.35-1.782.543zm23.909-1.004a42.377 42.377 0 0 0-1.822-.389l.248-1.294c.63.121 1.256.255 1.877.401l-.303 1.282zm-20.322-.005l-.302-1.282c.621-.146 1.247-.28 1.877-.4l.248 1.294c-.613.117-1.22.247-1.823.388zm16.662-.697a43.21 43.21 0 0 0-1.849-.234l.137-1.31a44.23 44.23 0 0 1 1.905.241l-.193 1.303zm-13.002-.002l-.192-1.304a45.865 45.865 0 0 1 1.905-.24l.136 1.31a45.09 45.09 0 0 0-1.849.234zm9.296-.387a44.192 44.192 0 0 0-1.863-.078l.028-1.317c.643.014 1.282.041 1.917.08l-.082 1.315zm-5.59-.001l-.082-1.315c.636-.04 1.275-.066 1.918-.079l.026 1.317c-.623.012-1.244.038-1.862.077z"/><circle fill="#FFF" cx="3243.542" cy="2128.267" r="9.702"/><path fill="#21525B" d="M3243.542 2138.268c-5.515 0-10.001-4.487-10.001-10.001 0-5.515 4.487-10.001 10.001-10.001s10.001 4.487 10.001 10.001c.001 5.514-4.486 10.001-10.001 10.001zm0-19.702c-5.349 0-9.7 4.352-9.7 9.7s4.352 9.7 9.7 9.7c5.349 0 9.7-4.351 9.7-9.7s-4.351-9.7-9.7-9.7z"/><circle fill="#FFF" cx="3288.736" cy="2173.021" r="9.702"/><path fill="#21525B" d="M3288.736 2183.022c-5.515 0-10.001-4.487-10.001-10.001s4.487-10.001 10.001-10.001 10.001 4.487 10.001 10.001-4.487 10.001-10.001 10.001zm0-19.642c-5.315 0-9.64 4.324-9.64 9.64s4.324 9.64 9.64 9.64 9.64-4.324 9.64-9.64-4.325-9.64-9.64-9.64z"/><circle fill="#FFF" cx="3243.439" cy="2218.891" r="9.702"/><path fill="#21525B" d="M3243.439 2228.893c-5.515 0-10.002-4.487-10.002-10.001 0-5.515 4.487-10.002 10.002-10.002 5.515 0 10.001 4.487 10.001 10.002 0 5.514-4.486 10.001-10.001 10.001zm0-19.761c-5.381 0-9.759 4.378-9.759 9.759s4.378 9.759 9.759 9.759 9.759-4.377 9.759-9.759-4.378-9.759-9.759-9.759z"/><circle fill="#FFF" cx="3199.228" cy="2173.021" r="9.702"/><path fill="#21525B" d="M3199.228 2183.022c-5.515 0-10.001-4.487-10.001-10.001s4.487-10.001 10.001-10.001c5.515 0 10.001 4.487 10.001 10.001s-4.486 10.001-10.001 10.001zm0-19.648c-5.319 0-9.646 4.327-9.646 9.646 0 5.32 4.327 9.646 9.646 9.646 5.319 0 9.646-4.327 9.646-9.646 0-5.319-4.327-9.646-9.646-9.646z"/><circle fill="#F67B82" cx="3199.228" cy="2169.618" r="2.903"/><path fill="#F67B82" d="M3199.228 2173.033c-2.771 0-3.794 2.694-3.794 5.971h7.589c-.001-3.276-1.024-5.971-3.795-5.971z"/><g fill="#F67B82"><circle cx="3288.736" cy="2169.618" r="2.903"/><path d="M3288.736 2173.033c-2.771 0-3.795 2.694-3.795 5.971h7.589c0-3.276-1.024-5.971-3.794-5.971z"/></g><g fill="#00B1E0"><circle cx="3243.542" cy="2124.059" r="2.903"/><path d="M3243.542 2127.474c-2.771 0-3.794 2.694-3.794 5.971h7.589c0-3.276-1.024-5.971-3.795-5.971z"/></g><g fill="#00B1E0"><circle cx="3243.542" cy="2215.649" r="2.903"/><path d="M3243.542 2219.064c-2.771 0-3.794 2.694-3.794 5.971h7.589c0-3.276-1.024-5.971-3.795-5.971z"/></g><circle fill="#FFF" cx="3243.629" cy="2173.028" r="27.457"/><path fill="#00B1E0" d="M3243.629 2200.979c-15.412 0-27.951-12.539-27.951-27.951 0-15.413 12.539-27.952 27.951-27.952s27.951 12.54 27.951 27.952c.001 15.412-12.538 27.951-27.951 27.951zm0-55.485c-15.182 0-27.534 12.352-27.534 27.534s12.352 27.533 27.534 27.533 27.534-12.351 27.534-27.533-12.351-27.534-27.534-27.534z"/><g fill="#F67B82" stroke="#050000" stroke-width=".5" stroke-miterlimit="10"><circle cx="3243.982" cy="2163.726" r="7.844"/><path d="M3243.981 2172.533c-7.486 0-11.699 7.178-11.699 16.032h23.4c0-8.854-4.214-16.032-11.701-16.032z"/></g><circle fill="#00B1E0" cx="3181.088" cy="2173.579" r="2.544"/><path fill="none" stroke="#00AFDE" stroke-width=".697" stroke-miterlimit="10" stroke-dasharray="2.9728,1.4864" d="M3155.404 2173.579h32.823"/><path fill="#00B1E0" d="M3105.002 2218.402l-.009-1.318a44.366 44.366 0 0 0 1.864-.051l.064 1.315a45.24 45.24 0 0 1-1.919.054zm-1.919-.027a43.268 43.268 0 0 1-1.917-.107l.102-1.314c.616.048 1.236.082 1.859.104l-.044 1.317zm5.753-.158l-.12-1.312a43.544 43.544 0 0 0 1.853-.208l.173 1.306a47.65 47.65 0 0 1-1.906.214zm-9.578-.136a42.644 42.644 0 0 1-1.902-.268l.213-1.301c.61.1 1.225.187 1.844.26l-.155 1.309zm13.381-.371l-.229-1.298a42.138 42.138 0 0 0 1.827-.363l.285 1.286c-.623.138-1.25.262-1.883.375zm-17.17-.245a46.167 46.167 0 0 1-1.871-.428l.321-1.277c.601.151 1.206.29 1.817.415l-.267 1.29zm20.918-.583l-.339-1.273c.602-.16 1.199-.333 1.791-.517l.392 1.257c-.609.19-1.224.368-1.844.533zm-24.641-.351a45.269 45.269 0 0 1-1.829-.586l.43-1.245c.586.202 1.177.392 1.774.569l-.375 1.262zm28.306-.791l-.447-1.24a43.363 43.363 0 0 0 1.74-.668l.498 1.219c-.591.242-1.188.471-1.791.689zm-31.941-.459a45.418 45.418 0 0 1-1.775-.741l.533-1.205c.569.252 1.144.491 1.724.719l-.482 1.227zm35.491-.99l-.551-1.196c.565-.26 1.123-.531 1.674-.812l.6 1.173a47.13 47.13 0 0 1-1.723.835zm-39.008-.566a45.857 45.857 0 0 1-1.705-.888l.634-1.155c.545.299 1.097.586 1.655.862l-.584 1.181zm42.418-1.178l-.649-1.147a45.84 45.84 0 0 0 1.601-.95l.696 1.118c-.541.338-1.091.664-1.648.979zm-45.789-.67a46.262 46.262 0 0 1-1.623-1.029l.729-1.097a45.07 45.07 0 0 0 1.576 1l-.682 1.126zm49.043-1.355l-.743-1.087a45.207 45.207 0 0 0 1.515-1.083l.788 1.055c-.511.383-1.032.754-1.56 1.115zm-52.243-.77a43.958 43.958 0 0 1-1.53-1.162l.82-1.032c.487.387.982.763 1.485 1.129l-.775 1.065zm55.317-1.525l-.832-1.021a45.43 45.43 0 0 0 1.42-1.207l.874.986c-.478.424-.966.838-1.462 1.242zm-58.326-.861a46.85 46.85 0 0 1-1.426-1.286l.903-.959c.453.426.914.843 1.385 1.248l-.862.997zm61.197-1.683l-.915-.948c.448-.432.885-.872 1.314-1.323l.954.909c-.442.463-.893.917-1.353 1.362zm-63.993-.946a45.62 45.62 0 0 1-1.312-1.4l.98-.881c.416.462.84.915 1.274 1.359l-.942.922zm66.641-1.831l-.991-.868c.41-.467.809-.944 1.199-1.429l1.027.826c-.401.498-.813.989-1.235 1.471zm-69.206-1.022a44.707 44.707 0 0 1-1.19-1.506l1.051-.794c.375.496.76.983 1.155 1.461l-1.016.839zm71.612-1.971l-1.061-.782a43.01 43.01 0 0 0 1.075-1.524l1.092.736a43 43 0 0 1-1.106 1.57zm-73.927-1.087a43.753 43.753 0 0 1-1.058-1.599l1.113-.704c.332.525.675 1.043 1.028 1.552l-1.083.751zm76.075-2.098l-1.122-.689c.325-.529.639-1.066.942-1.611l1.151.642c-.312.56-.636 1.113-.971 1.658zm-78.123-1.142a43.986 43.986 0 0 1-.92-1.682l1.169-.607c.286.551.584 1.095.893 1.632l-1.142.657zm79.994-2.216l-1.177-.592c.279-.554.547-1.117.803-1.685l1.201.542a43.732 43.732 0 0 1-.827 1.735zm-81.762-1.184a46.499 46.499 0 0 1-.773-1.752l1.216-.507c.239.573.489 1.141.751 1.701l-1.194.558zm83.343-2.322l-1.223-.489c.231-.578.45-1.161.657-1.749l1.243.437a45.844 45.844 0 0 1-.677 1.801zm-84.814-1.211c-.22-.6-.428-1.205-.623-1.816l1.255-.401c.189.592.391 1.18.605 1.762l-1.237.455zm86.091-2.42l-1.261-.383c.18-.594.349-1.191.505-1.794l1.275.33a46.3 46.3 0 0 1-.519 1.847zm-87.26-1.237a46.043 46.043 0 0 1-.467-1.862l1.285-.293c.138.607.29 1.21.453 1.808l-1.271.347zm88.22-2.48l-1.288-.274c.13-.607.247-1.216.35-1.831l1.299.22a47.124 47.124 0 0 1-.361 1.885zm-89.074-1.261a45.595 45.595 0 0 1-.307-1.895l1.305-.183c.086.617.186 1.231.298 1.84l-1.296.238zm89.716-2.521l-1.307-.166c.078-.615.142-1.232.194-1.854l1.313.109a48.09 48.09 0 0 1-.2 1.911zm-90.25-1.28a44.496 44.496 0 0 1-.146-1.914l1.315-.073c.034.624.082 1.243.142 1.859l-1.311.128zm90.569-2.545l-1.316-.055a44.365 44.365 0 0 0 .022-3.095l1.317-.036a45.254 45.254 0 0 1-.023 3.186zm-90.781-1.287a44.571 44.571 0 0 1 .014-1.92l1.316.038a47.189 47.189 0 0 0-.013 1.863l-1.317.019zm89.397-3.725a45.192 45.192 0 0 0-.167-1.856l1.309-.146c.071.634.128 1.271.173 1.912l-1.315.09zm-87.975-.018l-1.314-.091c.044-.641.102-1.277.173-1.912l1.309.147a43.648 43.648 0 0 0-.168 1.856zm87.561-3.686a44.203 44.203 0 0 0-.323-1.835l1.292-.257c.124.625.235 1.256.333 1.891l-1.302.201zm-87.146-.019l-1.302-.202c.098-.634.21-1.265.335-1.89l1.292.257c-.121.608-.23 1.22-.325 1.835zm86.421-3.635a43.78 43.78 0 0 0-.479-1.802l1.266-.366c.177.614.341 1.232.493 1.856l-1.28.312zm-85.694-.02l-1.28-.311a43.99 43.99 0 0 1 .494-1.856l1.265.366a43.735 43.735 0 0 0-.479 1.801zm84.66-3.56a42.034 42.034 0 0 0-.631-1.755l1.23-.472c.229.597.445 1.199.649 1.807l-1.248.42zm-83.625-.018l-1.249-.419c.205-.61.422-1.213.652-1.811l1.23.472a40.32 40.32 0 0 0-.633 1.758zm82.293-3.457a41.057 41.057 0 0 0-.775-1.69l1.185-.575c.278.574.544 1.155.799 1.741l-1.209.524zm-80.954-.03l-1.208-.524c.255-.589.523-1.172.803-1.749l1.185.575a44.09 44.09 0 0 0-.78 1.698zm79.332-3.317a42.904 42.904 0 0 0-.916-1.62l1.133-.672a47 47 0 0 1 .943 1.668l-1.16.624zm-77.701-.042l-1.16-.626c.304-.564.621-1.122.948-1.672l1.132.674a42.378 42.378 0 0 0-.92 1.624zm75.802-3.159a44.782 44.782 0 0 0-1.049-1.538l1.072-.765c.371.52.732 1.048 1.081 1.584l-1.104.719zm-73.894-.048l-1.102-.721c.351-.536.713-1.065 1.085-1.585l1.072.766a42.317 42.317 0 0 0-1.055 1.54zm71.731-2.981c-.383-.49-.774-.972-1.177-1.446l1.004-.852c.414.487.817.983 1.211 1.488l-1.038.81zm-69.56-.051l-1.038-.812c.394-.504.799-1.001 1.215-1.488l1.002.855c-.403.473-.796.955-1.179 1.445zm67.149-2.788a44.303 44.303 0 0 0-1.294-1.343l.929-.933c.454.451.898.912 1.332 1.382l-.967.894zm-64.731-.051l-.966-.896c.435-.469.88-.93 1.334-1.38l.927.935c-.441.439-.872.885-1.295 1.341zm62.088-2.579a45.454 45.454 0 0 0-1.402-1.229l.847-1.009c.49.411.971.833 1.444 1.265l-.889.973zm-59.442-.044l-.887-.974c.472-.43.954-.852 1.444-1.263l.846 1.01c-.476.399-.944.808-1.403 1.227zm56.587-2.353c-.492-.38-.993-.749-1.501-1.108l.76-1.076c.523.37 1.039.75 1.546 1.14l-.805 1.044zm-53.73-.04l-.803-1.044c.507-.39 1.021-.769 1.545-1.136l.758 1.077c-.508.358-1.008.725-1.5 1.103zm50.682-2.111a45.096 45.096 0 0 0-1.59-.977l.666-1.136c.553.323 1.099.66 1.637 1.006l-.713 1.107zm-47.637-.03l-.711-1.109a47.509 47.509 0 0 1 1.633-1.001l.666 1.136c-.537.315-1.067.639-1.588.974zm44.417-1.855a43.998 43.998 0 0 0-1.667-.839l.567-1.189c.579.276 1.152.564 1.718.864l-.618 1.164zm-41.204-.022l-.616-1.165a46.371 46.371 0 0 1 1.712-.86l.566 1.19c-.561.267-1.115.545-1.662.835zm37.834-1.585a45.069 45.069 0 0 0-1.734-.695l.464-1.233c.602.226 1.197.465 1.786.716l-.516 1.212zm-34.476-.012l-.515-1.213a44.122 44.122 0 0 1 1.777-.71l.463 1.233c-.581.218-1.156.448-1.725.69zm30.98-1.303a43.167 43.167 0 0 0-1.783-.543l.357-1.268c.617.174 1.229.36 1.836.559l-.41 1.252zm-27.496-.006l-.411-1.252a45.324 45.324 0 0 1 1.837-.559l.356 1.268c-.599.169-1.193.35-1.782.543zm23.909-1.004a42.1 42.1 0 0 0-1.823-.389l.248-1.294c.63.121 1.256.255 1.877.401l-.302 1.282zm-20.322-.004l-.302-1.282c.621-.146 1.247-.28 1.877-.4l.248 1.294c-.613.117-1.22.246-1.823.388zm16.661-.697a43.164 43.164 0 0 0-1.848-.234l.137-1.31a44.23 44.23 0 0 1 1.905.241l-.194 1.303zm-13.001-.002l-.192-1.303a46.032 46.032 0 0 1 1.904-.24l.136 1.31c-.619.065-1.236.142-1.848.233zm9.296-.387a44.215 44.215 0 0 0-1.862-.078l.028-1.317c.643.014 1.282.041 1.917.08l-.083 1.315zm-5.59-.001l-.082-1.315c.636-.04 1.275-.066 1.918-.079l.026 1.317c-.624.012-1.244.038-1.862.077z"/><circle fill="#FFF" cx="3104.251" cy="2128.237" r="9.702"/><path fill="#21525B" d="M3104.251 2138.238c-5.515 0-10.001-4.487-10.001-10.001s4.487-10.001 10.001-10.001c5.515 0 10.001 4.487 10.001 10.001s-4.486 10.001-10.001 10.001zm0-19.701c-5.348 0-9.699 4.351-9.699 9.699 0 5.349 4.351 9.699 9.699 9.699s9.699-4.351 9.699-9.699-4.351-9.699-9.699-9.699z"/><circle fill="#FFF" cx="3149.444" cy="2172.99" r="9.702"/><path fill="#21525B" d="M3149.444 2182.992c-5.515 0-10.001-4.487-10.001-10.001s4.487-10.001 10.001-10.001 10.001 4.487 10.001 10.001-4.486 10.001-10.001 10.001zm0-19.631c-5.31 0-9.629 4.32-9.629 9.63s4.32 9.629 9.629 9.629c5.31 0 9.63-4.319 9.63-9.629s-4.32-9.63-9.63-9.63z"/><circle fill="#FFF" cx="3104.147" cy="2218.861" r="9.702"/><path fill="#21525B" d="M3104.147 2228.862c-5.515 0-10.002-4.487-10.002-10.001 0-5.515 4.487-10.002 10.002-10.002 5.515 0 10.001 4.487 10.001 10.002.001 5.515-4.486 10.001-10.001 10.001zm0-19.635c-5.312 0-9.634 4.322-9.634 9.634s4.322 9.634 9.634 9.634 9.634-4.321 9.634-9.634c0-5.312-4.322-9.634-9.634-9.634z"/><circle fill="#FFF" cx="3059.937" cy="2172.99" r="9.702"/><path fill="#21525B" d="M3059.937 2182.992c-5.515 0-10.001-4.487-10.001-10.001s4.487-10.001 10.001-10.001 10.001 4.487 10.001 10.001-4.487 10.001-10.001 10.001zm0-19.758c-5.38 0-9.757 4.376-9.757 9.757s4.377 9.757 9.757 9.757 9.757-4.376 9.757-9.757-4.378-9.757-9.757-9.757z"/><circle fill="#00B1E0" cx="3059.937" cy="2169.588" r="2.903"/><path fill="#00B1E0" d="M3059.936 2173.003c-2.771 0-3.794 2.694-3.794 5.971h7.589c0-3.276-1.024-5.971-3.795-5.971z"/><circle fill="#00B1E0" cx="3149.444" cy="2169.588" r="2.903"/><path fill="#00B1E0" d="M3149.444 2173.003c-2.771 0-3.795 2.694-3.795 5.971h7.589c.001-3.276-1.023-5.971-3.794-5.971z"/><g fill="#F67B82"><circle cx="3104.251" cy="2124.029" r="2.903"/><path d="M3104.251 2127.444c-2.771 0-3.794 2.694-3.794 5.971h7.589c0-3.277-1.024-5.971-3.795-5.971z"/></g><g fill="#F67B82"><circle cx="3104.251" cy="2215.619" r="2.903"/><path d="M3104.251 2219.034c-2.771 0-3.794 2.694-3.794 5.971h7.589c0-3.276-1.024-5.971-3.795-5.971z"/></g><circle fill="#FFF" cx="3104.338" cy="2172.998" r="27.457"/><path fill="#00B1E0" d="M3104.338 2200.949c-15.412 0-27.951-12.539-27.951-27.951 0-15.413 12.539-27.952 27.951-27.952s27.951 12.539 27.951 27.952c0 15.412-12.539 27.951-27.951 27.951zm0-55.645c-15.27 0-27.694 12.424-27.694 27.694s12.424 27.693 27.694 27.693c15.271 0 27.694-12.423 27.694-27.693 0-15.27-12.424-27.694-27.694-27.694z"/><g fill="#00AFDE" stroke="#050000" stroke-width=".5" stroke-miterlimit="10"><circle cx="3104.69" cy="2163.695" r="7.844"/><path d="M3104.69 2172.503c-7.486 0-11.7 7.178-11.7 16.032h23.4c0-8.854-4.213-16.032-11.7-16.032z"/></g><circle fill="#F67B82" cx="3169.624" cy="2173.579" r="1.912"/><path fill="#3BB0DC" d="M3083.102 2588.874a.684.684 0 0 0 .12.959l6.116 4.757h-160.746a.683.683 0 1 0 0 1.367h160.746l-6.116 4.757a.684.684 0 0 0 .839 1.079l7.688-5.98c.01-.008.013-.02.023-.029a.656.656 0 0 0 .065-.064c.009-.011.022-.015.031-.027.009-.012.005-.027.014-.039l.026-.038c.013-.021.031-.039.041-.061a.688.688 0 0 0 .064-.28v-.002a.66.66 0 0 0-.064-.28c-.01-.022-.028-.04-.041-.061l-.026-.039c-.008-.012-.004-.028-.014-.039-.009-.011-.022-.016-.031-.027a.784.784 0 0 0-.065-.064c-.01-.009-.013-.021-.023-.029l-7.688-5.98a.683.683 0 0 0-.959.12zm0-33.293a.684.684 0 0 0 .12.959l6.116 4.757h-84.474a.684.684 0 1 0 0 1.367h84.474l-6.116 4.757a.684.684 0 0 0 .839 1.079l7.688-5.98c.01-.008.013-.02.023-.029a.656.656 0 0 0 .065-.064c.009-.01.022-.015.031-.027.009-.012.005-.027.014-.039.009-.013.018-.025.026-.039.013-.021.031-.038.041-.061a.688.688 0 0 0 .064-.28v-.002a.657.657 0 0 0-.064-.28c-.01-.022-.028-.039-.041-.061l-.026-.038c-.008-.012-.004-.028-.014-.039-.009-.011-.022-.016-.031-.027a.784.784 0 0 0-.065-.064c-.01-.009-.013-.021-.023-.029l-7.688-5.98a.685.685 0 0 0-.959.12z"/><text transform="translate(2938.776 2360.325)" fill="#3BAFDC" font-family="'NotoSansHans-Regular-GBpc-EUC-H'" font-size="14.856">直播流</text><g fill="#EA8888" stroke="#040000" stroke-width=".5" stroke-miterlimit="10"><circle cx="2382.603" cy="2160.216" r="11.932"/><path d="M2382.602 2173.613c-11.387 0-17.797 10.918-17.797 24.387h35.594c0-13.468-6.409-24.387-17.797-24.387z"/></g><g stroke="#2C515A" stroke-width=".45" stroke-miterlimit="10"><path fill="#FFF" d="M2402.935 2200.173h-4.107l.629-4.08h2.849z"/><path fill="#FFF" d="M2404.841 2201.524h-7.919l.789-1.754h6.341z"/><circle fill="#40AFDC" cx="2400.882" cy="2190.699" r="6.644"/><circle fill="#FFF" cx="2400.882" cy="2190.699" r="3.029"/><circle fill="#C7E9F3" cx="2400.882" cy="2190.699" r="1.526"/></g><path fill="#C1ECF5" stroke="#0B0C0C" stroke-width=".392" stroke-miterlimit="10" d="M2344.675 2393.821h71.541v48.02h-71.541z"/><path fill-rule="evenodd" clip-rule="evenodd" fill="#3FB1DE" stroke="#0B0C0C" stroke-width=".355" stroke-miterlimit="10" d="M2399.162 2374.411l-24.787-10.097-16.224 39.826 24.787 10.097 16.224-39.826zm-28.782 32.818a.892.892 0 1 1 .488 1.164.89.89 0 0 1-.488-1.164z"/><circle fill-rule="evenodd" clip-rule="evenodd" fill="#EA8888" cx="2371.206" cy="2407.566" r=".686"/><path fill-rule="evenodd" clip-rule="evenodd" fill="#FFF" stroke="#0B0C0C" stroke-width=".334" stroke-miterlimit="10" d="M2382.425 2408.921l-20.142-8.205 13.408-32.911 20.142 8.206z"/><g stroke-miterlimit="10"><path fill="#C1ECF5" stroke="#21525B" stroke-width=".332" d="M2379.369 2395.468l-2.455-1.792a3.647 3.647 0 0 0-4.245-.038l3.858 2.817-2.428 3.325-3.825-2.793a3.645 3.645 0 0 0 1.361 3.919l2.455 1.792a3.648 3.648 0 0 0 4.33-.02l15.665 11.44a3.648 3.648 0 0 0 1.299 4.131l2.454 1.792a3.645 3.645 0 0 0 4.147.103l-3.825-2.793.122-.167.376.275 2.249-3.079-.376-.275.057-.078 3.858 2.817a3.645 3.645 0 0 0-1.328-4.032l-2.455-1.792a3.648 3.648 0 0 0-4.33.02l-15.665-11.44a3.65 3.65 0 0 0-1.299-4.132z"/><path fill="#C1ECF5" stroke="#21525B" stroke-width=".332" d="M2385.648 2409.365l-1.428-1.043 12.553-17.19.081-.673 1.96-2.684 1.963 1.434-1.954 2.676-.573.222z"/><path fill="#3FB2DF" stroke="#040000" stroke-width=".268" d="M2379.062 2419.883a1.768 1.768 0 1 1-2.856-2.086l7.887-10.8a1.768 1.768 0 1 1 2.856 2.086l-7.887 10.8z"/><path fill="#3FB2DF" stroke="#040000" stroke-width=".268" d="M2384.376 2405.036l4.518 3.3-1.01 1.383-4.518-3.3z"/></g><path fill="#3FB1DE" stroke="#0B0C0C" stroke-width=".392" stroke-miterlimit="10" d="M2408.383 2409.297h-55.875l-7.833-14.836v48.02h71.541v-48.02z"/><path fill="#C1ECF5" stroke="#0B0C0C" stroke-width=".392" stroke-miterlimit="10" d="M3138.877 2393.821h71.541v48.02h-71.541z"/><path fill-rule="evenodd" clip-rule="evenodd" fill="#3FB1DE" stroke="#0B0C0C" stroke-width=".355" stroke-miterlimit="10" d="M3193.365 2374.411l-24.787-10.097-16.224 39.826 24.787 10.097 16.224-39.826zm-28.783 32.818a.892.892 0 1 1 1.654.672.892.892 0 0 1-1.654-.672z"/><circle fill-rule="evenodd" clip-rule="evenodd" fill="#EA8888" cx="3165.408" cy="2407.566" r=".686"/><path fill-rule="evenodd" clip-rule="evenodd" fill="#FFF" stroke="#0B0C0C" stroke-width=".334" stroke-miterlimit="10" d="M3176.63 2408.894l-20.14-8.206 13.407-32.911 20.142 8.206z"/><g stroke-miterlimit="10"><path fill="#C1ECF5" stroke="#21525B" stroke-width=".332" d="M3173.572 2395.468l-2.455-1.792a3.647 3.647 0 0 0-4.245-.038l3.858 2.817-2.428 3.325-3.825-2.793a3.645 3.645 0 0 0 1.361 3.919l2.454 1.792a3.648 3.648 0 0 0 4.33-.02l15.665 11.44a3.648 3.648 0 0 0 1.299 4.131l2.454 1.792a3.645 3.645 0 0 0 4.147.103l-3.825-2.793.122-.167.377.275 2.249-3.079-.376-.275.057-.078 3.858 2.817a3.645 3.645 0 0 0-1.328-4.032l-2.454-1.792a3.648 3.648 0 0 0-4.33.02l-15.665-11.44a3.654 3.654 0 0 0-1.3-4.132z"/><path fill="#C1ECF5" stroke="#21525B" stroke-width=".332" d="M3179.85 2409.365l-1.428-1.043 12.553-17.19.081-.673 1.96-2.684 1.964 1.434-1.955 2.676-.572.222z"/><path fill="#3FB2DF" stroke="#040000" stroke-width=".268" d="M3173.264 2419.883a1.768 1.768 0 1 1-2.856-2.086l7.887-10.8a1.768 1.768 0 1 1 2.856 2.086l-7.887 10.8z"/><path fill="#3FB2DF" stroke="#040000" stroke-width=".268" d="M3178.594 2405.07l4.519 3.3-1.01 1.383-4.519-3.3z"/></g><path fill="#3FB1DE" stroke="#0B0C0C" stroke-width=".392" stroke-miterlimit="10" d="M3202.585 2409.297h-55.875l-7.833-14.836v48.02h71.541v-48.02z"/></svg>