<svg xmlns="http://www.w3.org/2000/svg" width="835" height="535.314" viewBox="0 0 835 535.314"><path d="M314.909 364.645l-2.128 2.128c21.64 17.94 47.167 31.346 75.123 38.722v-3.108c-27.135-7.281-51.931-20.331-72.995-37.742zm-37.752-41.738c-11.608-17.323-20.499-36.612-26.047-57.26h-3.109c5.671 21.459 14.896 41.485 26.994 59.422l2.162-2.162z" fill="#31C98E"/><path fill="#45ADD7" d="M251.017 165.647C269.678 95.683 326.652 41.2 398 26.144v-3.071c-73.008 15.158-131.303 70.949-150.092 142.574h3.109z"/><path fill="#31C98E" d="M478 26.144c71.348 15.056 128.322 69.54 146.983 139.503h3.108C609.303 94.022 551.008 38.231 478 23.073v3.071zm146.891 239.503c-17.879 66.532-70.417 119.006-136.986 136.791v3.108C556.134 387.618 609.977 333.838 628 265.647h-3.109z"/><path d="M418.765 506.769V479.28c0-.558.396-1.012.883-1.012h36.514c.487 0 .884.454.884 1.012v27.489h4.235V479.28c0-3.232-2.297-5.863-5.119-5.863h-36.514c-2.822 0-5.119 2.631-5.119 5.863v27.489h4.236zm43.588 2.648h-48.706a2.647 2.647 0 0 0 0 5.293h48.706a2.647 2.647 0 0 0 0-5.293m-17.461 3.396h-13.783a.75.75 0 0 1 0-1.499h13.783a.75.75 0 0 1 0 1.499m-27.923 18.568a4.066 4.066 0 0 0-.047.656 65.372 65.372 0 0 0-3.516.891l-.188-.656c1.282-.281 2.532-.578 3.751-.891zm-1.547-8.531l.563.328c-.375.813-1.063 1.969-2.063 3.469.813-.094 1.375-.156 1.688-.188v.609c-1.031.094-1.751.188-2.156.281l-.188-.703c.592-.779 1.312-2.045 2.156-3.796zm.844 2.297l.609.281c-.938 1.688-1.813 3.094-2.625 4.219.75-.094 1.547-.203 2.391-.328v.563c-1.47.219-2.469.375-3 .469l-.141-.656c.75-.845 1.671-2.361 2.766-4.548zm6.75-1.172h.563v.609c-1.001 2.281-3.172 3.891-6.516 4.828a3.067 3.067 0 0 0-.375-.703c3.124-.75 5.233-2.187 6.328-4.313v-.421zm-4.078-1.266l.656.234c-.72 1.5-1.5 2.844-2.344 4.031a3.886 3.886 0 0 0-.328-.609 15.96 15.96 0 0 0 2.016-3.656zm-.985 8.766c1.812.469 3.546.969 5.203 1.5-.094.218-.188.452-.281.703a41.593 41.593 0 0 0-5.156-1.594l.234-.609zm.938-6.984c.469 1.156 1.141 2.047 2.016 2.672.813.656 1.969 1.125 3.469 1.406a13.67 13.67 0 0 0-.375.703c-1.5-.375-2.672-.906-3.516-1.594-.969-.75-1.704-1.765-2.203-3.047l.609-.14zm-.375-.563h4.781v.609h-4.781v-.609zm.797 5.344c1.125.345 2.25.72 3.375 1.125a5.43 5.43 0 0 0-.234.656 56.768 56.768 0 0 0-3.422-1.172l.281-.609zm10.762 1.969v.609c-1.219.188-2.422.375-3.609.563l-.094-.563c.688-.124 1.922-.328 3.703-.609zm-3.609-6.141h3.656v.563h-3.656v-.563zm.703 1.688c.281 1.188.563 2.407.844 3.656l-.563.188a95.873 95.873 0 0 0-.797-3.703l.516-.141zm.75-3.938c.438.563.813 1.063 1.125 1.5l-.563.375a20.623 20.623 0 0 0-1.078-1.547l.516-.328zm1.359 3.75l.609.141c-.406 2.094-.828 3.813-1.266 5.156a4.532 4.532 0 0 0-.563-.281c.564-1.657.97-3.328 1.22-5.016zm1.078.422h7.031v.609h-7.031v-.609zm.188 1.828h.563v4.828h-.563v-4.828zm.187-5.297h.563v2.297h-.563v-2.297zm.141 5.297h5.859v.563h-5.859v-.563zm.141-3.562h5.578v.563h-5.578v-.563zm1.5 3.843h.563v3.891h-.563v-3.891zm.609-1.875h.563l-.281 1.781h-.516l.234-1.781zm.375-4.453h.563v2.766h-.563v-2.766zm1.031 6.281h.516v3.797h-.516v-3.797zm1.969-.234h.563v3.656c0 .719-.297 1.078-.891 1.078h-.984a28.578 28.578 0 0 1-.094-.609c.344.03.672.047.984.047.281 0 .422-.172.422-.516v-3.656zm-.234-5.297h.563v2.297h-.563v-2.297zm4.153-.094h.609v4.547c0 1.438-.078 2.586-.234 3.445a7.688 7.688 0 0 1-.797 2.32 20.381 20.381 0 0 0-.422-.609 7.265 7.265 0 0 0 .656-2.109c.124-.844.188-1.844.188-3v-4.594zm.375 0h2.297v.563h-2.297v-.563zm0 2.86h2.297v.563h-2.297v-.563zm0 2.859h2.344v.563h-2.344v-.563zm2.063-5.719h.609v9c0 .78-.313 1.172-.938 1.172-.313 0-.656-.017-1.031-.047a28.118 28.118 0 0 0-.141-.656c.375.063.719.094 1.031.094.312 0 .469-.234.469-.703v-8.86zm1.687.047h.656v10.266h-.656v-10.266zm.188 0h4.969v.609h-4.969v-.609zm.093 3.985h4.922v.609h-4.922v-.609zm4.641 0h.563v.563c-.469 2.407-1.922 4.313-4.359 5.719a15.226 15.226 0 0 0-.422-.563c2.344-1.155 3.75-2.937 4.219-5.344v-.375zm-3.047.093c.405 2.813 1.844 4.657 4.313 5.531a3.643 3.643 0 0 0-.469.563c-2.501-1.001-3.954-2.969-4.359-5.906l.515-.188zm2.953-4.078h.609c0 .656-.017 1.203-.047 1.641-.063.875-.532 1.297-1.406 1.266h-1.734a38.295 38.295 0 0 1-.094-.703 17.79 17.79 0 0 0 1.781.094c.499 0 .766-.25.797-.75.031-.47.063-.985.094-1.548zm12.215.282h.703v.609c-1.688 2.032-4.766 3.469-9.234 4.313a4.985 4.985 0 0 0-.328-.703c3.938-.593 6.891-1.858 8.859-3.797v-.422zm-5.578-1.079l.609.281c-.907 1.344-2 2.563-3.281 3.656a12.542 12.542 0 0 0-.375-.609 12.955 12.955 0 0 0 3.047-3.328zm1.265 5.485h.563c-.031 1.156-.125 2.016-.281 2.578-.5 1.531-1.892 2.578-4.172 3.141a4.882 4.882 0 0 0-.328-.703c2.156-.469 3.469-1.375 3.938-2.719.155-.532.249-1.296.28-2.297zm-3.843 1.125h8.578v.656h-8.578v-.656zm2.25-5.11c1.5 1.969 4.202 3.172 8.109 3.609l-.328.656c-4.188-.531-6.984-1.905-8.391-4.125l.61-.14zm-.282-.421h6.422v.609h-6.422v-.609zm6.282 5.531h.609a82.44 82.44 0 0 1-.188 2.672c-.094 1.094-.656 1.641-1.688 1.641-.688 0-1.329-.017-1.922-.047a7.739 7.739 0 0 0-.141-.844c.593.094 1.281.141 2.063.141.656 0 1.015-.312 1.078-.938.064-.563.125-1.437.189-2.625z" fill="#45ADD7"/><path d="M260.221 353.064l.656.141a19.22 19.22 0 0 1-1.781 4.266 2.241 2.241 0 0 0-.422-.469c.687-1.343 1.202-2.656 1.547-3.938zm-1.359 6h3.422v.563h-3.422v-.563zm.75-2.297h2.25v.563h-2.25v-.563zm.281-2.016h2.344v.609h-2.344v-.609zm.328 2.344h.609v5.297c.469-.281.906-.546 1.313-.797 0 .251.016.5.047.75-.438.251-.797.469-1.078.656a2.654 2.654 0 0 0-.703.516l-.469-.656c.188-.188.281-.499.281-.938v-4.828zm4.406 3.938h.609c-.063.875-.345 1.5-.844 1.875-.469.375-1.203.719-2.203 1.031a10.7 10.7 0 0 0-.375-.609c1.031-.251 1.75-.546 2.156-.891.406-.344.626-.813.657-1.406zm-2.343-4.828h7.266v.516h-7.266v-.516zm.515-2.11h6.328v.563h-6.328v-.563zm.141 3.563h.609v3.469h-.609v-3.469zm.375 1.453h5.297v.516h-5.297v-.516zm0 1.5h5.203v.516h-5.203v-.516zm.047-2.953h5.156v.516h-5.156v-.516zm.937-2.86c.312.438.546.781.703 1.031l-.469.328a23.495 23.495 0 0 0-.703-1.031l.469-.328zm1.547-1.781c.218.406.422.813.609 1.219l-.563.234c-.157-.375-.359-.78-.609-1.219l.563-.234zm1.641 1.828l.563.281c-.313.469-.656.954-1.031 1.453l-.563-.094c.375-.562.718-1.108 1.031-1.64zm-.985 6.188h.609v1.453c.03.405.25.609.656.609h.703c.312 0 .516-.157.609-.469.063-.375.109-.719.141-1.031.188.094.405.172.656.234-.063.406-.125.767-.188 1.078-.125.531-.532.797-1.219.797h-.891c-.781 0-1.142-.392-1.078-1.172v-1.499zm1.688-3.375h.609v3.469h-.609v-3.469zm6.169-4.641l.609.188c-.813 2.501-1.75 4.484-2.813 5.953a18.05 18.05 0 0 0-.281-.703c1.094-1.594 1.922-3.406 2.485-5.438zm-.891 3.656h.563v7.266h-.563v-7.266zm4.313-3.843l.563.328a12.542 12.542 0 0 1-3.563 3.469 7.687 7.687 0 0 0-.375-.516c1.406-.844 2.531-1.938 3.375-3.281zm1.031 5.953l.375.516c-1.125 1.001-2.516 1.875-4.172 2.625a5.287 5.287 0 0 0-.328-.563c1.688-.656 3.063-1.516 4.125-2.578zm0-2.953h.609c-.094 2.094-1.5 3.5-4.219 4.219a4.359 4.359 0 0 0-.422-.563c2.595-.593 3.938-1.812 4.032-3.656zm.375 4.265l.656.094c-1.031 1.344-2.609 2.469-4.734 3.375a5.287 5.287 0 0 0-.328-.563c1.844-.718 3.312-1.687 4.406-2.906zm-3.469-4.547h.609v2.391h-.609v-2.391zm.282 0h6.141v.563H276v-.563zm.046 1.828h6.141v.563h-6.141v-.563zm1.172-3.562h3.422v.563h-3.422v-.563zm1.125 4.266c1.094 1.095 1.641 2.391 1.641 3.891 0 1.219-.516 1.828-1.547 1.828h-1.078a2.575 2.575 0 0 0-.141-.656c.563.03.953.047 1.172.047.625 0 .953-.405.984-1.219-.031-1.343-.531-2.515-1.5-3.516l.469-.375zm1.969-4.266h.609v.563l-.984 1.359h-.797l1.172-1.547v-.375zm1.641 4.687l.375.516a62.876 62.876 0 0 1-2.859 1.688l-.094-.563c1-.531 1.859-1.078 2.578-1.641zm-1.032.985c.344 1.406 1.031 2.469 2.063 3.188-.281.218-.469.391-.563.516-1-.813-1.672-1.969-2.016-3.469l.516-.235zm.938-3.938h.609v2.391h-.609v-2.391zm7.013-2.578l.703.188c-1.001 3.063-2.375 5.454-4.125 7.172a4.254 4.254 0 0 0-.328-.609c1.687-1.719 2.936-3.969 3.75-6.751zm-3.61 1.266h10.875v.609h-10.875v-.609zm1.688 3.328h.656v6.328h-.656v-6.328zm1.406 1.875h7.921v.609h-7.921v-.609zm4.594-.516v3.703c0 .78-.406 1.202-1.219 1.266-.406 0-.938-.017-1.594-.047a3.35 3.35 0 0 0-.141-.656c.687.03 1.219.047 1.594.047.438 0 .656-.204.656-.609v-4.031a54.384 54.384 0 0 0 2.343-1.688h-5.531v-.609h6.421v.75c-.78.562-1.623 1.188-2.529 1.874zm7.573-5.859l.516.188c-.719 2.469-1.547 4.438-2.484 5.906a4.789 4.789 0 0 0-.234-.703c.968-1.594 1.702-3.391 2.202-5.391zm-.796 3.609h.516v7.219h-.516v-7.219zm3.984 4.547c0 .345.016.579.047.703-.938.563-1.547.968-1.828 1.219l-.422-.516c.219-.188.328-.499.328-.938v-3.984h-1.031v-.563h1.641v4.922c.406-.28.827-.562 1.265-.843zm-1.781-7.687c.469.626.891 1.203 1.266 1.734l-.563.422a25.624 25.624 0 0 0-1.172-1.828l.469-.328zm6.937.375l.516.281c-.688 1.095-1.406 2.032-2.156 2.813-.969 1.031-2.375 2.094-4.219 3.188a28.531 28.531 0 0 1-.328-.563c1.563-.813 2.828-1.703 3.797-2.672.812-.781 1.609-1.797 2.39-3.047zm-5.484 2.906h6v.563h-6v-.563zm.422-2.344h3.797v.563h-3.797v-.563zm.797 4.547h.609v4.875h-.609v-4.875zm.187 3.516h3.563v.563h-3.563v-.563zm.047-3.938h3.797v.563h-3.797v-.563zm0 1.969h3.563v.563h-3.563v-.563zm.516-7.547h.609v3.984h-.609v-3.984zm2.625 5.906h.656v4.969h-.656v-4.969z" fill="#33B898"/><path d="M418.765 33.353V5.863c0-.558.396-1.012.883-1.012h36.514c.487 0 .884.454.884 1.012v27.489h4.235V5.863c0-3.232-2.297-5.863-5.119-5.863h-36.514c-2.822 0-5.119 2.631-5.119 5.863v27.489h4.236zM462.353 36h-48.706a2.647 2.647 0 0 0 0 5.293h48.706a2.647 2.647 0 0 0 0-5.293m-17.461 3.396h-13.783a.75.75 0 0 1 0-1.499h13.783a.75.75 0 0 1 0 1.499m170.274 146.699h36.591l5.578 15.388h-48.509l6.34-15.388zm-1.826-2.885L605 204.368h56l-7.338-21.157H613.34zm44.95 39.492c0 2.256-1.68 4.092-3.743 4.092h-43.091c-2.064 0-3.743-1.836-3.743-4.092v-18.325h-2.694v18.325c0 3.881 2.888 7.038 6.438 7.038h43.091c3.549 0 6.437-3.157 6.437-7.038v-18.325h-2.693v18.325z" fill="#45ADD7"/><path fill="#45ADD7" d="M607.713 214.291h51.676v2.642h-51.676zm7.273-.991c-2.023 0-3.669-1.646-3.669-3.669s1.646-3.671 3.669-3.671c2.024 0 3.67 1.647 3.67 3.671s-1.645 3.669-3.67 3.669zm0-5.579a1.909 1.909 0 1 0 0 3.818 1.909 1.909 0 0 0 0-3.818zm28.806 1.987a1.435 1.435 0 1 1-2.87 0 1.435 1.435 0 0 1 2.87 0m6.321 0a1.435 1.435 0 1 1-2.87 0 1.435 1.435 0 0 1 2.87 0m5.792 0a1.435 1.435 0 1 1-2.87 0 1.435 1.435 0 0 1 2.87 0m-12.113 11.518a1.435 1.435 0 1 1-2.87 0 1.435 1.435 0 0 1 2.87 0m6.321 0a1.435 1.435 0 1 1-2.87 0 1.435 1.435 0 0 1 2.87 0m5.792 0a1.435 1.435 0 1 1-2.87 0 1.435 1.435 0 0 1 2.87 0m-40.919 3.67a3.673 3.673 0 0 1-3.669-3.67 3.673 3.673 0 0 1 3.669-3.67 3.674 3.674 0 0 1 3.67 3.67 3.673 3.673 0 0 1-3.67 3.67zm0-5.578a1.909 1.909 0 0 0 0 3.816 1.909 1.909 0 0 0 0-3.816zm-389.82-33.223h36.591l5.578 15.388h-48.509l6.34-15.388zm-1.826-2.885L215 204.368h56l-7.338-21.157H223.34zm44.95 39.492c0 2.256-1.68 4.092-3.743 4.092h-43.091c-2.064 0-3.743-1.836-3.743-4.092v-18.325h-2.694v18.325c0 3.881 2.888 7.038 6.438 7.038h43.091c3.549 0 6.437-3.157 6.437-7.038v-18.325h-2.693v18.325z"/><path fill="#45ADD7" d="M217.713 214.291h51.676v2.642h-51.676zm7.273-.991c-2.023 0-3.669-1.646-3.669-3.669s1.646-3.671 3.669-3.671c2.024 0 3.67 1.647 3.67 3.671s-1.645 3.669-3.67 3.669zm0-5.579a1.909 1.909 0 1 0 0 3.818 1.909 1.909 0 0 0 0-3.818zm28.806 1.987a1.435 1.435 0 1 1-2.87 0 1.435 1.435 0 0 1 2.87 0m6.321 0a1.435 1.435 0 1 1-2.87 0 1.435 1.435 0 0 1 2.87 0m5.792 0a1.435 1.435 0 1 1-2.87 0 1.435 1.435 0 0 1 2.87 0m-12.113 11.518a1.435 1.435 0 1 1-2.87 0 1.435 1.435 0 0 1 2.87 0m6.321 0a1.435 1.435 0 1 1-2.87 0 1.435 1.435 0 0 1 2.87 0m5.792 0a1.435 1.435 0 1 1-2.87 0 1.435 1.435 0 0 1 2.87 0m-40.919 3.67a3.673 3.673 0 0 1-3.669-3.67 3.673 3.673 0 0 1 3.669-3.67 3.674 3.674 0 0 1 3.67 3.67 3.673 3.673 0 0 1-3.67 3.67zm0-5.578a1.909 1.909 0 0 0 0 3.816 1.909 1.909 0 0 0 0-3.816zm231.746 213.833h-41.409c-6.796 0-12.324-5.529-12.324-12.323 0-3.969 1.911-7.662 5.075-9.966a9.914 9.914 0 0 1-.146-1.703c0-5.615 4.57-10.187 10.188-10.187 1.54 0 3.046.35 4.413 1.012a19.512 19.512 0 0 1 18.098-12.186c8.276 0 15.66 5.28 18.408 12.998 7.933 1.124 13.964 7.942 13.964 16.087.001 8.97-7.297 16.268-16.267 16.268m-38.615-30.234a6.25 6.25 0 0 0-6.245 6.242c0 .665.11 1.331.326 1.978l.519 1.559-1.437.793a8.387 8.387 0 0 0-4.337 7.34c0 4.62 3.759 8.38 8.38 8.38h41.409c6.794 0 12.323-5.529 12.323-12.324 0-6.52-5.104-11.916-11.617-12.286l-1.41-.081-.378-1.357c-1.873-6.722-8.052-11.417-15.022-11.417a15.578 15.578 0 0 0-15.118 11.793l-.799 3.167-2.431-2.184a6.221 6.221 0 0 0-4.163-1.603m3.914-194.499h.656v.563c-1.688 2.031-4.766 3.453-9.234 4.266a3.264 3.264 0 0 0-.328-.656c3.938-.594 6.906-1.844 8.906-3.75v-.423zm-5.625-1.125l.609.281c-.907 1.344-2 2.563-3.281 3.656a7.883 7.883 0 0 0-.375-.563 13.637 13.637 0 0 0 3.047-3.374zm-1.593 5.954h.609v5.063h-.609v-5.063zm.281 4.125h7.219v.469h-7.219v-.469zm.047-4.125h7.172v.469h-7.172v-.469zm.14 2.062h7.219v.469h-7.219v-.469zm.844-6.516c1.469 1.969 4.172 3.156 8.109 3.563a6.576 6.576 0 0 0-.328.656c-4.188-.5-7.001-1.859-8.438-4.078l.657-.141zm-.328-.375h6.469v.609h-6.469v-.609zm2.672 5.11h.563v4.031h-.563v-4.031zm3.609-.281h.656v5.063h-.656v-5.063zm6.872-5.719l.656.234c-.875 2.438-1.859 4.375-2.953 5.813a6.368 6.368 0 0 0-.328-.656c1.156-1.563 2.031-3.36 2.625-5.391zm-.937 3.609h.609v7.172h-.609v-7.172zm4.125-3.281l.609.281c-.813 1.656-1.922 3.234-3.328 4.734a6.43 6.43 0 0 0-.469-.516c1.375-1.405 2.438-2.905 3.188-4.499zm-.141 4.969h.609c0 1.469-.203 2.578-.609 3.328-.438.781-1.25 1.5-2.438 2.156l-.469-.656c1.094-.5 1.875-1.141 2.344-1.922.376-.625.563-1.594.563-2.906zm-1.594-.375h5.016v.609h-5.016v-.609zm4.688 0h.656a59.194 59.194 0 0 1-.188 3.938c-.063 1.125-.563 1.688-1.5 1.688h-1.547a6.774 6.774 0 0 0-.141-.703c.563.029 1.078.047 1.547.047.625 0 .969-.375 1.031-1.125.064-.814.111-2.095.142-3.845zm-.938-5.016c.656 1.938 1.781 3.469 3.375 4.594a2.98 2.98 0 0 0-.563.516c-1.656-1.25-2.766-2.906-3.328-4.969l.516-.141zm6.216.563h.656v10.172h-.656v-10.172zm.375 0h8.906v.656h-8.906v-.656zm1.172 2.25h6.422v.609h-6.422v-.609zm.891 2.109h.656v3.563h-.656v-3.563zm.328 0h3.797v.563h-3.797v-.563zm0 3h3.797v.563h-3.797v-.563zm3.656-3h.656v3.563h-.656v-3.563zm2.484-4.359h.656v9.094c0 .75-.422 1.125-1.266 1.125-.406 0-.969-.018-1.688-.047a8.177 8.177 0 0 0-.141-.656c.687.063 1.202.094 1.547.094.593 0 .891-.252.891-.75v-8.86zm3.684 3.703h10.734v.609h-10.734v-.609zm9.328 2.062l.563.516c-1.095 1.156-2.422 2.063-3.984 2.719-1.875.75-3.75 1.234-5.625 1.453-.031-.125-.125-.359-.281-.703 1.969-.219 3.797-.656 5.484-1.313 1.562-.687 2.842-1.578 3.843-2.672zm-6.516-.515l.563.328c-.75.969-1.688 1.844-2.813 2.625a10.03 10.03 0 0 0-.516-.469 9.496 9.496 0 0 0 2.766-2.484zm-.937-4.782h.703v3.422h-.703v-3.422zm3.281 4.313h.703v3.141h-.703v-3.141zm.094-5.391h.703v4.547h-.703v-4.547zm.328 1.735h4.266v.609h-4.266v-.609zM416.969 57.965a4.066 4.066 0 0 0-.047.656 65.372 65.372 0 0 0-3.516.891l-.188-.656a113.25 113.25 0 0 0 3.751-.891zm-1.547-8.531l.563.328c-.375.813-1.063 1.969-2.063 3.469.813-.094 1.375-.156 1.688-.188v.609c-1.031.094-1.751.188-2.156.281l-.188-.703c.592-.78 1.312-2.045 2.156-3.796zm.844 2.296l.609.281c-.938 1.688-1.813 3.094-2.625 4.219.75-.094 1.547-.203 2.391-.328v.563c-1.47.219-2.469.375-3 .469l-.141-.656c.75-.844 1.671-2.36 2.766-4.548zm6.75-1.171h.563v.609c-1.001 2.281-3.172 3.891-6.516 4.828a3.067 3.067 0 0 0-.375-.703c3.124-.75 5.233-2.187 6.328-4.313v-.421zm-4.078-1.266l.656.234c-.72 1.5-1.5 2.844-2.344 4.031a3.886 3.886 0 0 0-.328-.609 15.982 15.982 0 0 0 2.016-3.656zm-.985 8.766c1.812.469 3.546.969 5.203 1.5-.094.218-.188.452-.281.703a41.593 41.593 0 0 0-5.156-1.594l.234-.609zm.938-6.985c.469 1.156 1.141 2.047 2.016 2.672.813.656 1.969 1.125 3.469 1.406a13.67 13.67 0 0 0-.375.703c-1.5-.375-2.672-.906-3.516-1.594-.969-.75-1.704-1.765-2.203-3.047l.609-.14zm-.375-.562h4.781v.609h-4.781v-.609zm.797 5.343c1.125.345 2.25.72 3.375 1.125a5.43 5.43 0 0 0-.234.656 56.768 56.768 0 0 0-3.422-1.172l.281-.609zm10.762 1.969v.609c-1.219.188-2.422.375-3.609.563l-.094-.563c.688-.123 1.922-.328 3.703-.609zm-3.609-6.14h3.656v.563h-3.656v-.563zm.703 1.687c.281 1.188.563 2.407.844 3.656l-.563.188a95.873 95.873 0 0 0-.797-3.703l.516-.141zm.75-3.937c.438.563.813 1.063 1.125 1.5l-.563.375a20.623 20.623 0 0 0-1.078-1.547l.516-.328zm1.359 3.75l.609.141c-.406 2.094-.828 3.813-1.266 5.156a4.532 4.532 0 0 0-.563-.281 28.51 28.51 0 0 0 1.22-5.016zm1.078.421h7.031v.609h-7.031v-.609zm.188 1.829h.563v4.828h-.563v-4.828zm.187-5.297h.563v2.297h-.563v-2.297zm.141 5.297h5.859v.563h-5.859v-.563zm.141-3.563h5.578v.563h-5.578v-.563zm1.5 3.844h.563v3.891h-.563v-3.891zm.609-1.875h.563l-.281 1.781h-.516l.234-1.781zm.375-4.453h.563v2.766h-.563v-2.766zm1.031 6.281h.516v3.797h-.516v-3.797zm1.969-.234h.563v3.656c0 .719-.297 1.078-.891 1.078h-.984a28.578 28.578 0 0 1-.094-.609c.344.03.672.047.984.047.281 0 .422-.172.422-.516v-3.656zm-.234-5.297h.563v2.297h-.563v-2.297zm4.153-.094h.609v4.547c0 1.438-.078 2.586-.234 3.445a7.688 7.688 0 0 1-.797 2.32 20.381 20.381 0 0 0-.422-.609 7.265 7.265 0 0 0 .656-2.109c.124-.844.188-1.844.188-3v-4.594zm.375 0h2.297v.563h-2.297v-.563zm0 2.859h2.297v.563h-2.297v-.563zm0 2.86h2.344v.563h-2.344v-.563zm2.063-5.719h.609v9c0 .78-.313 1.172-.938 1.172-.313 0-.656-.017-1.031-.047a28.118 28.118 0 0 0-.141-.656c.375.063.719.094 1.031.094.312 0 .469-.234.469-.703v-8.86zm1.687.047h.656v10.266h-.656V50.09zm.188 0h4.969v.609h-4.969v-.609zm.093 3.984h4.922v.609h-4.922v-.609zm4.641 0h.563v.563c-.469 2.407-1.922 4.313-4.359 5.719a15.226 15.226 0 0 0-.422-.563c2.344-1.155 3.75-2.937 4.219-5.344v-.375zm-3.047.094c.405 2.813 1.844 4.657 4.313 5.531a3.643 3.643 0 0 0-.469.563c-2.501-1.001-3.954-2.969-4.359-5.906l.515-.188zm2.953-4.078h.609c0 .656-.017 1.203-.047 1.641-.063.875-.532 1.297-1.406 1.266h-1.734a38.295 38.295 0 0 1-.094-.703 17.79 17.79 0 0 0 1.781.094c.499 0 .766-.25.797-.75.031-.47.063-.986.094-1.548zm12.215.281h.703v.609c-1.688 2.032-4.766 3.469-9.234 4.313a4.985 4.985 0 0 0-.328-.703c3.938-.593 6.891-1.858 8.859-3.797v-.422zm-5.578-1.078l.609.281c-.907 1.344-2 2.563-3.281 3.656a12.542 12.542 0 0 0-.375-.609 12.971 12.971 0 0 0 3.047-3.328zm1.265 5.484h.563c-.031 1.156-.125 2.016-.281 2.578-.5 1.531-1.892 2.578-4.172 3.141a4.882 4.882 0 0 0-.328-.703c2.156-.469 3.469-1.375 3.938-2.719.155-.531.249-1.296.28-2.297zm-3.843 1.125h8.578v.656h-8.578v-.656zm2.25-5.109c1.5 1.969 4.202 3.172 8.109 3.609l-.328.656c-4.188-.531-6.984-1.905-8.391-4.125l.61-.14zm-.282-.422h6.422v.609h-6.422v-.609zm6.282 5.531h.609a82.44 82.44 0 0 1-.188 2.672c-.094 1.094-.656 1.641-1.688 1.641-.688 0-1.329-.017-1.922-.047a7.739 7.739 0 0 0-.141-.844c.593.094 1.281.141 2.063.141.656 0 1.015-.312 1.078-.938.064-.562.125-1.436.189-2.625zm183.153 3.164h10.938v.766h-10.938v-.766zm.438-6.344h10.391v.766h-10.391v-.766zm.82-4.101c.583.656 1.275 1.459 2.078 2.406l-.711.656c-.766-.947-1.44-1.786-2.023-2.516l.656-.546zm-.438 7.273h10.281v.711h-10.281v-.711zm4.758-8.094h.82v5.414h-.82V47.8zm5.469.821l.547.711a84.877 84.877 0 0 0-2.57 2.352l-.547-.82a39.84 39.84 0 0 0 2.57-2.243zm-.492 4.101h.82v7.875h-.82v-7.875zm15.706-3.937h.766v.82c-.656 2.99-1.933 5.451-3.828 7.383-1.386 1.422-3.5 2.57-6.344 3.445a3.99 3.99 0 0 0-.492-.82c2.625-.692 4.703-1.731 6.234-3.117 1.859-1.859 3.08-4.266 3.664-7.219v-.492zm-8.805 0h9.188v.766h-9.188v-.766zm1.149.492h.82c.619 3.172 1.859 5.651 3.719 7.438 1.239 1.131 3.208 2.061 5.906 2.789-.219.291-.42.583-.602.875-2.625-.839-4.648-1.914-6.07-3.227-1.823-1.786-3.081-4.411-3.773-7.875zm16.581-1.422h.93v11.266c0 .619-.383 1.002-1.148 1.148-.292.036-.875.055-1.75.055a8.483 8.483 0 0 0-.164-.82c.619.036 1.094.055 1.422.055.474 0 .711-.183.711-.547V47.855zm2.57 5.633c.036.219.055.456.055.711-1.604.438-3.154.875-4.648 1.313l-.109-.82c1.566-.365 3.134-.767 4.702-1.204zm-4.649-3.117h4.703v.656h-4.703v-.656zm5.524-.711h.82v10.719h-.82V49.66zm.437 4.593h5.578v.711h-5.578v-.711zm.055-4.593h5.523v.711h-5.523v-.711zm0 9.132h5.523v.711h-5.523v-.711zm2.133-11.046l.93.328a18.272 18.272 0 0 1-.875 1.914l-.82-.219c.29-.656.546-1.33.765-2.023zm3.117 1.914h.875v10.773h-.875V49.66zm5.645 3.117h12.742v.82h-12.742v-.82zm5.523.219l.766.547a50.138 50.138 0 0 1-3.992 4.813c2.15-.072 4.758-.2 7.82-.383.182.292.383.565.602.82a431.73 431.73 0 0 0-8.367.492 5.732 5.732 0 0 0-1.148.219l-.383-1.094a3.4 3.4 0 0 0 .984-.602c1.312-1.385 2.551-2.989 3.718-4.812zm-4.32-4.266h10.281v.82h-10.281v-.82zm7 5.961a367.074 367.074 0 0 1 3.828 4.813l-.82.602a103.997 103.997 0 0 0-3.719-4.977l.711-.438zm12.753-6.945l.82.219c-1.167 3.573-2.771 6.362-4.813 8.367a4.878 4.878 0 0 0-.383-.711c1.969-2.005 3.427-4.63 4.376-7.875zm-4.211 1.476h12.688v.711h-12.688v-.711zm1.969 3.883h.766v7.383h-.766v-7.383zm1.64 2.187h9.242v.711h-9.242v-.711zm5.36-.601v4.32c0 .911-.475 1.403-1.422 1.477-.475 0-1.094-.019-1.859-.055a4.126 4.126 0 0 0-.164-.766c.802.036 1.422.055 1.859.055.51 0 .766-.237.766-.711v-4.703a62.782 62.782 0 0 0 2.734-1.969h-6.453v-.711h7.492v.875c-.912.657-1.897 1.386-2.953 2.188zm10.237-6.836l.602.219c-.839 2.881-1.805 5.178-2.898 6.891a5.513 5.513 0 0 0-.273-.82c1.128-1.86 1.985-3.956 2.569-6.29zm-.93 4.211h.602v8.422h-.602v-8.422zm4.649 5.305c0 .401.018.675.055.82-1.094.656-1.805 1.13-2.133 1.422l-.492-.602c.255-.219.383-.583.383-1.094v-4.648h-1.203v-.656h1.914v5.742c.473-.328.965-.656 1.476-.984zm-2.079-8.969a90.075 90.075 0 0 1 1.477 2.023l-.656.492a30.012 30.012 0 0 0-1.367-2.133l.546-.382zm8.094.437l.602.328c-.803 1.276-1.641 2.37-2.516 3.281-1.131 1.203-2.771 2.443-4.922 3.719-.109-.182-.237-.4-.383-.656 1.822-.947 3.299-1.986 4.43-3.117.947-.911 1.877-2.096 2.789-3.555zm-6.398 3.391h7v.656h-7v-.656zm.492-2.734h4.43v.656h-4.43v-.656zm.93 5.304h.711v5.688h-.711V54.8zm.218 4.102h4.156v.656h-4.156v-.656zm.055-4.594h4.43v.656h-4.43v-.656zm0 2.297h4.156v.656h-4.156v-.656zm.602-8.805h.711v4.648h-.711V47.8zm3.062 6.891h.766v5.797h-.766v-5.797zm6.628.656h.82v4.43h-.82v-4.43zm.383-5.906h.82v4.211h-.82v-4.211zm.219 9.57h10.008v.766h-10.008v-.766zm.164-6.125h9.242v.766h-9.242v-.766zm4.265-4.922h.82v11.375h-.82V47.964zm4.539 1.477h.82v4.211h-.82v-4.211zm.493 5.906h.82v4.977h-.82v-4.977zm10.346 1.531c0 .256.018.511.055.766-1.604.438-3.136.894-4.594 1.367l-.109-.82c1.531-.4 3.08-.838 4.648-1.313zm-4.484-7.984h4.484v.711h-4.484v-.711zm.055 3.938h4.266v.711h-4.266v-.711zm1.804-3.665h.766v8.695h-.766v-8.695zm6.125 1.204h.766c0 1.714-.055 2.972-.164 3.773-.401 2.734-1.878 4.867-4.43 6.398a4.292 4.292 0 0 0-.547-.656c2.442-1.385 3.864-3.317 4.266-5.797.072-.509.109-1.75.109-3.718zm-2.625-1.969h.766v7.93h-.766v-7.93zm.438 0h5.305v.766h-5.305v-.766zm2.625 7.328h.711v2.898c0 .511.236.766.711.766h.984c.474 0 .747-.219.82-.656.109-.474.182-.984.219-1.531.291.109.547.201.766.273a17.856 17.856 0 0 1-.273 1.477c-.146.766-.62 1.148-1.422 1.148h-1.203c-.875 0-1.313-.475-1.313-1.422V55.73zm2.242-7.328h.766v7.711h-.766v-7.711zm8.543 2.625l.656.383a25.465 25.465 0 0 1-2.516 2.68 4.76 4.76 0 0 1-.602-.438 18.279 18.279 0 0 0 2.462-2.625zm6.836 3.664h.766v.766c-.948 1.35-2.097 2.406-3.445 3.172-1.495.802-3.537 1.458-6.125 1.969a29.075 29.075 0 0 1-.492-.766c2.771-.511 4.721-1.075 5.852-1.695 1.349-.656 2.497-1.641 3.445-2.953v-.493zm-9.133-5.305h12.414v.656h-12.414v-.656zm1.805 5.305h7.711v.656h-7.711v-.656zm1.531.437c1.641 2.479 4.685 3.992 9.133 4.539a5.663 5.663 0 0 0-.383.82c-4.703-.656-7.857-2.388-9.461-5.195l.711-.164zm.82-5.414h.766v4.648h-.766v-4.648zm1.696-2.023c.438.511.82.967 1.148 1.367l-.711.438a15.026 15.026 0 0 0-1.094-1.422l.657-.383zm1.531 2.078h.766v4.539h-.766v-4.539zm2.406 1.313a63.667 63.667 0 0 1 2.68 2.516l-.656.492a42.728 42.728 0 0 0-2.57-2.57l.546-.438zM798 53.269h.875a72.987 72.987 0 0 1-2.023 4.484c1.094-.109 2.424-.255 3.992-.438v.82a69.725 69.725 0 0 0-4.156.492 2.202 2.202 0 0 0-.82.273l-.383-.93c.328-.146.564-.383.711-.711a38.132 38.132 0 0 0 1.804-3.99zm-2.352-.602h6.125v.711h-6.125v-.711zm.547-3.773h5.031v.711h-5.031v-.711zm3.719 6.234a95.43 95.43 0 0 1 1.641 3.336l-.711.438a49.665 49.665 0 0 0-1.586-3.391l.656-.383zm3.445-7.328h.875v4.758c0 3.428-.912 6.07-2.734 7.93a68.573 68.573 0 0 0-.602-.711c1.641-1.713 2.461-4.138 2.461-7.273V47.8zm-1.75 2.789h6.016v.766h-6.016v-.766zm5.524.055h.82c-.073 3.354-.146 5.87-.219 7.547-.073 1.313-.693 1.969-1.859 1.969-.292 0-.766-.019-1.422-.055a8.483 8.483 0 0 0-.164-.82c.619.036 1.148.055 1.586.055.656 0 1.002-.419 1.039-1.258.072-1.787.146-4.266.219-7.438zm5.917-1.641h.766v10.445h-.766V49.003zm.328 0h3.117v.656h-3.117v-.656zm.109 4.375h2.898v.711h-2.898v-.711zm0 4.43h2.844v.711h-2.844v-.711zm2.461-8.805h.766v10.172h-.766V49.003zm1.969 1.532h7.383v.711h-7.383v-.711zm1.367 2.461c.474.948.911 1.896 1.313 2.844l-.656.328a32.485 32.485 0 0 0-1.258-2.844l.601-.328zm3.445-5.141h.711v10.883c0 .984-.438 1.477-1.313 1.477-.475 0-.984-.019-1.531-.055a5.61 5.61 0 0 0-.164-.82c.474.036.975.055 1.504.055.528 0 .793-.273.793-.82v-10.72zM9.284 386.542c1.203-1.166 2.26-2.661 3.172-4.484l.656.328c-1.021 2.006-2.188 3.664-3.5 4.977a9.294 9.294 0 0 0-.328-.821zm.055-4.157c1.13-.984 2.096-2.205 2.898-3.664l.602.438a18.172 18.172 0 0 1-3.117 3.992l-.383-.766zm1.75 2.844h.711v6.18h-.711v-6.18zm2.297-1.859h8.805v.711h-8.805v-.711zm.109 2.625h8.695v.711h-8.695v-.711zm.492-5.469h7.602v.711h-7.602v-.711zm1.039 6.945c.438.511.893 1.058 1.367 1.641l-.656.438a22.948 22.948 0 0 0-1.313-1.695l.602-.384zm4.157-3.008h.766v5.633c0 .838-.492 1.258-1.477 1.258h-1.914a5.947 5.947 0 0 0-.164-.766c.802.036 1.439.055 1.914.055.583 0 .875-.292.875-.875v-5.305zm-1.805-5.796h.766v5.141h-.766v-5.141zm18.714 1.039h.766v.82c-.656 2.99-1.933 5.451-3.828 7.383-1.386 1.422-3.5 2.57-6.344 3.445a3.99 3.99 0 0 0-.492-.82c2.625-.692 4.703-1.731 6.234-3.117 1.859-1.859 3.08-4.266 3.664-7.219v-.492zm-8.805 0h9.188v.766h-9.188v-.766zm1.149.492h.82c.619 3.172 1.859 5.651 3.719 7.438 1.239 1.131 3.208 2.061 5.906 2.789-.219.291-.42.583-.602.875-2.625-.839-4.648-1.914-6.07-3.227-1.823-1.786-3.081-4.411-3.773-7.875zm16.581-1.422h.93v11.266c0 .619-.383 1.002-1.148 1.148-.292.036-.875.055-1.75.055a8.483 8.483 0 0 0-.164-.82c.619.036 1.094.055 1.422.055.474 0 .711-.183.711-.547v-11.157zm2.57 5.633c.036.219.055.456.055.711-1.604.438-3.154.875-4.648 1.313l-.109-.82c1.566-.365 3.134-.767 4.702-1.204zm-4.649-3.117h4.703v.656h-4.703v-.656zm5.524-.711h.82V391.3h-.82v-10.719zm.437 4.593h5.578v.711h-5.578v-.711zm.055-4.593h5.523v.711h-5.523v-.711zm0 9.132h5.523v.711h-5.523v-.711zm2.133-11.046l.93.328a18.272 18.272 0 0 1-.875 1.914l-.82-.219c.29-.656.546-1.33.765-2.023zm3.117 1.914h.875v10.773h-.875v-10.773zm5.645 3.117h12.742v.82H59.849v-.82zm5.523.219l.766.547a50.138 50.138 0 0 1-3.992 4.813c2.15-.072 4.758-.2 7.82-.383.182.292.383.565.602.82a431.73 431.73 0 0 0-8.367.492 5.732 5.732 0 0 0-1.148.219l-.383-1.094a3.4 3.4 0 0 0 .984-.602c1.312-1.385 2.551-2.989 3.718-4.812zm-4.32-4.266h10.281v.82H61.052v-.82zm7 5.961a367.074 367.074 0 0 1 3.828 4.813l-.82.602a103.997 103.997 0 0 0-3.719-4.977l.711-.438zm12.753-6.945l.82.219c-1.167 3.573-2.771 6.362-4.813 8.367a4.878 4.878 0 0 0-.383-.711c1.969-2.005 3.427-4.63 4.376-7.875zm-4.211 1.476h12.688v.711H76.594v-.711zm1.969 3.883h.766v7.383h-.766v-7.383zm1.64 2.187h9.242v.711h-9.242v-.711zm5.36-.601v4.32c0 .911-.475 1.403-1.422 1.477-.475 0-1.094-.019-1.859-.055a4.126 4.126 0 0 0-.164-.766c.802.036 1.422.055 1.859.055.51 0 .766-.237.766-.711v-4.703a62.782 62.782 0 0 0 2.734-1.969h-6.453v-.711h7.492v.875c-.912.657-1.897 1.386-2.953 2.188zm10.237-6.836l.602.219c-.839 2.881-1.805 5.178-2.898 6.891a5.513 5.513 0 0 0-.273-.82c1.128-1.86 1.985-3.956 2.569-6.29zm-.93 4.211h.602v8.422h-.602v-8.422zm4.649 5.305c0 .401.018.675.055.82-1.094.656-1.805 1.13-2.133 1.422l-.492-.602c.255-.219.383-.583.383-1.094v-4.648h-1.203v-.656h1.914v5.742c.473-.328.965-.656 1.476-.984zm-2.079-8.969a90.075 90.075 0 0 1 1.477 2.023l-.656.492a30.012 30.012 0 0 0-1.367-2.133l.546-.382zm8.094.437l.602.328c-.803 1.276-1.641 2.37-2.516 3.281-1.131 1.203-2.771 2.443-4.922 3.719-.109-.182-.237-.4-.383-.656 1.822-.947 3.299-1.986 4.43-3.117.947-.911 1.877-2.096 2.789-3.555zm-6.398 3.391h7v.656h-7v-.656zm.492-2.734h4.43v.656h-4.43v-.656zm.93 5.304h.711v5.688h-.711v-5.688zm.218 4.102h4.156v.656h-4.156v-.656zm.055-4.594h4.43v.656h-4.43v-.656zm0 2.297h4.156v.656h-4.156v-.656zm.602-8.805h.711v4.648h-.711v-4.648zm3.062 6.891h.766v5.797h-.766v-5.797zm6.081-3.664l.656.164a34.435 34.435 0 0 1-.602 2.898l-.656-.273c.255-.911.456-1.841.602-2.789zm1.313-3.172h.766v12.633h-.766v-12.633zm1.312 2.406c.51.656.947 1.276 1.313 1.859l-.656.438a24.702 24.702 0 0 0-1.258-1.914l.601-.383zm2.68-2.461h.766c-.146 4.193-1.167 7.711-3.063 10.555a6.489 6.489 0 0 0-.656-.547c1.822-2.552 2.806-5.888 2.953-10.008zm-1.75 1.696h8.695v.766h-8.695v-.766zm4.484 1.421h.82c0 1.094-.019 2.078-.055 2.953-.292 2.844-1.514 5.05-3.664 6.617a8.839 8.839 0 0 0-.602-.547c2.224-1.641 3.372-3.846 3.445-6.617.038-.619.056-1.421.056-2.406zm-2.078 2.243c.4.766.802 1.531 1.203 2.297l-.656.273a33.797 33.797 0 0 0-1.148-2.297l.601-.273zm2.789-.657c.072 1.896.455 3.464 1.148 4.703.583.948 1.367 1.769 2.352 2.461-.183.255-.365.492-.547.711a8.688 8.688 0 0 1-2.242-2.516c-.729-1.203-1.148-2.533-1.258-3.992l.547-1.367zm2.735.657l.656.383a37.3 37.3 0 0 1-1.586 2.242l-.602-.438a30.88 30.88 0 0 0 1.532-2.187zm7.831-5.414h.93c-.875 1.568-2.023 3.008-3.445 4.32a32.19 32.19 0 0 0-.492-.711 13.734 13.734 0 0 0 3.007-3.609zm.656 7.656h.82c-1.021 1.313-2.352 2.443-3.992 3.391l-.438-.547c1.422-.802 2.625-1.75 3.61-2.844zm6.617.656h.82v.602c-2.006 1.933-5.451 3.244-10.336 3.938l-.438-.656c4.63-.62 7.947-1.768 9.953-3.445v-.439zm-8.203-5.523h.766v4.594h-.766v-4.594zm.328 0h8.75v.656h-8.75v-.656zm0 1.968h8.75v.656h-8.75v-.656zm0 1.969h8.75v.656h-8.75v-.656zm.164-5.742h10.117v.711h-10.117v-.711zm.109 7.766h.93c.911 1.058 2.224 1.859 3.938 2.406 1.531.4 3.299.656 5.305.766-.146.291-.273.564-.383.82-2.188-.183-4.156-.565-5.906-1.148-1.46-.548-2.754-1.495-3.884-2.844zm.438-.438h7.492v.711h-7.492v-.711zm7.602-5.523h.82v4.594h-.82v-4.594zm7.394-1.477h.766v4.484c0 3.1-.511 5.414-1.531 6.945a2.947 2.947 0 0 0-.602-.711c.911-1.166 1.367-3.227 1.367-6.18v-4.538zm10.5-.875l.273.82c-3.063.256-6.654.401-10.773.438v-.766c4.01 0 7.51-.164 10.5-.492zm-9.898 3.555h10.992v.766h-10.992v-.766zm1.914 3.117h.82v5.688h-.82v-5.688zm.437 0h6.891v.711h-6.891v-.711zm0 4.101h6.891v.711h-6.891v-.711zm6.563-4.101h.82v5.688h-.82v-5.688zm8.159 6.234l-.328-.328c.619-.438.947-1.203.984-2.297h-.93v-1.531h1.531v1.477c.001 1.239-.419 2.132-1.257 2.679zm-152.458 4.167h.766v11.867h-.766v-11.867zm.437 0h10.391v.766H10.651v-.766zm1.368 2.625h7.492v.711h-7.492v-.711zm1.039 2.461h.766v4.156h-.766v-4.156zm.382 0h4.43v.656h-4.43v-.656zm0 3.5h4.43v.656h-4.43v-.656zm4.266-3.5h.766v4.156h-.766v-4.156zm2.898-5.086h.766v10.609c0 .875-.492 1.313-1.477 1.313-.475 0-1.131-.019-1.969-.055a10.625 10.625 0 0 0-.164-.766c.802.072 1.403.109 1.805.109.692 0 1.039-.292 1.039-.875v-10.335zm5.699 4.321h12.523v.711H26.303v-.711zm10.883 2.406l.656.602c-1.276 1.35-2.826 2.406-4.648 3.172-2.188.875-4.375 1.439-6.563 1.695-.037-.146-.146-.42-.328-.82 2.297-.256 4.43-.766 6.398-1.531 1.822-.803 3.318-1.842 4.485-3.118zm-7.602-.602l.656.383c-.875 1.131-1.969 2.151-3.281 3.063a11.282 11.282 0 0 0-.602-.547c1.24-.729 2.315-1.696 3.227-2.899zm-1.094-5.578h.82v3.992h-.82v-3.992zm3.828 5.031h.82v3.664h-.82v-3.664zm.11-6.289h.82v5.305h-.82v-5.305zm.383 2.024h4.977v.711h-4.977v-.711zm13.792 7.82c0 .401.018.693.055.875-1.094.693-1.823 1.221-2.188 1.586l-.492-.711c.255-.219.383-.547.383-.984v-5.195H42.83v-.711h2.297v6.18a101.88 101.88 0 0 1 1.476-1.04zm-2.407-9.297a59.24 59.24 0 0 1 1.695 1.859l-.711.602c-.401-.583-.93-1.239-1.586-1.969l.602-.492zm9.024 3.008l.766.328c-1.604 2.771-3.847 4.831-6.727 6.18a7.577 7.577 0 0 0-.547-.711c2.953-1.276 5.122-3.208 6.508-5.797zm-5.961-1.75h8.477v.711h-8.477v-.711zm7.273 4.266l.766.383c-1.678 2.844-4.156 4.922-7.438 6.234a12.319 12.319 0 0 0-.547-.711c3.208-1.166 5.615-3.135 7.219-5.906zm-4.211-4.047l.93.109a75.752 75.752 0 0 1-2.68 3.445 86.428 86.428 0 0 0 3.555-.164v.602c-1.094.073-2.225.164-3.391.273a3.83 3.83 0 0 0-.875.219l-.438-.875a5.56 5.56 0 0 0 .93-.93 33.731 33.731 0 0 0 1.969-2.679zm1.094-2.133c.291.547.564 1.039.82 1.477l-.711.328a9.574 9.574 0 0 0-.82-1.422l.711-.383zm1.203 9.351a62.134 62.134 0 0 1 3.117 2.68l-.711.547a75.51 75.51 0 0 0-3.063-2.789l.657-.438zm9.254.875l.602.492a30.915 30.915 0 0 1-2.188 2.188l-.547-.547a14.757 14.757 0 0 0 2.133-2.133zm-2.023-1.257h6.672v.656h-6.672v-.656zm.109-7.055h6.508v.656h-6.508v-.656zm.984-1.586h.766v8.859h-.766v-8.859zm.438 3.938h3.555v.656H61.38v-.656zm.055 2.351h3.5v.602h-3.5v-.602zm2.953 3.555c.438.475.875.967 1.313 1.477l-.602.383a73.643 73.643 0 0 0-1.258-1.531l.547-.329zm.328-9.844h.766v8.914h-.766v-8.914zm2.68.492h.711v5.852c0 2.662-.511 4.758-1.531 6.289a4.292 4.292 0 0 0-.547-.656c.474-.729.82-1.567 1.039-2.516.219-.838.328-1.914.328-3.227v-5.742zm.273 6.891h3.828v.656h-3.828v-.656zm.055-6.891h3.828v.656h-3.828v-.656zm0 3.446h3.719v.656h-3.719v-.656zm3.445-3.446h.711v10.664c0 .838-.456 1.258-1.367 1.258h-1.367a10.625 10.625 0 0 0-.164-.766c.656.072 1.166.109 1.531.109.438 0 .656-.237.656-.711v-10.554zm6.026 1.86h.766v10.172h-.766v-10.172zm1.258-2.625a74.274 74.274 0 0 1 1.586 1.531l-.547.547a20.577 20.577 0 0 0-1.531-1.586l.492-.492zm1.86 3.609h.766v6.398h-.766v-6.398zm.382 2.844h4.594v.711h-4.594v-.711zm.055-2.844h4.594v.711H80.75v-.711zm0 5.742h4.594v.711H80.75v-.711zm.656-8.476h7.055v.711h-7.055v-.711zm3.5 2.734h.766v6.398h-.766v-6.398zm3.227-2.734h.711v10.5c0 .947-.456 1.422-1.367 1.422h-1.422a7.01 7.01 0 0 1-.164-.766 23.43 23.43 0 0 0 1.531.055c.474 0 .711-.273.711-.82v-10.391zm5.971 0h.766v11.867h-.766v-11.867zm.383 0h10.555v.711H94.487v-.711zm.055 10.609h10.5v.656h-10.5v-.656zm2.516-7.492h.82v4.867h-.82v-4.867zm.437 0h4.594v.711h-4.594v-.711zm0 4.156h4.539v.711h-4.539v-.711zm4.156-4.156h.82v4.867h-.82v-4.867zm3.008-3.117h.766v11.867h-.766v-11.867zm8.05-.821h.82c-.656 1.495-1.678 2.717-3.063 3.664a7.84 7.84 0 0 0-.492-.656c1.276-.766 2.188-1.767 2.735-3.008zm3.008 8.422h.711c-1.24 1.714-3.154 3.135-5.742 4.266a6.761 6.761 0 0 0-.492-.547c2.259-.875 4.101-2.114 5.523-3.719zm-3.938-2.461h.766l-.656 2.297v.602h-.766v-.82l.656-2.079zm-.273-2.133h9.625v.602h-9.625v-.602zm.109 4.375h10.227v.656h-10.227v-.656zm.274-2.242h9.352v.656h-9.352v-.656zm.328-4.867h4.32v.711h-4.32v-.711zm1.203.766c.438.401.838.784 1.203 1.148l-.547.438a8.643 8.643 0 0 0-1.148-1.148l.492-.438zm4.922-1.86h.82a9.984 9.984 0 0 1-2.406 3.391 45.06 45.06 0 0 0-.602-.492c.985-.875 1.713-1.841 2.188-2.899zm-2.188 4.047h.766v8.805h-.766v-8.805zm1.86-2.953h4.867v.711h-4.867v-.711zm3.5 7.109h.766a35.405 35.405 0 0 1-.164 2.461c-.037.803-.511 1.221-1.422 1.258h-1.859a2.932 2.932 0 0 0-.164-.656h1.914c.474-.072.747-.328.82-.766.035-.583.072-1.348.109-2.297zm-1.641-6.343c.438.401.838.803 1.203 1.203l-.547.438a12.185 12.185 0 0 0-1.148-1.203l.492-.438zm.984 1.914h.711v2.844h-.711v-2.844zm6.246 7.164h12.578v.875h-12.578v-.875zm.82-9.516h10.883v.82h-10.883v-.82zm.601 4.539h9.68v.82h-9.68v-.82zm19.043-3.226h.766v.766c-.219 4.266-1.55 7.383-3.992 9.352a10.941 10.941 0 0 0-.602-.766c2.333-1.786 3.609-4.721 3.828-8.805v-.547zm-3.664-.602h12.578v.766h-12.578v-.766zm3.938 3.227h6.289v.766h-6.289v-.766zm2.242-5.305c.438.62.766 1.112.984 1.477l-.656.492c-.146-.219-.475-.729-.984-1.531l.656-.438zm3.609 5.359h.82a326.002 326.002 0 0 1-.164 4.539c-.073.912-.256 1.549-.547 1.914-.365.4-1.058.602-2.078.602-.547 0-1.167-.019-1.859-.055-.037-.401-.092-.693-.164-.875.947.146 1.713.219 2.297.219.583 0 .984-.146 1.203-.438.182-.219.31-.656.383-1.313.036-.946.072-2.477.109-4.593zm11.113-5.414l.82.219c-1.167 3.573-2.771 6.362-4.813 8.367a4.878 4.878 0 0 0-.383-.711c1.969-2.005 3.427-4.63 4.376-7.875zm-4.211 1.477h12.688v.711h-12.688v-.711zm1.969 3.883h.766v7.383h-.766v-7.383zm1.64 2.187h9.242v.711h-9.242v-.711zm5.36-.601v4.32c0 .911-.475 1.403-1.422 1.477-.475 0-1.094-.019-1.859-.055a4.126 4.126 0 0 0-.164-.766c.802.036 1.422.055 1.859.055.51 0 .766-.237.766-.711v-4.703a62.782 62.782 0 0 0 2.734-1.969h-6.453v-.711h7.492v.875c-.912.656-1.897 1.386-2.953 2.188zm10.237-6.836l.602.219c-.839 2.881-1.805 5.178-2.898 6.891a5.513 5.513 0 0 0-.273-.82c1.128-1.861 1.985-3.956 2.569-6.29zm-.93 4.211h.602v8.422h-.602v-8.422zm4.649 5.304c0 .401.018.675.055.82-1.094.656-1.805 1.13-2.133 1.422l-.492-.602c.255-.219.383-.583.383-1.094v-4.648h-1.203v-.656h1.914v5.742c.473-.327.965-.656 1.476-.984zm-2.079-8.968a90.075 90.075 0 0 1 1.477 2.023l-.656.492a30.012 30.012 0 0 0-1.367-2.133l.546-.382zm8.094.437l.602.328c-.803 1.276-1.641 2.37-2.516 3.281-1.131 1.203-2.771 2.443-4.922 3.719-.109-.182-.237-.4-.383-.656 1.822-.947 3.299-1.986 4.43-3.117.947-.911 1.877-2.096 2.789-3.555zm-6.398 3.391h7v.656h-7v-.656zm.492-2.735h4.43v.656h-4.43v-.656zm.93 5.305h.711v5.688h-.711v-5.688zm.218 4.102h4.156v.656h-4.156v-.656zm.055-4.594h4.43v.656h-4.43v-.656zm0 2.297h4.156v.656h-4.156v-.656zm.602-8.805h.711v4.648h-.711v-4.648zm3.062 6.891h.766v5.797h-.766v-5.797zm7.394-6.782h.82v11.32c0 .619-.328 1.002-.984 1.148-.256.036-.748.055-1.477.055a8.483 8.483 0 0 0-.164-.82c.51.036.911.055 1.203.055.4 0 .602-.201.602-.602V395.63zm2.242 5.633c0 .219.018.475.055.766a85.05 85.05 0 0 0-3.992 1.258l-.109-.766c1.348-.4 2.696-.82 4.046-1.258zm-3.992-3.117h4.047v.656h-4.047v-.656zm4.32 8.695h8.531v.711h-8.531v-.711zm.164-8.914h7.875v.766h-7.875v-.766zm1.313 1.805a148.777 148.777 0 0 1 1.914 5.688l-.875.273a365.879 365.879 0 0 0-1.75-5.797l.711-.164zm2.351-4.266c.328.584.656 1.203.984 1.859l-.82.273a22.02 22.02 0 0 0-.93-1.859l.766-.273zm2.625 4.211l.875.273a344.481 344.481 0 0 1-2.297 7.438h-.93a131.456 131.456 0 0 0 2.352-7.711zm12.917 4.813c-.037.183-.055.42-.055.711-2.115.328-4.32.693-6.617 1.094l-.273-.766c2.369-.328 4.684-.674 6.945-1.039zm-6.781-8.313h6.727v.656h-6.727v-.656zm.93.274h.875v9.297h-.875v-9.297zm.492 2.625h3.664v.602h-3.664v-.602zm0 2.953h3.609v.602h-3.609v-.602zm3.281-5.633h.875v11.867h-.875v-11.867zm6.453.219h.766v.766c-.365 3.281-1.094 5.779-2.188 7.492-.803 1.24-2.006 2.352-3.609 3.336a3.08 3.08 0 0 0-.492-.656c1.641-.947 2.861-2.06 3.664-3.336.947-1.677 1.567-4.047 1.859-7.109v-.493zm-5.031 0h5.469v.711h-5.469v-.711zm1.476.492c.109 3.026.674 5.342 1.695 6.945.875 1.203 2.005 2.261 3.391 3.172-.219.255-.42.51-.602.766-1.422-1.094-2.479-2.169-3.172-3.227-1.167-1.677-1.823-4.192-1.969-7.547l.657-.109zm9.582.601h.82v10.391h-.82v-10.391zm.274 8.477h4.266v.82h-4.266v-.82zm.055-8.477h4.156v.766h-4.156v-.766zm0 4.211h4.156v.766h-4.156v-.766zm1.75-6.289l.875.164c-.292.729-.565 1.404-.82 2.023h-.875c.327-.728.601-1.457.82-2.187zm1.859 2.078h.82v10.336h-.82v-10.336zm3.227-2.296l.711.383a45.563 45.563 0 0 1-1.859 5.195 12.674 12.674 0 0 0-.711-.547 31.497 31.497 0 0 0 1.859-5.031zm-.547 2.187h4.977v.711h-4.977v-.711zm.984 3.281a74.546 74.546 0 0 1 2.023 2.68l-.711.547a48.688 48.688 0 0 0-1.969-2.789l.657-.438zm3.391-3.281h.82c-.037 4.339-.092 7.128-.164 8.367 0 1.385-.693 2.078-2.078 2.078-.438 0-.967-.019-1.586-.055a5.61 5.61 0 0 0-.164-.82c.692.072 1.258.109 1.695.109.875 0 1.33-.438 1.367-1.313.073-1.347.11-4.136.11-8.366zm14.776.602l.875.109c-.584 2.99-1.787 5.25-3.609 6.781-.984.948-2.99 1.969-6.016 3.063a5.302 5.302 0 0 0-.602-.875c2.807-.875 4.813-1.805 6.016-2.789 1.713-1.422 2.825-3.518 3.336-6.289zm-9.242-.438h12.469v.82h-12.469v-.82zm3.117.164c.984 3.026 2.297 5.269 3.938 6.727 1.422 1.203 3.263 2.097 5.523 2.68-.183.255-.365.528-.547.82-2.334-.729-4.193-1.713-5.578-2.953-1.75-1.604-3.117-3.938-4.102-7l.766-.274zm3.008-2.406c.438.656.783 1.186 1.039 1.586l-.711.492c-.146-.219-.456-.766-.93-1.641l.602-.437zm13.409.109l.711.273c-.984 2.844-2.115 5.104-3.391 6.781a7.493 7.493 0 0 0-.383-.766c1.313-1.821 2.334-3.918 3.063-6.288zm-1.094 4.211h.656v8.367h-.656v-8.367zm4.321-3.281l.711.219c-.803 2.078-1.659 3.737-2.57 4.977a8.607 8.607 0 0 1-.547-.602c.984-1.313 1.785-2.844 2.406-4.594zm-2.243 6.398h9.023v.711h-9.023v-.711zm1.586-4.32h7v.711h-7v-.711zm3.008-3.062h.766v12.633h-.766v-12.633zm15.761 10.5c.036.328.055.584.055.766-2.808.291-5.269.583-7.383.875l-.164-.875c2.078-.182 4.575-.438 7.492-.766zm-7.219-9.735h7.383v.656h-7.383v-.656zm3.117.438l.656.383a42.023 42.023 0 0 1-2.297 3.063c1.422-.072 2.971-.146 4.648-.219l.219.711c-2.078.109-3.756.201-5.031.273a4.849 4.849 0 0 0-.93.219l-.328-.875c.328-.109.583-.273.766-.492.583-.62 1.349-1.641 2.297-3.063zm-3.008 6.344h6.945v.711h-6.945v-.711zm3.118-1.641h.766v5.305h-.766v-5.305zm2.187-3.391a40.895 40.895 0 0 1 1.859 2.953l-.766.492a31.603 31.603 0 0 0-1.695-3.063l.602-.382zm5.742-2.57h.875v11.047c0 .984-.529 1.477-1.586 1.477h-1.805c-.073-.328-.146-.62-.219-.875.547.036 1.139.055 1.777.055.638 0 .957-.273.957-.82v-10.884zm-2.734 1.039h.82v8.531h-.82v-8.531zM19.292 413.305h.766v.82c-.656 2.99-1.933 5.451-3.828 7.383-1.386 1.422-3.5 2.57-6.344 3.445a3.99 3.99 0 0 0-.492-.82c2.625-.692 4.703-1.731 6.234-3.117 1.859-1.859 3.08-4.266 3.664-7.219v-.492zm-8.805 0h9.188v.766h-9.188v-.766zm1.149.492h.82c.619 3.172 1.859 5.651 3.719 7.438 1.239 1.131 3.208 2.061 5.906 2.789-.219.291-.42.583-.602.875-2.625-.839-4.648-1.914-6.07-3.227-1.823-1.786-3.081-4.411-3.773-7.875zm16.581-1.422h.93v11.266c0 .619-.383 1.002-1.148 1.148-.292.036-.875.055-1.75.055a8.483 8.483 0 0 0-.164-.82c.619.036 1.094.055 1.422.055.474 0 .711-.183.711-.547v-11.157zm2.57 5.633c.036.219.055.456.055.711-1.604.438-3.154.875-4.648 1.313l-.109-.82a111.84 111.84 0 0 0 4.702-1.204zm-4.648-3.117h4.703v.656h-4.703v-.656zm5.523-.711h.82v10.719h-.82V414.18zm.438 4.594h5.578v.711H32.1v-.711zm.054-4.594h5.523v.711h-5.523v-.711zm0 9.133h5.523v.711h-5.523v-.711zm2.133-11.047l.93.328a18.272 18.272 0 0 1-.875 1.914l-.82-.219a19.4 19.4 0 0 0 .765-2.023zm3.117 1.914h.875v10.773h-.875V414.18zm5.644 3.117H55.79v.82H43.048v-.82zm5.523.219l.766.547a50.138 50.138 0 0 1-3.992 4.813c2.15-.072 4.758-.2 7.82-.383.182.292.383.565.602.82a431.73 431.73 0 0 0-8.367.492 5.732 5.732 0 0 0-1.148.219l-.383-1.094a3.4 3.4 0 0 0 .984-.602c1.312-1.384 2.551-2.989 3.718-4.812zm-4.32-4.266h10.281v.82H44.251v-.82zm7 5.961a367.074 367.074 0 0 1 3.828 4.813l-.82.602a103.997 103.997 0 0 0-3.719-4.977l.711-.438zm12.754-6.945l.82.219c-1.167 3.573-2.771 6.362-4.813 8.367a4.878 4.878 0 0 0-.383-.711c1.97-2.005 3.428-4.63 4.376-7.875zm-4.211 1.477h12.688v.711H59.794v-.711zm1.969 3.882h.766v7.383h-.766v-7.383zm1.64 2.188h9.242v.711h-9.242v-.711zm5.36-.602v4.32c0 .911-.475 1.403-1.422 1.477-.475 0-1.094-.019-1.859-.055a4.126 4.126 0 0 0-.164-.766c.802.036 1.422.055 1.859.055.51 0 .766-.237.766-.711v-4.703a62.782 62.782 0 0 0 2.734-1.969h-6.453v-.711h7.492v.875a149.97 149.97 0 0 0-2.953 2.188zM79 412.375l.602.219c-.839 2.881-1.805 5.178-2.898 6.891a5.513 5.513 0 0 0-.273-.82c1.129-1.86 1.985-3.956 2.569-6.29zm-.93 4.211h.602v8.422h-.602v-8.422zm4.649 5.305c0 .401.018.675.055.82-1.094.656-1.805 1.13-2.133 1.422l-.492-.602c.255-.219.383-.583.383-1.094v-4.648h-1.203v-.656h1.914v5.742c.473-.328.965-.656 1.476-.984zm-2.078-8.969a90.075 90.075 0 0 1 1.477 2.023l-.656.492a30.012 30.012 0 0 0-1.367-2.133l.546-.382zm8.093.438l.602.328c-.803 1.276-1.641 2.37-2.516 3.281-1.131 1.203-2.771 2.443-4.922 3.719-.109-.182-.237-.4-.383-.656 1.822-.947 3.299-1.986 4.43-3.117.948-.912 1.877-2.096 2.789-3.555zm-6.398 3.39h7v.656h-7v-.656zm.492-2.734h4.43v.656h-4.43v-.656zm.93 5.305h.711v5.688h-.711v-5.688zm.219 4.101h4.156v.656h-4.156v-.656zm.054-4.593h4.43v.656h-4.43v-.656zm0 2.296h4.156v.656h-4.156v-.656zm.602-8.804h.711v4.648h-.711v-4.648zm3.062 6.89h.766v5.797h-.766v-5.797zm7.066 3.774c.109-1.166.729-1.805 1.859-1.914 1.13.109 1.75.748 1.859 1.914-.109 1.094-.729 1.677-1.859 1.75-1.094-.073-1.714-.656-1.859-1.75zm.547 0c.072.693.51 1.075 1.313 1.148.802-.073 1.239-.455 1.313-1.148-.073-.802-.511-1.258-1.313-1.367-.804.109-1.241.565-1.313 1.367zm311.895 18.719v5.391c.03 2.625-1.172 3.922-3.609 3.891-2.407.031-3.594-1.266-3.563-3.891v-5.391h.844v5.344c-.031 2.314.874 3.422 2.719 3.328 1.938.094 2.875-1.014 2.813-3.328v-5.344h.796zm6.188 5.343h-3.047v3.797h-.797v-9.141h3.938c1.812.094 2.813.984 3 2.672-.032 1.752-1.063 2.643-3.094 2.672zm-.188-4.64h-2.859v3.938h2.859c1.563-.029 2.359-.703 2.391-2.016-.064-1.248-.861-1.891-2.391-1.922zm12.281-.703l-3.75 5.438v3.75h-.844v-3.75l-3.609-5.438h.891l3.188 4.734 3.094-4.734h1.03zm8.672 0v5.391c.03 2.625-1.172 3.922-3.609 3.891-2.407.031-3.594-1.266-3.563-3.891v-5.391h.844v5.344c-.031 2.314.874 3.422 2.719 3.328 1.938.094 2.875-1.014 2.813-3.328v-5.344h.796zm8.485 9.14l-5.438-8.438v8.438h-.75v-9.141h1.031l5.391 8.297v-8.297h.75v9.141h-.984zm13.312-2.953l.984.234c-.532 1.875-1.828 2.828-3.891 2.859-2.625-.125-4.016-1.623-4.172-4.5.124-3.123 1.547-4.764 4.266-4.922 1.718.064 2.922.908 3.609 2.531l-.938.234c-.563-1.342-1.5-2.031-2.813-2.063-1.969.219-3.047 1.594-3.234 4.125.124 2.469 1.188 3.797 3.188 3.984 1.625-.06 2.626-.888 3.001-2.482zm5.906 2.953h-3.094v-9.141h3.188c2.813.094 4.266 1.625 4.359 4.594.063 3.094-1.422 4.61-4.453 4.547zm.047-8.437h-2.344v7.875h2.297c2.438-.029 3.64-1.342 3.609-3.938-.093-2.5-1.281-3.812-3.562-3.937zm12.422 8.437l-5.438-8.438v8.438h-.75v-9.141h1.031l5.391 8.297v-8.297h.75v9.141h-.984zm133.811-212.316h.656v.703c-.563 2.563-1.657 4.672-3.281 6.328-1.188 1.219-3 2.203-5.438 2.953a3.463 3.463 0 0 0-.422-.703c2.25-.594 4.031-1.484 5.344-2.672 1.594-1.594 2.641-3.656 3.141-6.188v-.421zm-7.547 0h7.875v.656h-7.875v-.656zm.984.422h.703c.531 2.719 1.594 4.844 3.188 6.375 1.062.969 2.749 1.766 5.063 2.391-.188.25-.359.498-.516.75-2.25-.721-3.984-1.641-5.203-2.766-1.564-1.532-2.642-3.782-3.235-6.75zm13.013-1.219h.797v9.656c0 .531-.328.859-.984.984-.25.029-.75.047-1.5.047a6.774 6.774 0 0 0-.141-.703c.531.029.938.047 1.219.047.406 0 .609-.158.609-.469v-9.562zm2.203 4.828c.031.188.047.391.047.609-1.375.375-2.703.75-3.984 1.125l-.094-.703a94.942 94.942 0 0 0 4.031-1.031zm-3.984-2.672h4.031v.563h-4.031v-.563zm4.734-.609h.703v9.188h-.703v-9.188zm.375 3.937h4.781v.609h-4.781v-.609zm.047-3.937h4.734v.609h-4.734v-.609zm0 7.828h4.734v.609h-4.734v-.609zm1.828-9.469l.797.281a15.677 15.677 0 0 1-.75 1.641l-.703-.188c.25-.562.468-1.14.656-1.734zm2.672 1.641h.75v9.234h-.75v-9.234zm3.638 2.672h10.922v.703h-10.922v-.703zm4.734.187l.656.469a43.075 43.075 0 0 1-3.422 4.125c1.844-.063 4.078-.172 6.703-.328.156.25.328.484.516.703-2.531.125-4.922.266-7.172.422a4.776 4.776 0 0 0-.984.188l-.328-.938c.312-.125.593-.297.844-.516 1.124-1.187 2.186-2.562 3.187-4.125zm-3.703-3.656h8.813v.703h-8.813v-.703zm6 5.109a315.375 315.375 0 0 1 3.281 4.125l-.703.516c-.938-1.344-2-2.766-3.188-4.266l.61-.375zm9.73-5.953l.703.188c-1.001 3.063-2.375 5.453-4.125 7.172a4.202 4.202 0 0 0-.328-.609c1.688-1.72 2.937-3.97 3.75-6.751zm-3.609 1.266h10.875v.609h-10.875v-.609zm1.687 3.328h.656v6.328h-.656v-6.328zm1.407 1.875h7.922v.609h-7.922v-.609zm4.593-.516v3.703c0 .779-.406 1.201-1.219 1.266-.406 0-.938-.018-1.594-.047a3.334 3.334 0 0 0-.141-.656c.687.029 1.219.047 1.594.047.438 0 .656-.205.656-.609v-4.031a55.036 55.036 0 0 0 2.344-1.688h-5.531v-.609h6.422v.75c-.781.562-1.624 1.187-2.531 1.874zm7.576-5.859l.516.188c-.719 2.469-1.547 4.438-2.484 5.906a4.789 4.789 0 0 0-.234-.703c.967-1.594 1.702-3.391 2.202-5.391zm-.797 3.609h.516v7.219h-.516v-7.219zm3.984 4.547c0 .344.016.578.047.703-.938.563-1.547.967-1.828 1.219l-.422-.516c.219-.188.328-.5.328-.938v-3.984h-1.031v-.563h1.641v4.922c.406-.28.828-.562 1.265-.843zm-1.781-7.687c.469.625.891 1.203 1.266 1.734l-.563.422a25.181 25.181 0 0 0-1.172-1.828l.469-.328zm6.937.375l.516.281c-.688 1.094-1.406 2.031-2.156 2.813-.969 1.031-2.375 2.094-4.219 3.188a28.531 28.531 0 0 1-.328-.563c1.563-.813 2.828-1.703 3.797-2.672.812-.782 1.609-1.797 2.39-3.047zm-5.484 2.906h6v.563h-6v-.563zm.422-2.344h3.797v.563h-3.797v-.563zm.797 4.547h.609v4.875h-.609v-4.875zm.187 3.516h3.563v.563h-3.563v-.563zm.047-3.938h3.797v.563h-3.797v-.563zm0 1.969h3.563v.563h-3.563v-.563zm.516-7.547h.609v3.984h-.609v-3.984zm2.625 5.906h.656v4.969h-.656v-4.969z"/><path fill="#31C98E" d="M631 170.705l-4 6.928-4-6.928z"/><path fill="#45ADD7" d="M584.334 210.3l6.929 4-6.929 4zm-365.121 28.228h.656v.703c-.563 2.563-1.657 4.672-3.281 6.328-1.188 1.219-3 2.203-5.438 2.953a3.463 3.463 0 0 0-.422-.703c2.25-.594 4.031-1.484 5.344-2.672 1.594-1.594 2.641-3.656 3.141-6.188v-.421zm-7.547 0h7.875v.656h-7.875v-.656zm.984.422h.703c.531 2.719 1.594 4.844 3.188 6.375 1.062.969 2.749 1.766 5.063 2.391-.188.25-.359.498-.516.75-2.25-.721-3.984-1.641-5.203-2.766-1.564-1.532-2.642-3.782-3.235-6.75zm13.013-1.219h.797v9.656c0 .531-.328.859-.984.984-.25.029-.75.047-1.5.047a6.774 6.774 0 0 0-.141-.703c.531.029.938.047 1.219.047.406 0 .609-.158.609-.469v-9.562zm2.203 4.828c.031.188.047.391.047.609-1.375.375-2.703.75-3.984 1.125l-.094-.703a94.557 94.557 0 0 0 4.031-1.031zm-3.984-2.672h4.031v.563h-4.031v-.563zm4.734-.609h.703v9.188h-.703v-9.188zm.375 3.937h4.781v.609h-4.781v-.609zm.047-3.937h4.734v.609h-4.734v-.609zm0 7.828h4.734v.609h-4.734v-.609zm1.828-9.469l.797.281a15.677 15.677 0 0 1-.75 1.641l-.703-.188c.25-.562.469-1.14.656-1.734zm2.672 1.641h.75v9.234h-.75v-9.234zm3.638 2.672h10.922v.703h-10.922v-.703zm4.734.187l.656.469a43.075 43.075 0 0 1-3.422 4.125c1.844-.063 4.078-.172 6.703-.328.156.25.328.484.516.703-2.531.125-4.922.266-7.172.422a4.776 4.776 0 0 0-.984.188l-.328-.938c.312-.125.593-.297.844-.516 1.125-1.187 2.186-2.562 3.187-4.125zm-3.703-3.656h8.813v.703h-8.813v-.703zm6 5.109a315.375 315.375 0 0 1 3.281 4.125l-.703.516c-.938-1.344-2-2.766-3.188-4.266l.61-.375zm9.731-5.953l.703.188c-1.001 3.063-2.375 5.453-4.125 7.172a4.202 4.202 0 0 0-.328-.609c1.687-1.72 2.936-3.97 3.75-6.751zm-3.61 1.266h10.875v.609h-10.875v-.609zm1.688 3.328h.656v6.328h-.656v-6.328zm1.406 1.875h7.922v.609h-7.922v-.609zm4.594-.516v3.703c0 .779-.406 1.201-1.219 1.266-.406 0-.938-.018-1.594-.047a3.334 3.334 0 0 0-.141-.656c.687.029 1.219.047 1.594.047.438 0 .656-.205.656-.609v-4.031a55.036 55.036 0 0 0 2.344-1.688h-5.531v-.609h6.422v.75c-.781.562-1.625 1.187-2.531 1.874zm7.575-5.859l.516.188c-.719 2.469-1.547 4.438-2.484 5.906a4.789 4.789 0 0 0-.234-.703c.967-1.594 1.702-3.391 2.202-5.391zm-.797 3.609h.516v7.219h-.516v-7.219zm3.984 4.547c0 .344.016.578.047.703-.938.563-1.547.967-1.828 1.219l-.422-.516c.219-.188.328-.5.328-.938v-3.984h-1.031v-.563h1.641v4.922c.406-.28.828-.562 1.265-.843zm-1.781-7.687c.469.625.891 1.203 1.266 1.734l-.563.422a25.181 25.181 0 0 0-1.172-1.828l.469-.328zm6.938.375l.516.281c-.688 1.094-1.406 2.031-2.156 2.813-.969 1.031-2.375 2.094-4.219 3.188a28.531 28.531 0 0 1-.328-.563c1.563-.813 2.828-1.703 3.797-2.672.811-.782 1.608-1.797 2.39-3.047zm-5.485 2.906h6v.563h-6v-.563zm.422-2.344h3.797v.563h-3.797v-.563zm.797 4.547h.609v4.875h-.609v-4.875zm.187 3.516h3.563v.563h-3.563v-.563zm.047-3.938h3.797v.563h-3.797v-.563zm0 1.969h3.563v.563h-3.563v-.563zm.516-7.547h.609v3.984h-.609v-3.984zm2.625 5.906h.656v4.969h-.656v-4.969zm-19.969-72.885l-4 6.928-4-6.928z"/><path fill="#31C98E" d="M245.075 260.646l4-6.929 4 6.929zm237.556 147.579l-6.929-4 6.929-4z"/><path fill="#45ADD7" d="M441.905 458.563l-4 6.929-4-6.929zm-49.001-73.765l6.929 4-6.929 4zm88.43-171.397h94v1.8h-94zm-193 0h108v1.8h-108z"/><path fill="#FFF" stroke="#45ADD7" stroke-width="2" stroke-miterlimit="10" d="M580.834 78.73a4.5 4.5 0 0 1-9 0 4.5 4.5 0 0 1 9 0z"/><path fill="#45ADD7" d="M600.27 54.311h35v.9h-35z"/><path fill="#45ADD7" d="M579.105 75.504L600.29 54.32l.636.636-21.183 21.183z"/><path fill="#FFF" stroke="#45ADD7" stroke-width="2" stroke-miterlimit="10" d="M240.025 350.884a4.5 4.5 0 1 0 6.364-6.363 4.498 4.498 0 0 0-6.364 0 4.499 4.499 0 0 0 0 6.363z"/><path fill="#45ADD7" d="M209.8 347.83l-17.42 30.357-.781-.448 17.42-30.356z"/><path fill="#45ADD7" d="M209.001 347.374h29.958v.9h-29.958z"/><g fill-rule="evenodd" clip-rule="evenodd" fill="#33B898"><path d="M285.595 340.689c1.017-.864 1.781-2.126 1.781-3.512 0-2.489-2.031-4.514-4.527-4.514a.79.79 0 1 0 0 1.58 2.943 2.943 0 0 1 2.946 2.934c0 1.325-1.295 2.651-2.457 3.013l-.012.004-.016.006a.155.155 0 0 0-.023.008l-.012.005-.026.011-.007.003a.75.75 0 0 0-.265.201l-.007.008-.017.02a.192.192 0 0 1-.013.017l-.009.012a.541.541 0 0 1-.022.03.603.603 0 0 0-.069.133l-.001.001-.013.031-.002.006-.008.028-.004.01a.745.745 0 0 1-.006.023l-.005.017-.004.019-.005.022-.002.014-.004.027-.001.007-.001.005-.002.029-.002.01v.028l-.001.013v.024l.001.018.001.018.001.023.002.011.004.03v.006a.433.433 0 0 0 .007.035v.001a.817.817 0 0 0 .09.237.786.786 0 0 0 .229.25l.002.002.027.018.006.005.025.015.006.004a.793.793 0 0 0 .07.035l.031.014.003.001a.854.854 0 0 0 .208.05 5.173 5.173 0 0 1 4.543 5.128.79.79 0 1 0 1.58 0 6.749 6.749 0 0 0-4.02-6.174m6.465 0c1.016-.864 1.781-2.126 1.781-3.512 0-2.489-2.031-4.514-4.528-4.514a.791.791 0 0 0 0 1.58 2.945 2.945 0 0 1 2.948 2.934c0 1.325-1.297 2.651-2.459 3.013l-.012.004-.016.006a.155.155 0 0 0-.023.008l-.01.005c-.01.004-.02.007-.027.011l-.006.003a.755.755 0 0 0-.267.201l-.006.008a.36.36 0 0 0-.018.02l-.012.017c-.004.004-.006.009-.01.012a.541.541 0 0 1-.018.025l-.002.005-.02.031c-.02.032-.035.066-.051.102v.001l-.012.031c-.002.002-.002.004-.002.006l-.01.028-.004.01a.745.745 0 0 1-.006.023l-.004.017-.004.019a.093.093 0 0 0-.004.022l-.004.014a.11.11 0 0 1-.004.027v.012l-.004.029v.01c-.002.01-.002.019-.002.028v.055l.002.018c0 .008 0 .016.002.023v.011l.004.03.002.006.006.035v.001a.763.763 0 0 0 .057.175l.014.027.002.004.018.031a.758.758 0 0 0 .229.252l.027.018.006.005.027.015.006.004a.773.773 0 0 0 .068.035l.033.014.002.001a.869.869 0 0 0 .207.05 5.176 5.176 0 0 1 4.546 5.128.79.79 0 1 0 1.58 0 6.75 6.75 0 0 0-4.022-6.174"/><path d="M279.224 340.897a4.4 4.4 0 0 0 2.286-3.855 4.412 4.412 0 0 0-4.42-4.404 4.412 4.412 0 0 0-4.42 4.404 4.4 4.4 0 0 0 2.285 3.855c-2.549.805-4.476 3.004-4.864 5.704a.886.886 0 0 0 .878 1.009h12.242a.886.886 0 0 0 .878-1.009c-.387-2.7-2.315-4.899-4.865-5.704"/></g><path fill="#45ADD7" d="M387.904 387.081c-58.337-17.039-104.407-63.102-121.458-121.434h-3.13c17.218 59.992 64.591 107.357 124.588 124.564v-3.13z"/></svg>